<?xml version="1.0" encoding="UTF-8"?>
<!DOCTYPE svg PUBLIC "-//W3C//DTD SVG 1.1//EN" "http://www.w3.org/Graphics/SVG/1.1/DTD/svg11.dtd">
<svg xmlns="http://www.w3.org/2000/svg" version="1.1" width="1024px" height="1024px" style="shape-rendering:geometricPrecision; text-rendering:geometricPrecision; image-rendering:optimizeQuality; fill-rule:evenodd; clip-rule:evenodd" xmlns:xlink="http://www.w3.org/1999/xlink">
<g><path style="opacity:1" fill="#efefef" d="M -0.5,-0.5 C 340.833,-0.5 682.167,-0.5 1023.5,-0.5C 1023.5,340.833 1023.5,682.167 1023.5,1023.5C 682.167,1023.5 340.833,1023.5 -0.5,1023.5C -0.5,682.167 -0.5,340.833 -0.5,-0.5 Z"/></g>
<g><path style="opacity:1" fill="#048acd" d="M 129.5,459.5 C 128.115,460.574 126.949,461.907 126,463.5C 125.374,461.009 124.541,461.009 123.5,463.5C 122.232,462.572 120.899,462.405 119.5,463C 118.333,464.833 116.833,466.333 115,467.5C 114.224,464.351 112.724,463.851 110.5,466C 111.5,466.333 112.5,466.667 113.5,467C 110.89,468.481 108.223,469.648 105.5,470.5C 105.822,472.722 105.155,474.556 103.5,476C 103.833,476.333 104.167,476.667 104.5,477C 102.842,477.725 102.342,478.892 103,480.5C 103.333,480.167 103.667,479.833 104,479.5C 105.067,480.191 106.234,480.691 107.5,481C 107.167,481.333 106.833,481.667 106.5,482C 107.308,482.308 107.975,482.808 108.5,483.5C 107.47,483.554 106.303,483.888 105,484.5C 104.667,483.833 104.333,483.167 104,482.5C 102.667,483.167 101.333,483.833 100,484.5C 99.8333,484 99.6667,483.5 99.5,483C 103.157,472.522 107.49,462.356 112.5,452.5C 131.539,418.299 159.039,393.299 195,377.5C 196.396,356.432 207.563,346.266 228.5,347C 246.407,351.594 253.907,363.094 251,381.5C 247.566,392.596 240.066,399.096 228.5,401C 219.187,402.618 210.854,400.451 203.5,394.5C 181.811,403.348 163.311,416.682 148,434.5C 141.584,442.735 135.418,451.068 129.5,459.5 Z"/></g>
<g><path style="opacity:1" fill="#eeefef" d="M 220.5,363.5 C 230.319,363.15 234.819,367.817 234,377.5C 230.364,383.177 225.197,385.01 218.5,383C 213.78,379.702 212.28,375.202 214,369.5C 215.494,366.686 217.66,364.686 220.5,363.5 Z"/></g>
<g><path style="opacity:1" fill="#7f8184" d="M 900.5,399.5 C 908.01,398.18 915.677,398.18 923.5,399.5C 923.376,400.107 923.043,400.44 922.5,400.5C 915.352,399.508 908.019,399.175 900.5,399.5 Z"/></g>
<g><path style="opacity:1" fill="#0e1419" d="M 599.5,397.5 C 606.532,397.17 613.532,397.503 620.5,398.5C 616.025,404.809 611.359,410.975 606.5,417C 599.833,417.667 593.167,417.667 586.5,417C 590.968,410.557 595.301,404.057 599.5,397.5 Z"/></g>
<g><path style="opacity:1" fill="#091116" d="M 900.5,399.5 C 908.019,399.175 915.352,399.508 922.5,400.5C 917.366,405.805 912.366,411.305 907.5,417C 901.5,417.667 895.5,417.667 889.5,417C 893.425,411.26 897.092,405.427 900.5,399.5 Z"/></g>
<g><path style="opacity:1" fill="#030405" d="M 822.5,487.5 C 807.833,487.5 793.167,487.5 778.5,487.5C 778.5,501.167 778.5,514.833 778.5,528.5C 771.5,528.5 764.5,528.5 757.5,528.5C 757.5,494.833 757.5,461.167 757.5,427.5C 764.5,427.5 771.5,427.5 778.5,427.5C 778.5,441.167 778.5,454.833 778.5,468.5C 793.167,468.5 807.833,468.5 822.5,468.5C 822.5,454.833 822.5,441.167 822.5,427.5C 829.5,427.5 836.5,427.5 843.5,427.5C 843.5,461.167 843.5,494.833 843.5,528.5C 836.5,528.5 829.5,528.5 822.5,528.5C 822.5,514.833 822.5,501.167 822.5,487.5 Z"/></g>
<g><path style="opacity:1" fill="#0582c5" d="M 268.5,488.5 C 267.671,487.668 266.838,488.001 266,489.5C 265.202,487.741 265.369,486.074 266.5,484.5C 269.187,485.061 269.187,484.394 266.5,482.5C 265.186,483.313 264.019,484.313 263,485.5C 262.667,485.167 262.333,484.833 262,484.5C 262.077,485.738 261.911,486.738 261.5,487.5C 259.596,485.484 257.429,483.818 255,482.5C 254.346,483.696 253.846,483.696 253.5,482.5C 255.664,481.586 257.664,480.419 259.5,479C 258.584,478.626 257.75,478.126 257,477.5C 256.28,479.255 255.113,480.089 253.5,480C 254.758,478.259 255.758,476.426 256.5,474.5C 258.14,471.22 259.807,467.886 261.5,464.5C 254.586,453.63 253.753,442.297 259,430.5C 269.988,416.473 283.488,413.639 299.5,422C 310.572,431.792 313.406,443.625 308,457.5C 301.473,468.015 291.973,473.182 279.5,473C 276.18,478.497 272.513,483.664 268.5,488.5 Z"/></g>
<g><path style="opacity:1" fill="#efefef" d="M 278.5,434.5 C 288.337,433.511 293.17,437.844 293,447.5C 289.807,454.123 284.64,456.29 277.5,454C 270.701,447.104 271.034,440.604 278.5,434.5 Z"/></g>
<g><path style="opacity:1" fill="#091217" d="M 402.5,427.5 C 410.196,427.169 417.862,427.503 425.5,428.5C 438.766,461.635 451.433,494.968 463.5,528.5C 456.159,528.666 448.826,528.5 441.5,528C 438.833,521.333 436.167,514.667 433.5,508C 420.154,507.167 406.821,507.334 393.5,508.5C 391.26,515.055 388.927,521.555 386.5,528C 379.167,528.667 371.833,528.667 364.5,528C 377.268,494.527 389.935,461.027 402.5,427.5 Z"/></g>
<g><path style="opacity:1" fill="#091218" d="M 475.5,427.5 C 492.17,427.333 508.837,427.5 525.5,428C 543.508,431.506 551.008,442.339 548,460.5C 545.782,467.552 541.282,472.552 534.5,475.5C 552.044,483.622 556.878,496.622 549,514.5C 542.395,522.553 533.895,527.053 523.5,528C 507.503,528.5 491.503,528.667 475.5,528.5C 475.5,494.833 475.5,461.167 475.5,427.5 Z"/></g>
<g><path style="opacity:1" fill="#efefef" d="M 496.5,444.5 C 504.903,444.13 513.236,444.63 521.5,446C 528.876,450.267 530.376,456.101 526,463.5C 524.167,464.667 522.333,465.833 520.5,467C 512.585,468.401 504.585,468.901 496.5,468.5C 496.5,460.5 496.5,452.5 496.5,444.5 Z"/></g>
<g><path style="opacity:1" fill="#057ec3" d="M 198.5,430.5 C 195.548,432.785 192.882,435.452 190.5,438.5C 190.968,440.134 191.968,441.3 193.5,442C 192.396,445.817 190.563,446.317 188,443.5C 187.667,444.167 187.333,444.833 187,445.5C 186.8,449.753 186.3,453.92 185.5,458C 188.044,459.099 188.044,460.265 185.5,461.5C 184.808,460.975 184.308,460.308 184,459.5C 182.731,460.905 182.231,462.571 182.5,464.5C 183.552,464.351 184.552,464.517 185.5,465C 184.304,465.654 184.304,466.154 185.5,466.5C 186.478,466.023 187.311,465.357 188,464.5C 189,465.833 190,467.167 191,468.5C 194.568,467.924 198.068,467.59 201.5,467.5C 201.281,468.675 201.614,469.675 202.5,470.5C 203.425,469.359 204.259,469.359 205,470.5C 205.974,468.122 206.641,468.456 207,471.5C 207.667,470.833 208.333,470.167 209,469.5C 209.739,471.221 210.573,472.887 211.5,474.5C 211.806,470.288 213.306,469.622 216,472.5C 217.067,471.809 218.234,471.309 219.5,471C 218.304,470.346 218.304,469.846 219.5,469.5C 220.354,470.522 221.354,471.355 222.5,472C 222.36,473.264 222.36,474.431 222.5,475.5C 226.837,472.826 230.504,469.493 233.5,465.5C 230.51,472.648 225.177,477.148 217.5,479C 208.992,480.673 201.158,479.173 194,474.5C 173.182,491.122 159.682,512.455 153.5,538.5C 151.709,545.245 150.709,552.245 150.5,559.5C 151.201,565.165 151.367,570.831 151,576.5C 149.982,568.197 149.315,559.864 149,551.5C 148,549.833 147,548.167 146,546.5C 145.472,542.057 144.472,537.723 143,533.5C 141.89,531.963 140.39,531.297 138.5,531.5C 139.416,523.418 141.749,515.751 145.5,508.5C 145.376,507.893 145.043,507.56 144.5,507.5C 153.345,487.155 166.511,470.155 184,456.5C 184.08,446.843 187.58,438.676 194.5,432C 195.745,431.209 197.078,430.709 198.5,430.5 Z"/></g>
<g><path style="opacity:1" fill="#0a1319" d="M 822.5,487.5 C 815.532,486.169 808.198,485.503 800.5,485.5C 793.167,485.667 785.833,485.833 778.5,486C 778,486.5 777.5,487 777,487.5C 776.5,500.829 776.333,514.163 776.5,527.5C 770.5,527.5 764.5,527.5 758.5,527.5C 758.5,494.5 758.5,461.5 758.5,428.5C 764.5,428.5 770.5,428.5 776.5,428.5C 776.177,442.079 776.51,455.579 777.5,469C 792.83,469.5 808.163,469.667 823.5,469.5C 823.5,455.833 823.5,442.167 823.5,428.5C 829.5,428.5 835.5,428.5 841.5,428.5C 841.5,461.5 841.5,494.5 841.5,527.5C 835.5,527.5 829.5,527.5 823.5,527.5C 823.829,513.99 823.496,500.656 822.5,487.5 Z"/></g>
<g><path style="opacity:1" fill="#0384c8" d="M 233.5,465.5 C 230.504,469.493 226.837,472.826 222.5,475.5C 222.36,474.431 222.36,473.264 222.5,472C 221.354,471.355 220.354,470.522 219.5,469.5C 218.304,469.846 218.304,470.346 219.5,471C 218.234,471.309 217.067,471.809 216,472.5C 213.306,469.622 211.806,470.288 211.5,474.5C 210.573,472.887 209.739,471.221 209,469.5C 208.333,470.167 207.667,470.833 207,471.5C 206.641,468.456 205.974,468.122 205,470.5C 204.259,469.359 203.425,469.359 202.5,470.5C 201.614,469.675 201.281,468.675 201.5,467.5C 198.068,467.59 194.568,467.924 191,468.5C 190,467.167 189,465.833 188,464.5C 187.311,465.357 186.478,466.023 185.5,466.5C 184.304,466.154 184.304,465.654 185.5,465C 184.552,464.517 183.552,464.351 182.5,464.5C 182.231,462.571 182.731,460.905 184,459.5C 184.308,460.308 184.808,460.975 185.5,461.5C 188.044,460.265 188.044,459.099 185.5,458C 186.3,453.92 186.8,449.753 187,445.5C 187.333,444.833 187.667,444.167 188,443.5C 190.563,446.317 192.396,445.817 193.5,442C 191.968,441.3 190.968,440.134 190.5,438.5C 192.882,435.452 195.548,432.785 198.5,430.5C 199.347,429.034 200.68,428.2 202.5,428C 226.236,425.942 237.402,436.775 236,460.5C 235.626,462.491 234.793,464.158 233.5,465.5 Z"/></g>
<g><path style="opacity:1" fill="#eff1f2" d="M 206.5,444.5 C 216.536,443.256 220.703,447.589 219,457.5C 216.459,462.069 212.625,463.569 207.5,462C 199.908,456.703 199.575,450.87 206.5,444.5 Z"/></g>
<g><path style="opacity:1" fill="#0d0e0f" d="M 568.5,427.5 C 590.833,427.5 613.167,427.5 635.5,427.5C 635.5,433.5 635.5,439.5 635.5,445.5C 620.167,445.5 604.833,445.5 589.5,445.5C 589.5,453.167 589.5,460.833 589.5,468.5C 603.5,468.5 617.5,468.5 631.5,468.5C 631.5,474.5 631.5,480.5 631.5,486.5C 617.5,486.5 603.5,486.5 589.5,486.5C 589.5,494.167 589.5,501.833 589.5,509.5C 605.167,509.5 620.833,509.5 636.5,509.5C 636.5,515.833 636.5,522.167 636.5,528.5C 613.833,528.5 591.167,528.5 568.5,528.5C 568.5,494.833 568.5,461.167 568.5,427.5 Z"/></g>
<g><path style="opacity:1" fill="#0b141a" d="M 569.5,428.5 C 590.833,428.5 612.167,428.5 633.5,428.5C 633.5,433.833 633.5,439.167 633.5,444.5C 618.255,444.176 603.089,444.509 588,445.5C 587.186,453.413 587.353,461.246 588.5,469C 602.163,469.5 615.829,469.667 629.5,469.5C 629.5,474.5 629.5,479.5 629.5,484.5C 615.817,484.167 602.15,484.501 588.5,485.5C 587.364,493.785 587.197,502.118 588,510.5C 603.422,511.491 618.922,511.824 634.5,511.5C 634.5,516.833 634.5,522.167 634.5,527.5C 612.833,527.5 591.167,527.5 569.5,527.5C 569.5,494.5 569.5,461.5 569.5,428.5 Z"/></g>
<g><path style="opacity:1" fill="#efeff0" d="M 412.5,452.5 C 418.218,464.307 423.218,476.64 427.5,489.5C 418.525,490.498 409.525,490.832 400.5,490.5C 404.708,477.878 408.708,465.211 412.5,452.5 Z"/></g>
<g><path style="opacity:1" fill="#020303" d="M 884.5,445.5 C 898.421,444.501 913.088,444.168 928.5,444.5C 928.5,439.167 928.5,433.833 928.5,428.5C 907.167,428.5 885.833,428.5 864.5,428.5C 864.5,461.5 864.5,494.5 864.5,527.5C 885.833,527.5 907.167,527.5 928.5,527.5C 928.195,522.238 928.529,517.072 929.5,512C 914.167,511.667 898.833,511.333 883.5,511C 899.163,510.5 914.83,510.333 930.5,510.5C 930.5,516.5 930.5,522.5 930.5,528.5C 907.833,528.5 885.167,528.5 862.5,528.5C 862.5,494.833 862.5,461.167 862.5,427.5C 885.167,427.5 907.833,427.5 930.5,427.5C 930.5,433.5 930.5,439.5 930.5,445.5C 915.167,445.5 899.833,445.5 884.5,445.5 Z"/></g>
<g><path style="opacity:1" fill="#ececec" d="M 496.5,484.5 C 505.994,483.895 515.328,484.729 524.5,487C 532.392,491.344 534.225,497.511 530,505.5C 528.269,507.617 526.102,509.117 523.5,510C 514.552,511.307 505.552,511.807 496.5,511.5C 496.5,502.5 496.5,493.5 496.5,484.5 Z"/></g>
<g><path style="opacity:1" fill="#0f5698" d="M 322.5,503.5 C 313.337,498.152 303.671,497.152 293.5,500.5C 294.6,499.442 295.934,498.608 297.5,498C 305.498,496.709 313.164,497.709 320.5,501C 321.381,501.708 322.047,502.542 322.5,503.5 Z"/></g>
<g><path style="opacity:1" fill="#0381c6" d="M 112.5,452.5 C 107.49,462.356 103.157,472.522 99.5,483C 99.6667,483.5 99.8333,484 100,484.5C 101.333,483.833 102.667,483.167 104,482.5C 104.333,483.167 104.667,483.833 105,484.5C 106.303,483.888 107.47,483.554 108.5,483.5C 107.975,482.808 107.308,482.308 106.5,482C 106.833,481.667 107.167,481.333 107.5,481C 106.234,480.691 105.067,480.191 104,479.5C 103.667,479.833 103.333,480.167 103,480.5C 102.342,478.892 102.842,477.725 104.5,477C 104.167,476.667 103.833,476.333 103.5,476C 105.155,474.556 105.822,472.722 105.5,470.5C 108.223,469.648 110.89,468.481 113.5,467C 112.5,466.667 111.5,466.333 110.5,466C 112.724,463.851 114.224,464.351 115,467.5C 116.833,466.333 118.333,464.833 119.5,463C 120.899,462.405 122.232,462.572 123.5,463.5C 124.541,461.009 125.374,461.009 126,463.5C 126.949,461.907 128.115,460.574 129.5,459.5C 120.983,475.06 114.65,491.393 110.5,508.5C 108.466,514.53 107.299,520.863 107,527.5C 106.72,537.51 106.72,547.51 107,557.5C 106,558.833 105,560.167 104,561.5C 103.343,558.315 101.343,556.648 98,556.5C 97.4926,557.996 97.9926,559.163 99.5,560C 98.6721,560.915 97.6721,561.581 96.5,562C 97.7836,563.297 97.6169,564.464 96,565.5C 94.5855,562.998 94.4188,560.332 95.5,557.5C 94.448,557.351 93.448,557.517 92.5,558C 93.807,559.943 93.807,561.777 92.5,563.5C 92.0482,559.837 91.5482,556.17 91,552.5C 90.6926,539.648 90.5259,526.982 90.5,514.5C 93.3695,492.126 100.703,471.459 112.5,452.5 Z"/></g>
<g><path style="opacity:1" fill="#057cc0" d="M 322.5,503.5 C 335.284,514.714 336.784,527.381 327,541.5C 315.549,551.755 303.049,553.088 289.5,545.5C 284.779,548.19 280.112,550.857 275.5,553.5C 271.476,556.208 267.476,556.041 263.5,553C 264.551,551.615 265.884,550.615 267.5,550C 266.354,549.355 265.354,548.522 264.5,547.5C 264.678,548.956 263.844,550.289 262,551.5C 260.256,550.351 260.089,549.017 261.5,547.5C 260.624,546.749 259.624,546.249 258.5,546C 260.041,544.629 261.375,543.129 262.5,541.5C 267.49,536.91 272.99,532.91 279,529.5C 277.786,518.468 281.286,509.301 289.5,502C 290.745,501.209 292.078,500.709 293.5,500.5C 303.671,497.152 313.337,498.152 322.5,503.5 Z"/></g>
<g><path style="opacity:1" fill="#067cc1" d="M 256.5,474.5 C 255.758,476.426 254.758,478.259 253.5,480C 255.113,480.089 256.28,479.255 257,477.5C 257.75,478.126 258.584,478.626 259.5,479C 257.664,480.419 255.664,481.586 253.5,482.5C 253.846,483.696 254.346,483.696 255,482.5C 257.429,483.818 259.596,485.484 261.5,487.5C 261.911,486.738 262.077,485.738 262,484.5C 262.333,484.833 262.667,485.167 263,485.5C 264.019,484.313 265.186,483.313 266.5,482.5C 269.187,484.394 269.187,485.061 266.5,484.5C 265.369,486.074 265.202,487.741 266,489.5C 266.838,488.001 267.671,487.668 268.5,488.5C 264.745,493.76 260.411,498.594 255.5,503C 244.679,511.576 233.679,519.91 222.5,528C 218,532.5 213.5,537 209,541.5C 205.809,546.564 202.642,551.564 199.5,556.5C 197.908,557.602 197.075,556.935 197,554.5C 195.901,557.044 194.735,557.044 193.5,554.5C 191.234,553.686 188.9,553.186 186.5,553C 188.221,552.261 189.887,551.427 191.5,550.5C 191.333,550.167 191.167,549.833 191,549.5C 189.266,550.638 187.432,551.138 185.5,551C 186.668,549.594 186.335,548.428 184.5,547.5C 185.788,545.261 186.788,542.928 187.5,540.5C 188.851,536.458 191.185,533.125 194.5,530.5C 199.833,525.833 204.833,520.833 209.5,515.5C 210.625,513.871 211.959,512.371 213.5,511C 229.882,501.157 244.216,488.991 256.5,474.5 Z"/></g>
<g><path style="opacity:1" fill="#0a1318" d="M 688.5,425.5 C 707.666,422.942 723.832,428.609 737,442.5C 740.268,447.036 742.435,452.036 743.5,457.5C 736.811,457.871 730.311,459.204 724,461.5C 713.468,444.211 699.302,440.378 681.5,450C 663.574,468.014 662.908,486.681 679.5,506C 690.4,513.778 701.733,514.445 713.5,508C 718.051,504.95 721.718,501.117 724.5,496.5C 730.886,498.346 737.219,500.346 743.5,502.5C 731.838,523 714.172,532.5 690.5,531C 661.904,525.233 647.237,507.733 646.5,478.5C 647.952,450.731 661.952,433.064 688.5,425.5 Z"/></g>
<g><path style="opacity:1" fill="#efeff0" d="M 301.5,514.5 C 311.491,513.325 315.991,517.659 315,527.5C 312.367,532.732 308.201,534.565 302.5,533C 293.505,527.207 293.172,521.04 301.5,514.5 Z"/></g>
<g><path style="opacity:1" fill="#0c151b" d="M 884.5,445.5 C 884.5,453.167 884.5,460.833 884.5,468.5C 898.167,468.5 911.833,468.5 925.5,468.5C 925.5,474.5 925.5,480.5 925.5,486.5C 911.5,486.5 897.5,486.5 883.5,486.5C 883.5,494.167 883.5,501.833 883.5,509.5C 899.342,509.17 915.009,509.504 930.5,510.5C 914.83,510.333 899.163,510.5 883.5,511C 898.833,511.333 914.167,511.667 929.5,512C 928.529,517.072 928.195,522.238 928.5,527.5C 907.167,527.5 885.833,527.5 864.5,527.5C 864.5,494.5 864.5,461.5 864.5,428.5C 885.833,428.5 907.167,428.5 928.5,428.5C 928.5,433.833 928.5,439.167 928.5,444.5C 913.088,444.168 898.421,444.501 884.5,445.5 Z"/></g>
<g><path style="opacity:1" fill="#0b559c" d="M 209.5,515.5 C 204.833,520.833 199.833,525.833 194.5,530.5C 198.5,524.5 203.5,519.5 209.5,515.5 Z"/></g>
<g><path style="opacity:1" fill="#0b5496" d="M 90.5,514.5 C 90.5259,526.982 90.6926,539.648 91,552.5C 91.5482,556.17 92.0482,559.837 92.5,563.5C 92.6716,564.492 92.3382,565.158 91.5,565.5C 89.3343,548.535 89.001,531.535 90.5,514.5 Z"/></g>
<g><path style="opacity:1" fill="#020405" d="M 777.5,625.5 C 776.957,625.44 776.624,625.107 776.5,624.5C 777.609,622.615 778.443,620.615 779,618.5C 779.5,602.837 779.667,587.17 779.5,571.5C 776.833,571.5 774.167,571.5 771.5,571.5C 771.667,584.837 771.5,598.171 771,611.5C 770.96,614.555 770.127,616.555 768.5,617.5C 769.454,601.869 769.787,586.202 769.5,570.5C 773.5,570.5 777.5,570.5 781.5,570.5C 781.667,585.504 781.5,600.504 781,615.5C 780.669,619.155 779.502,622.488 777.5,625.5 Z"/></g>
<g><path style="opacity:1" fill="#131415" d="M 616.5,570.5 C 616.5,591.833 616.5,613.167 616.5,634.5C 612.5,634.5 608.5,634.5 604.5,634.5C 604.5,625.833 604.5,617.167 604.5,608.5C 594.833,608.5 585.167,608.5 575.5,608.5C 575.5,617.5 575.5,626.5 575.5,635.5C 571.5,635.5 567.5,635.5 563.5,635.5C 563.5,613.833 563.5,592.167 563.5,570.5C 567.5,570.5 571.5,570.5 575.5,570.5C 575.5,579.167 575.5,587.833 575.5,596.5C 585.167,596.5 594.833,596.5 604.5,596.5C 604.5,587.833 604.5,579.167 604.5,570.5C 608.5,570.5 612.5,570.5 616.5,570.5 Z"/></g>
<g><path style="opacity:1" fill="#0472b7" d="M 110.5,508.5 C 106.616,533.899 108.282,558.899 115.5,583.5C 116.138,585.46 116.138,587.293 115.5,589C 114.056,589.781 112.723,589.614 111.5,588.5C 110.919,586.276 109.586,585.443 107.5,586C 108.337,587.011 108.67,588.178 108.5,589.5C 106.876,589.64 105.71,588.973 105,587.5C 103.829,588.893 102.329,589.727 100.5,590C 102.844,590.837 104.844,592.171 106.5,594C 106.167,594.333 105.833,594.667 105.5,595C 107.211,596.133 107.711,597.633 107,599.5C 106.667,598.833 106.333,598.167 106,597.5C 104.817,598.731 103.651,598.731 102.5,597.5C 100.139,591.401 97.8056,585.401 95.5,579.5C 93.593,575.099 92.2597,570.433 91.5,565.5C 92.3382,565.158 92.6716,564.492 92.5,563.5C 93.807,561.777 93.807,559.943 92.5,558C 93.448,557.517 94.448,557.351 95.5,557.5C 94.4188,560.332 94.5855,562.998 96,565.5C 97.6169,564.464 97.7836,563.297 96.5,562C 97.6721,561.581 98.6721,560.915 99.5,560C 97.9926,559.163 97.4926,557.996 98,556.5C 101.343,556.648 103.343,558.315 104,561.5C 105,560.167 106,558.833 107,557.5C 106.72,547.51 106.72,537.51 107,527.5C 107.299,520.863 108.466,514.53 110.5,508.5 Z"/></g>
<g><path style="opacity:1" fill="#040506" d="M 767.5,619.5 C 767.938,619.435 768.272,619.601 768.5,620C 760.146,628.441 751.646,628.608 743,620.5C 741.725,618.283 740.725,615.949 740,613.5C 739.5,599.504 739.333,585.504 739.5,571.5C 736.5,571.5 733.5,571.5 730.5,571.5C 730.333,585.837 730.5,600.171 731,614.5C 734.507,629.518 744.007,636.018 759.5,634C 763.393,633.535 767.06,632.369 770.5,630.5C 771.107,630.624 771.44,630.957 771.5,631.5C 760.451,636.951 749.451,636.784 738.5,631C 733.964,627.138 731.131,622.305 730,616.5C 729.5,601.17 729.333,585.837 729.5,570.5C 733.5,570.5 737.5,570.5 741.5,570.5C 741.333,585.504 741.5,600.504 742,615.5C 745.848,624.062 752.348,626.895 761.5,624C 763.66,622.668 765.66,621.168 767.5,619.5 Z"/></g>
<g><path style="opacity:1" fill="#030405" d="M 367.5,570.5 C 384.833,570.5 402.167,570.5 419.5,570.5C 419.5,574.167 419.5,577.833 419.5,581.5C 412.833,581.5 406.167,581.5 399.5,581.5C 399.5,599.5 399.5,617.5 399.5,635.5C 395.5,635.5 391.5,635.5 387.5,635.5C 387.5,617.5 387.5,599.5 387.5,581.5C 380.833,581.5 374.167,581.5 367.5,581.5C 367.5,577.833 367.5,574.167 367.5,570.5 Z"/></g>
<g><path style="opacity:1" fill="#064b8e" d="M 133.5,551.5 C 134.284,561.35 135.117,571.35 136,581.5C 136.869,586.508 137.536,586.175 138,580.5C 139.523,583.491 140.023,586.491 139.5,589.5C 138.749,588.624 138.249,587.624 138,586.5C 138.162,590.501 138.662,594.501 139.5,598.5C 134.155,583.405 132.155,567.739 133.5,551.5 Z"/></g>
<g><path style="opacity:1" fill="#0d1519" d="M 659.5,570.5 C 663.5,570.5 667.5,570.5 671.5,570.5C 671.5,579.167 671.5,587.833 671.5,596.5C 681.167,596.5 690.833,596.5 700.5,596.5C 700.5,587.833 700.5,579.167 700.5,570.5C 704.5,570.5 708.5,570.5 712.5,570.5C 712.5,591.833 712.5,613.167 712.5,634.5C 708.5,634.5 704.5,634.5 700.5,634.5C 700.5,625.833 700.5,617.167 700.5,608.5C 690.833,608.5 681.167,608.5 671.5,608.5C 671.5,617.167 671.5,625.833 671.5,634.5C 667.5,634.5 663.5,634.5 659.5,634.5C 659.5,613.167 659.5,591.833 659.5,570.5 Z"/></g>
<g><path style="opacity:1" fill="#0a141a" d="M 369.5,571.5 C 385.5,571.5 401.5,571.5 417.5,571.5C 417.5,574.167 417.5,576.833 417.5,579.5C 411.242,579.19 405.076,579.524 399,580.5C 398.5,598.497 398.333,616.497 398.5,634.5C 395.167,634.5 391.833,634.5 388.5,634.5C 388.667,616.497 388.5,598.497 388,580.5C 381.924,579.524 375.758,579.19 369.5,579.5C 369.5,576.833 369.5,574.167 369.5,571.5 Z"/></g>
<g><path style="opacity:1" fill="#07080a" d="M 444.5,596.5 C 444.5,596.833 444.5,597.167 444.5,597.5C 443.175,591.766 443.175,585.932 444.5,580C 454.078,579.182 463.578,579.349 473,580.5C 473.498,577.518 473.665,574.518 473.5,571.5C 460.5,571.5 447.5,571.5 434.5,571.5C 434.5,592.5 434.5,613.5 434.5,634.5C 447.833,634.5 461.167,634.5 474.5,634.5C 474.5,631.5 474.5,628.5 474.5,625.5C 464.319,625.827 454.319,625.494 444.5,624.5C 455.167,624.5 465.833,624.5 476.5,624.5C 476.5,628.167 476.5,631.833 476.5,635.5C 461.833,635.5 447.167,635.5 432.5,635.5C 432.5,613.833 432.5,592.167 432.5,570.5C 446.833,570.5 461.167,570.5 475.5,570.5C 475.5,574.167 475.5,577.833 475.5,581.5C 465.167,581.5 454.833,581.5 444.5,581.5C 444.5,586.5 444.5,591.5 444.5,596.5 Z"/></g>
<g><path style="opacity:1" fill="#0369ad" d="M 187.5,540.5 C 186.788,542.928 185.788,545.261 184.5,547.5C 186.335,548.428 186.668,549.594 185.5,551C 187.432,551.138 189.266,550.638 191,549.5C 191.167,549.833 191.333,550.167 191.5,550.5C 189.887,551.427 188.221,552.261 186.5,553C 188.9,553.186 191.234,553.686 193.5,554.5C 194.735,557.044 195.901,557.044 197,554.5C 197.075,556.935 197.908,557.602 199.5,556.5C 195.729,568.098 195.562,579.764 199,591.5C 201.235,598.297 203.735,604.964 206.5,611.5C 208.326,614.677 207.66,617.177 204.5,619C 204.833,619.333 205.167,619.667 205.5,620C 203.422,623.266 200.756,626.099 197.5,628.5C 195.884,624.929 193.55,621.929 190.5,619.5C 189.662,619.158 189.328,618.492 189.5,617.5C 188.377,615.482 188.377,613.482 189.5,611.5C 188.965,609.729 188.131,609.396 187,610.5C 185.342,607.691 184.175,604.691 183.5,601.5C 183.848,599.303 184.848,597.47 186.5,596C 185.245,593.54 183.245,592.373 180.5,592.5C 180.022,589.722 181.022,587.722 183.5,586.5C 181.993,585.261 180.826,585.595 180,587.5C 177.429,575.724 178.263,564.224 182.5,553C 182.43,552.235 182.097,551.735 181.5,551.5C 182.742,547.345 184.742,543.678 187.5,540.5 Z"/></g>
<g><path style="opacity:1" fill="#75787a" d="M 444.5,597.5 C 444.5,597.167 444.5,596.833 444.5,596.5C 453.833,596.5 463.167,596.5 472.5,596.5C 472.815,600.371 472.482,604.038 471.5,607.5C 471.5,604.167 471.5,600.833 471.5,597.5C 462.5,597.5 453.5,597.5 444.5,597.5 Z"/></g>
<g><path style="opacity:1" fill="#0c1318" d="M 797.5,571.5 C 807.992,570.341 818.659,570.175 829.5,571C 843.374,575.612 846.874,584.445 840,597.5C 837.833,599 835.667,600.5 833.5,602C 845.917,607.33 848.751,615.83 842,627.5C 838.919,630.293 835.419,632.46 831.5,634C 820.505,634.5 809.505,634.667 798.5,634.5C 798.831,613.327 798.497,592.327 797.5,571.5 Z"/></g>
<g><path style="opacity:1" fill="#eaeaea" d="M 810.5,580.5 C 816.262,580.149 821.928,580.649 827.5,582C 833.092,587.167 832.759,591.833 826.5,596C 821.264,597.339 815.93,597.839 810.5,597.5C 810.5,591.833 810.5,586.167 810.5,580.5 Z"/></g>
<g><path style="opacity:1" fill="#0c151a" d="M 444.5,597.5 C 453.5,597.5 462.5,597.5 471.5,597.5C 471.5,600.833 471.5,604.167 471.5,607.5C 462.5,607.5 453.5,607.5 444.5,607.5C 444.5,613.167 444.5,618.833 444.5,624.5C 454.319,625.494 464.319,625.827 474.5,625.5C 474.5,628.5 474.5,631.5 474.5,634.5C 461.167,634.5 447.833,634.5 434.5,634.5C 434.5,613.5 434.5,592.5 434.5,571.5C 447.5,571.5 460.5,571.5 473.5,571.5C 473.665,574.518 473.498,577.518 473,580.5C 463.578,579.349 454.078,579.182 444.5,580C 443.175,585.932 443.175,591.766 444.5,597.5 Z"/></g>
<g><path style="opacity:1" fill="#0d161b" d="M 606.5,571.5 C 609.5,571.5 612.5,571.5 615.5,571.5C 615.5,592.167 615.5,612.833 615.5,633.5C 612.5,633.5 609.5,633.5 606.5,633.5C 606.666,624.827 606.5,616.16 606,607.5C 595.667,606.167 585.333,606.167 575,607.5C 574.5,616.16 574.334,624.827 574.5,633.5C 571.5,633.5 568.5,633.5 565.5,633.5C 565.5,613.167 565.5,592.833 565.5,572.5C 568.5,572.5 571.5,572.5 574.5,572.5C 574.334,580.84 574.5,589.173 575,597.5C 585.333,598.833 595.667,598.833 606,597.5C 606.5,588.84 606.666,580.173 606.5,571.5 Z"/></g>
<g><path style="opacity:1" fill="#0c151a" d="M 767.5,619.5 C 767.328,618.508 767.662,617.842 768.5,617.5C 770.127,616.555 770.96,614.555 771,611.5C 771.5,598.171 771.667,584.837 771.5,571.5C 774.167,571.5 776.833,571.5 779.5,571.5C 779.667,587.17 779.5,602.837 779,618.5C 778.443,620.615 777.609,622.615 776.5,624.5C 776.624,625.107 776.957,625.44 777.5,625.5C 775.833,627.833 773.833,629.833 771.5,631.5C 771.44,630.957 771.107,630.624 770.5,630.5C 767.06,632.369 763.393,633.535 759.5,634C 744.007,636.018 734.507,629.518 731,614.5C 730.5,600.171 730.333,585.837 730.5,571.5C 733.5,571.5 736.5,571.5 739.5,571.5C 739.333,585.504 739.5,599.504 740,613.5C 740.725,615.949 741.725,618.283 743,620.5C 751.646,628.608 760.146,628.441 768.5,620C 768.272,619.601 767.938,619.435 767.5,619.5 Z"/></g>
<g><path style="opacity:1" fill="#0d1318" d="M 512.5,569.5 C 529.235,567.201 541.569,573.367 549.5,588C 545.593,589.27 541.593,590.436 537.5,591.5C 530.654,580.719 521.321,577.886 509.5,583C 497.975,591.672 495.475,602.505 502,615.5C 509.519,625.337 519.019,627.837 530.5,623C 533.4,620.1 536.233,617.267 539,614.5C 542.528,615.424 546.028,616.424 549.5,617.5C 538.16,636.088 522.493,640.922 502.5,632C 489.201,623.474 484.035,611.307 487,595.5C 491.026,582.309 499.526,573.642 512.5,569.5 Z"/></g>
<g><path style="opacity:1" fill="#efefef" d="M 810.5,606.5 C 816.262,606.149 821.928,606.649 827.5,608C 833.45,610.477 834.95,614.643 832,620.5C 831.097,621.701 829.931,622.535 828.5,623C 822.593,624.361 816.593,624.861 810.5,624.5C 810.5,618.5 810.5,612.5 810.5,606.5 Z"/></g>
<g><path style="opacity:1" fill="#626567" d="M 616.5,570.5 C 617.497,591.994 617.831,613.66 617.5,635.5C 612.968,635.818 608.634,635.485 604.5,634.5C 608.5,634.5 612.5,634.5 616.5,634.5C 616.5,613.167 616.5,591.833 616.5,570.5 Z"/></g>
<g><path style="opacity:1" fill="#0465a9" d="M 144.5,507.5 C 145.043,507.56 145.376,507.893 145.5,508.5C 141.749,515.751 139.416,523.418 138.5,531.5C 140.39,531.297 141.89,531.963 143,533.5C 144.472,537.723 145.472,542.057 146,546.5C 147,548.167 148,549.833 149,551.5C 149.315,559.864 149.982,568.197 151,576.5C 151.367,570.831 151.201,565.165 150.5,559.5C 150.709,552.245 151.709,545.245 153.5,538.5C 150.665,559.674 152.665,580.341 159.5,600.5C 162.709,610.593 167.709,619.593 174.5,627.5C 189.81,648.134 209.81,662.134 234.5,669.5C 235.696,669.154 235.696,668.654 234.5,668C 215.397,655.737 200.731,639.57 190.5,619.5C 193.55,621.929 195.884,624.929 197.5,628.5C 200.756,626.099 203.422,623.266 205.5,620C 205.167,619.667 204.833,619.333 204.5,619C 207.66,617.177 208.326,614.677 206.5,611.5C 221.146,635.005 241.479,651.671 267.5,661.5C 268.696,661.154 268.696,660.654 267.5,660C 251.298,649.644 239.298,635.81 231.5,618.5C 227.147,606.979 226.647,595.312 230,583.5C 230.5,582.333 231.333,581.5 232.5,581C 231.862,579.293 231.862,577.46 232.5,575.5C 239.297,561.368 249.297,550.035 262.5,541.5C 261.375,543.129 260.041,544.629 258.5,546C 259.624,546.249 260.624,546.749 261.5,547.5C 260.089,549.017 260.256,550.351 262,551.5C 263.844,550.289 264.678,548.956 264.5,547.5C 265.354,548.522 266.354,549.355 267.5,550C 265.884,550.615 264.551,551.615 263.5,553C 267.476,556.041 271.476,556.208 275.5,553.5C 266.799,561.2 258.799,569.533 251.5,578.5C 243.529,588.619 242.362,599.619 248,611.5C 249.026,614.239 250.526,616.572 252.5,618.5C 254.807,623.985 258.14,628.818 262.5,633C 266.244,633.764 268.577,632.264 269.5,628.5C 275.425,620.063 281.591,611.729 288,603.5C 292.877,596.249 297.377,588.749 301.5,581C 307.747,577.05 312.913,578.217 317,584.5C 317.667,586.833 317.667,589.167 317,591.5C 315.194,596.446 312.861,601.112 310,605.5C 300.922,619.242 291.089,632.409 280.5,645C 280.645,645.772 280.978,646.439 281.5,647C 290.593,651.88 299.927,656.214 309.5,660C 313.646,664.625 313.313,668.959 308.5,673C 299.296,678.121 289.629,681.954 279.5,684.5C 269.406,686.652 259.406,688.652 249.5,690.5C 193.543,693.228 149.043,671.895 116,626.5C 106.424,612.015 99.5902,596.349 95.5,579.5C 97.8056,585.401 100.139,591.401 102.5,597.5C 103.651,598.731 104.817,598.731 106,597.5C 106.333,598.167 106.667,598.833 107,599.5C 107.711,597.633 107.211,596.133 105.5,595C 105.833,594.667 106.167,594.333 106.5,594C 104.844,592.171 102.844,590.837 100.5,590C 102.329,589.727 103.829,588.893 105,587.5C 105.71,588.973 106.876,589.64 108.5,589.5C 108.67,588.178 108.337,587.011 107.5,586C 109.586,585.443 110.919,586.276 111.5,588.5C 112.723,589.614 114.056,589.781 115.5,589C 116.138,587.293 116.138,585.46 115.5,583.5C 122.16,599.149 130.493,613.816 140.5,627.5C 145.5,634.5 151.5,640.5 158.5,645.5C 162.784,648.328 167.117,650.828 171.5,653C 165.88,646.258 160.38,639.425 155,632.5C 152.962,629.757 151.462,626.757 150.5,623.5C 147.01,615.007 143.343,606.673 139.5,598.5C 138.662,594.501 138.162,590.501 138,586.5C 138.249,587.624 138.749,588.624 139.5,589.5C 140.023,586.491 139.523,583.491 138,580.5C 137.536,586.175 136.869,586.508 136,581.5C 135.117,571.35 134.284,561.35 133.5,551.5C 134.631,536.171 138.298,521.505 144.5,507.5 Z"/></g>
<g><path style="opacity:1" fill="#153a78" d="M 140.5,627.5 C 146.833,633.167 152.833,639.167 158.5,645.5C 151.5,640.5 145.5,634.5 140.5,627.5 Z"/></g>
<g><path style="opacity:1" fill="#153c79" d="M 252.5,618.5 C 255.924,623.101 259.591,627.601 263.5,632C 264.167,632.667 264.833,632.667 265.5,632C 266.705,630.624 268.038,629.458 269.5,628.5C 268.577,632.264 266.244,633.764 262.5,633C 258.14,628.818 254.807,623.985 252.5,618.5 Z"/></g>
<g><path style="opacity:1" fill="#153a78" d="M 139.5,598.5 C 143.343,606.673 147.01,615.007 150.5,623.5C 148.19,620.898 146.357,617.898 145,614.5C 142.464,609.393 140.631,604.06 139.5,598.5 Z"/></g>
<g><path style="opacity:1" fill="#183b77" d="M 159.5,600.5 C 164.243,609.653 169.243,618.653 174.5,627.5C 167.709,619.593 162.709,610.593 159.5,600.5 Z"/></g>
<g><path style="opacity:1" fill="#15407e" d="M 251.5,578.5 C 245.854,588.732 245.021,599.399 249,610.5C 250.454,613.071 251.62,615.738 252.5,618.5C 250.526,616.572 249.026,614.239 248,611.5C 242.362,599.619 243.529,588.619 251.5,578.5 Z"/></g>
<g><path style="opacity:1" fill="#0e3978" d="M 232.5,575.5 C 231.862,577.46 231.862,579.293 232.5,581C 231.333,581.5 230.5,582.333 230,583.5C 226.647,595.312 227.147,606.979 231.5,618.5C 226.404,608.047 225.237,597.047 228,585.5C 228.844,581.771 230.344,578.437 232.5,575.5 Z"/></g>
<g><path style="opacity:1" fill="#0b5293" d="M 181.5,551.5 C 182.097,551.735 182.43,552.235 182.5,553C 178.263,564.224 177.429,575.724 180,587.5C 180.826,585.595 181.993,585.261 183.5,586.5C 181.022,587.722 180.022,589.722 180.5,592.5C 183.245,592.373 185.245,593.54 186.5,596C 184.848,597.47 183.848,599.303 183.5,601.5C 184.175,604.691 185.342,607.691 187,610.5C 188.131,609.396 188.965,609.729 189.5,611.5C 188.377,613.482 188.377,615.482 189.5,617.5C 177.259,596.71 174.593,574.71 181.5,551.5 Z"/></g>
<g><path style="opacity:1" fill="#0a3477" d="M 279.5,684.5 C 270.012,688.245 260.012,690.245 249.5,690.5C 259.406,688.652 269.406,686.652 279.5,684.5 Z"/></g>
</svg>
