<svg version="1.1" id="Layer_1" xmlns="http://www.w3.org/2000/svg" xmlns:xlink="http://www.w3.org/1999/xlink" x="0px" y="0px"
	 width="100%" viewBox="0 0 1024 1024" enable-background="new 0 0 1024 1024" xml:space="preserve">
<path fill="#000000" opacity="1.000000" stroke="none" 
	d="
M202.696625,654.283813 
	C212.006516,660.813538 221.189407,666.802307 233.267456,669.316345 
	C225.928635,662.791077 218.930420,657.370850 212.840790,650.947815 
	C195.991287,633.175903 183.410446,613.086182 179.453613,588.500549 
	C176.139709,567.909790 180.659836,549.151611 193.804306,532.721130 
	C202.738510,521.553406 213.623901,512.577698 225.370544,504.524048 
	C238.209137,495.721771 250.229248,486.048706 258.774048,472.661896 
	C261.353729,468.620453 261.741974,465.441467 259.413147,460.832153 
	C253.789200,449.700897 254.511612,438.412109 262.415588,428.499298 
	C270.049438,418.925354 280.596802,416.542572 292.151550,419.152679 
	C305.946960,422.268921 313.482330,434.337158 312.313721,450.520905 
	C311.443329,462.574432 299.929016,473.309082 286.553772,474.248657 
	C283.170837,474.486359 280.347412,475.052856 278.630951,478.318512 
	C270.675568,493.454132 258.271759,504.489990 245.012726,514.744507 
	C236.324951,521.463623 226.979401,527.347290 219.074463,535.062317 
	C196.140060,557.445862 192.398300,579.792786 207.024139,608.314880 
	C218.189545,630.088684 235.101807,646.116516 256.821838,657.175354 
	C258.244354,657.899658 259.627319,659.075684 261.714233,658.414124 
	C262.052490,656.331604 260.190552,655.824341 259.045105,654.846130 
	C249.088623,646.343140 240.294601,636.888489 234.209091,625.130310 
	C223.016678,603.504639 226.204254,583.314392 240.365219,564.341980 
	C250.180359,551.192017 263.081116,541.449890 276.743286,532.684875 
	C279.403259,530.978394 280.655884,529.317017 280.558929,525.927185 
	C280.092316,509.607513 290.884796,498.320312 307.044678,497.819977 
	C321.212006,497.381378 334.641235,510.214630 335.300842,524.822144 
	C336.197571,544.681152 314.209351,559.045349 296.043304,550.185730 
	C292.027954,548.227478 289.114258,548.344849 285.506927,550.677185 
	C273.492340,558.445374 262.934265,567.667786 254.612289,579.419312 
	C246.382965,591.040039 246.740723,603.006653 252.680191,615.265991 
	C255.376495,620.831238 258.870148,625.919495 263.033386,630.522522 
	C264.799164,632.474731 266.650604,633.779907 268.705750,630.936584 
	C278.061157,617.993286 289.031708,606.211365 296.696991,592.054016 
	C297.806732,590.004395 298.720703,587.844727 299.892426,585.833374 
	C302.954102,580.577881 308.296021,578.447205 312.931396,580.524902 
	C318.601013,583.066223 320.863007,588.517822 318.385193,594.684326 
	C314.248444,604.979614 307.762054,613.900574 301.163422,622.692017 
	C296.065582,629.483887 290.614746,636.010620 285.329742,642.662354 
	C284.317963,643.935730 282.848572,644.951660 282.877411,647.510437 
	C289.148315,651.241516 296.078064,654.374817 302.998535,657.518250 
	C304.814972,658.343262 306.714874,658.982544 308.555756,659.756348 
	C311.841553,661.137573 314.143951,663.248169 314.342163,667.132996 
	C314.536987,670.950195 312.629944,673.512573 309.583435,675.289124 
	C301.201660,680.177063 292.252472,683.783386 283.025055,686.730469 
	C207.366974,710.894104 129.036850,668.510315 101.773949,598.829773 
	C94.160706,579.371277 89.765999,559.260742 89.957420,538.498657 
	C90.311852,500.056549 102.319298,465.316833 125.544167,434.558960 
	C143.046921,411.379211 164.851074,393.479645 191.208588,381.223297 
	C194.670364,379.613556 196.457794,377.691010 196.878799,373.474152 
	C198.307877,359.160431 209.097412,348.648010 222.459198,347.723633 
	C237.057770,346.713684 249.276535,354.237000 252.568466,367.152008 
	C255.583496,378.980682 253.768738,389.683594 243.392075,397.593445 
	C234.262421,404.552673 219.582413,405.631195 209.962051,399.499817 
	C206.534164,397.315063 203.830078,397.303497 200.271118,398.844635 
	C170.151779,411.887512 148.678299,434.305664 131.953476,461.791382 
	C119.741196,481.861176 112.372307,503.764557 110.529984,527.123840 
	C107.793907,561.815613 117.255081,593.326416 137.658539,621.521606 
	C146.724304,634.049438 159.654144,646.357178 170.342407,652.434692 
	C158.677490,639.007751 149.443207,625.133301 143.200699,609.342163 
	C134.885162,588.307068 132.399872,566.704712 135.471329,544.294800 
	C139.675583,513.619873 152.964737,487.656616 175.010361,466.060822 
	C175.842682,465.245483 176.683899,464.422150 177.613388,463.726013 
	C182.341019,460.185669 185.295746,456.318420 186.342239,449.729645 
	C188.937485,433.390015 200.968216,427.148071 213.514069,428.147430 
	C228.674591,429.355011 239.005753,441.433289 238.879486,455.944519 
	C238.759109,469.776611 227.862885,481.063629 213.535217,481.836792 
	C208.510544,482.107941 203.544785,481.093292 199.192337,478.331055 
	C196.539673,476.647614 194.397461,476.800903 192.048721,478.937805 
	C172.140228,497.050781 158.817184,519.031067 155.496628,545.882507 
	C149.930878,590.889587 167.571915,626.328979 202.696625,654.283813 
M275.146149,442.793365 
	C273.751404,448.149200 275.275482,452.516205 279.328552,454.777435 
	C283.192963,456.933380 288.588989,455.883514 291.516205,452.406250 
	C295.138336,448.103516 294.444366,441.533081 290.028320,438.319153 
	C284.872162,434.566620 279.702240,435.913147 275.146149,442.793365 
M215.363907,373.956177 
	C214.790451,378.401306 216.364929,381.966827 220.400803,383.839905 
	C224.191940,385.599396 228.162811,385.411346 231.666473,382.740479 
	C234.831863,380.327484 235.455841,376.940033 234.607452,373.345673 
	C233.546585,368.851044 230.410309,365.846283 225.928253,365.663269 
	C220.910126,365.458313 217.078659,368.066040 215.363907,373.956177 
M301.468994,532.036926 
	C307.064575,535.657593 311.336029,535.351685 314.650177,531.092834 
	C317.635925,527.255981 317.298157,522.287292 313.821533,518.905151 
	C310.232971,515.414062 304.995209,515.322510 301.196167,518.684387 
	C297.392731,522.050293 297.301697,526.562073 301.468994,532.036926 
M206.897995,461.697937 
	C210.791702,464.532410 214.645584,464.649384 218.080185,461.090515 
	C220.859879,458.210175 221.682617,454.779572 219.588898,451.075378 
	C216.911575,446.338715 212.073868,444.948792 207.787292,447.625854 
	C202.873642,450.694458 202.320816,455.875427 206.897995,461.697937 
z"/>
<path fill="#000000" opacity="1.000000" stroke="none" 
	d="
M506.993896,427.758728 
	C516.159851,427.565552 524.756531,427.869720 533.121643,430.579529 
	C542.650452,433.666351 548.652649,439.738403 550.395813,449.838013 
	C552.247620,460.566803 549.230713,469.170685 539.942139,475.263062 
	C539.389832,475.625336 538.886414,476.064911 538.379272,476.491150 
	C538.273010,476.580475 538.250732,476.769806 538.014465,477.325226 
	C540.871948,479.067719 544.163208,480.284790 546.731140,482.648956 
	C561.121521,495.897034 555.988403,519.522034 537.083313,527.117249 
	C530.173706,529.893127 522.945801,530.807312 515.613342,530.906799 
	C504.628357,531.055847 493.637573,530.817932 482.653961,531.012756 
	C478.287903,531.090210 476.531708,529.872131 476.563721,525.096008 
	C476.767853,494.632935 476.747314,464.167450 476.596161,433.703796 
	C476.573822,429.208466 477.842010,427.472687 482.526886,427.665649 
	C490.504089,427.994141 498.504578,427.758209 506.993896,427.758728 
M532.843323,500.337982 
	C532.423401,493.312866 530.398071,490.355164 523.794128,488.382294 
	C516.345581,486.157104 508.642792,487.428680 501.046082,487.358276 
	C498.889282,487.338318 498.360352,488.900482 498.364136,490.773468 
	C498.376526,496.914978 498.408295,503.057068 498.338562,509.197876 
	C498.312256,511.513702 499.305695,512.509460 501.589264,512.544189 
	C508.720428,512.652588 515.907959,513.076660 522.886963,511.387146 
	C528.127747,510.118408 532.508301,507.487305 532.843323,500.337982 
M508.486206,469.609131 
	C512.171509,469.939697 515.769897,469.201538 519.356079,468.586884 
	C524.600037,467.688141 529.239502,462.921570 529.582825,458.346924 
	C529.946289,453.504028 526.238586,449.025970 520.509338,447.378052 
	C514.147400,445.548157 507.646759,446.567596 501.205658,446.491486 
	C498.803955,446.463074 498.354645,448.317657 498.361725,450.335052 
	C498.376831,454.651031 498.653900,458.993164 498.276337,463.276367 
	C497.840942,468.215363 499.935608,469.998291 504.578033,469.588684 
	C505.565826,469.501556 506.568817,469.586182 508.486206,469.609131 
z"/>
<path fill="#000000" opacity="1.000000" stroke="none" 
	d="
M845.316528,526.761536 
	C845.521851,530.202026 843.723145,530.911926 841.234314,530.899536 
	C836.904968,530.878052 832.570984,530.759644 828.247437,530.916809 
	C824.415710,531.056152 822.910889,529.530151 823.002136,525.623352 
	C823.239319,515.471130 823.190918,505.312164 823.252808,495.155884 
	C823.262817,493.516998 823.254272,491.877960 823.254272,490.760529 
	C822.008911,489.103180 820.754211,489.396027 819.636597,489.393677 
	C808.146912,489.369598 796.655640,489.483307 785.168213,489.322510 
	C781.480835,489.270905 780.218750,490.547333 780.275696,494.253448 
	C780.457031,506.053406 780.342834,517.857849 780.342834,530.128723 
	C773.621704,531.309326 767.219849,531.182251 760.805481,530.484253 
	C757.970459,530.175842 758.156799,527.852417 758.140747,525.910278 
	C758.077332,518.251282 757.926880,510.585693 758.156982,502.933014 
	C758.812500,481.127289 758.827454,459.326660 758.157104,437.522858 
	C757.858032,427.794067 757.881836,427.793365 767.768433,427.782990 
	C780.344543,427.769836 780.343811,427.769806 780.340088,440.476929 
	C780.337769,448.303345 780.463501,456.132660 780.281250,463.954834 
	C780.197998,467.528778 781.289856,469.070312 785.091675,469.012756 
	C795.912781,468.848846 806.740479,468.847046 817.560791,469.044250 
	C821.682861,469.119385 823.156189,467.570435 823.139221,463.500305 
	C823.093323,452.515564 823.332825,441.529572 823.479065,430.544312 
	C823.487732,429.895294 823.673157,429.248627 823.887756,427.901489 
	C830.119995,427.901489 836.373779,427.861481 842.626587,427.923218 
	C844.816040,427.944794 845.304199,429.528809 845.311829,431.373840 
	C845.322815,434.037964 845.347900,436.702118 845.347351,439.366241 
	C845.341797,468.340790 845.332397,497.315308 845.316528,526.761536 
z"/>
<path fill="#000000" opacity="1.000000" stroke="none" 
	d="
M614.000000,510.752808 
	C620.996460,510.753937 627.494995,510.852386 633.988525,510.715576 
	C637.209351,510.647766 638.509766,511.898285 638.357910,515.121643 
	C638.193420,518.611877 638.088257,522.136719 638.389648,525.608948 
	C638.768677,529.976807 636.671387,531.038147 632.796387,530.969543 
	C624.636963,530.825012 616.472839,530.949707 608.310669,530.950806 
	C596.983582,530.952271 585.655396,530.847473 574.330078,530.986450 
	C570.281555,531.036072 568.819397,529.558960 568.839783,525.423767 
	C568.989990,494.941223 569.027771,464.457367 568.892395,433.974854 
	C568.871521,429.279297 570.237793,427.603516 575.127258,427.669800 
	C593.946960,427.925049 612.772644,427.870361 631.594482,427.720245 
	C635.794556,427.686768 637.844238,428.818573 637.404114,433.365173 
	C637.100586,436.500763 637.149170,439.704651 637.393982,442.850525 
	C637.702820,446.819000 635.983521,448.151337 632.179443,448.104950 
	C620.520691,447.962860 608.855591,448.188477 597.201294,447.914276 
	C592.600708,447.805969 590.817261,449.318817 591.302246,453.939758 
	C591.802795,458.708710 589.357849,464.833832 592.243408,467.967102 
	C595.182922,471.158844 601.358032,468.805420 606.104858,468.948486 
	C613.594116,469.174164 621.096252,469.102570 628.590149,468.980957 
	C631.952881,468.926331 633.237000,470.153168 633.360107,473.632721 
	C633.880737,488.349945 633.977539,488.347321 619.282776,488.349945 
	C611.620300,488.351318 603.955261,488.463867 596.296387,488.298462 
	C592.687012,488.220581 591.108093,489.448944 591.302429,493.207825 
	C591.525818,497.527252 591.520142,501.875519 591.301636,506.195465 
	C591.121460,509.757690 592.631775,510.881042 596.010254,510.786072 
	C601.835876,510.622314 607.669678,510.748505 614.000000,510.752808 
z"/>
<path fill="#000000" opacity="1.000000" stroke="none" 
	d="
M887.720093,448.458435 
	C884.968994,455.113647 887.043396,461.734406 886.130798,468.362488 
	C889.504211,469.575409 892.509033,468.888885 895.427063,468.926422 
	C904.419373,469.041962 913.415344,469.084839 922.406738,468.947754 
	C925.960083,468.893616 927.667908,469.997375 927.392822,473.806305 
	C927.153442,477.120117 927.178650,480.474670 927.383179,483.792969 
	C927.599731,487.307709 926.126892,488.442993 922.715210,488.396942 
	C912.391113,488.257477 902.063721,488.337982 891.737732,488.381348 
	C889.942444,488.388885 888.068604,487.993744 886.185791,489.107269 
	C884.794800,495.225464 886.198059,501.559387 885.529968,507.815491 
	C885.177979,511.111542 887.993408,510.751007 890.117798,510.755035 
	C902.275940,510.778107 914.439148,510.965942 926.589661,510.661835 
	C931.316956,510.543549 932.730713,512.236572 932.413025,516.693237 
	C932.106873,520.987976 932.346802,525.321594 932.346802,530.516174 
	C909.498718,531.195923 886.990356,531.014526 864.907959,530.678162 
	C863.185852,528.464722 863.681213,526.562988 863.679138,524.793762 
	C863.643860,494.648193 863.646423,464.502625 863.655945,434.357056 
	C863.658020,427.811859 863.685303,427.783722 870.368164,427.779266 
	C888.688599,427.767090 907.009094,427.769348 925.329529,427.790314 
	C932.333740,427.798340 932.335815,427.828552 932.339661,435.023712 
	C932.341003,437.521973 932.101074,440.045074 932.371399,442.513062 
	C932.869629,447.061798 930.757935,448.190704 926.570618,448.148834 
	C913.753540,448.020660 900.933289,448.210022 887.720093,448.458435 
z"/>
<path fill="#000000" opacity="1.000000" stroke="none" 
	d="
M445.685730,476.481506 
	C452.549133,494.375183 459.247009,511.919495 466.210815,530.160400 
	C458.309845,531.408325 450.962097,531.279846 443.612579,530.381104 
	C442.123566,530.199036 441.813293,528.576599 441.348846,527.329041 
	C439.723267,522.962341 437.969360,518.638550 436.502045,514.219543 
	C435.519928,511.261658 433.841217,510.010742 430.650391,510.053589 
	C420.322113,510.192291 409.989899,510.172943 399.661133,510.050781 
	C396.710693,510.015869 395.050323,511.021973 394.173706,513.909241 
	C392.821350,518.363220 391.145874,522.718628 389.633057,527.124634 
	C389.088135,528.711670 388.682953,530.667480 386.695282,530.742737 
	C379.932068,530.998718 373.137848,531.583984 365.945160,530.282593 
	C367.320618,523.207886 370.345154,517.107910 372.688690,510.808746 
	C382.318420,484.924957 392.154968,459.117859 401.722504,433.211334 
	C403.210693,429.181610 405.199371,427.269226 409.673065,427.675079 
	C413.969910,428.064911 418.333923,427.882874 422.660065,427.724182 
	C425.816437,427.608368 427.386200,428.930145 428.497925,431.889435 
	C434.054718,446.681061 439.825012,461.392517 445.685730,476.481506 
M404.471130,484.730194 
	C404.204895,486.809357 402.530518,488.641785 403.554749,491.550110 
	C410.613190,491.550110 417.859192,491.616486 425.102875,491.515717 
	C427.800415,491.478180 427.857849,489.694977 427.111572,487.662109 
	C423.251038,477.146179 419.393829,466.629028 415.038788,454.758484 
	C411.285339,465.417084 408.012085,474.712006 404.471130,484.730194 
z"/>
<path fill="#000000" opacity="1.000000" stroke="none" 
	d="
M714.602051,508.656921 
	C718.144531,506.582397 720.794922,504.028137 722.716614,500.868927 
	C724.241333,498.362427 725.814819,497.510284 728.821289,498.494781 
	C734.140869,500.236755 739.622742,501.483154 745.547058,503.074005 
	C741.458008,513.101257 734.889587,520.026306 726.377197,525.380981 
	C701.666809,540.924988 668.380432,533.180786 654.320496,507.772949 
	C637.309998,477.033264 651.762451,428.239716 699.158936,426.221283 
	C718.753906,425.386780 737.169312,435.741364 743.794922,453.025360 
	C744.432495,454.688721 745.440308,456.336884 744.839478,458.713745 
	C738.939819,460.142487 732.854370,461.592590 726.783081,463.099487 
	C724.672119,463.623383 723.788330,462.337921 722.935303,460.802826 
	C715.269165,447.006744 703.527649,445.285248 691.907532,448.044952 
	C679.929321,450.889801 670.972656,463.090271 670.274536,475.724762 
	C669.845825,483.481476 670.408203,490.932831 674.360596,497.948517 
	C682.694336,512.741150 699.500122,517.419556 714.602051,508.656921 
z"/>
<path fill="#000000" opacity="1.000000" stroke="none" 
	d="
M798.801758,626.953735 
	C798.809082,609.828491 798.928955,593.193604 798.747314,576.562012 
	C798.702209,572.426147 800.120361,570.874390 804.184814,571.023987 
	C812.321289,571.323608 820.476990,570.674927 828.608093,571.607361 
	C835.870667,572.440247 841.878418,575.136047 844.366455,582.570740 
	C846.803406,589.852844 845.413940,596.332703 839.359131,601.481018 
	C838.873230,601.894104 838.508057,602.449219 837.915222,603.137573 
	C838.533875,603.814331 838.966492,604.565308 839.615845,604.955872 
	C847.766785,609.857300 848.340027,617.706360 846.799622,623.483337 
	C844.932739,630.484558 837.653137,635.598450 829.500671,636.416138 
	C821.031555,637.265503 812.545776,636.663696 804.079407,637.008728 
	C799.852234,637.180969 798.310120,635.469971 798.771545,631.434814 
	C798.921814,630.121033 798.800232,628.776062 798.801758,626.953735 
M834.488098,615.929749 
	C833.769531,613.627258 832.576111,611.694031 830.285217,610.653381 
	C825.235901,608.359375 819.898010,608.725647 814.624390,609.234192 
	C811.790161,609.507507 812.134766,612.154053 812.421631,613.978394 
	C813.024048,617.808838 810.316406,622.265015 814.467224,625.429321 
	C814.696228,625.603882 815.111938,625.579041 815.439270,625.572205 
	C819.559998,625.486389 823.701843,626.123474 827.771301,624.744263 
	C831.750061,623.395874 834.449646,621.154419 834.488098,615.929749 
M815.024048,597.735046 
	C818.663635,597.674927 822.341858,597.921021 825.931885,597.468018 
	C829.472839,597.021301 832.141602,594.882324 832.542725,591.085876 
	C832.951416,587.217468 830.555176,584.955566 827.231812,583.606995 
	C823.444275,582.070129 819.442261,582.322327 815.472290,582.430115 
	C814.448853,582.457825 813.514465,582.715393 812.875732,583.614746 
	C811.558411,585.469666 812.482300,595.460815 815.024048,597.735046 
z"/>
<path fill="#000000" opacity="1.000000" stroke="none" 
	d="
M577.354675,587.918762 
	C577.380005,598.646423 576.580200,597.616333 586.369141,597.660217 
	C591.530151,597.683350 596.692810,597.585999 601.852051,597.682922 
	C604.617859,597.734863 605.763000,596.588074 605.728333,593.829407 
	C605.655090,588.003540 605.852722,582.172485 605.696350,576.350098 
	C605.606628,573.008911 606.672607,571.275085 610.238403,571.629089 
	C611.392090,571.743652 612.585938,571.773743 613.729431,571.613831 
	C618.183228,570.990906 619.432800,572.974060 619.387451,577.274475 
	C619.196350,595.419678 619.098633,613.571716 619.417725,631.713257 
	C619.520752,637.572388 616.182678,637.105103 612.387329,637.137390 
	C608.666443,637.169067 605.356079,637.362915 605.697998,631.884277 
	C606.060059,626.080566 605.679443,620.234009 605.782654,614.408997 
	C605.835693,611.417236 604.629395,610.239502 601.634705,610.293945 
	C594.977356,610.414856 588.314514,610.426453 581.657593,610.295776 
	C578.334778,610.230469 577.288269,611.760559 577.340210,614.848389 
	C577.441040,620.840027 577.200073,626.840027 577.399719,632.826538 
	C577.517883,636.369141 576.099609,637.380981 572.713989,637.399292 
	C564.679321,637.442810 564.675354,637.588501 564.669922,629.704285 
	C564.663086,619.714966 564.663025,609.725647 564.664001,599.736328 
	C564.664734,592.244324 564.887207,584.743958 564.593872,577.263611 
	C564.422913,572.905457 565.837158,571.075317 570.264465,571.591431 
	C572.368164,571.836609 574.524109,571.633545 577.355774,571.633545 
	C577.355774,577.231873 577.355774,582.333435 577.354675,587.918762 
z"/>
<path fill="#000000" opacity="1.000000" stroke="none" 
	d="
M689.960693,597.636597 
	C703.073364,597.453003 701.540100,599.458923 701.668823,586.549744 
	C701.692017,584.218201 701.669312,581.886169 701.671997,579.554382 
	C701.680359,572.179565 705.969299,569.260925 712.940979,571.778442 
	C714.551331,572.359985 714.850464,573.526245 714.851868,574.885986 
	C714.873291,595.155762 714.866638,615.425598 714.866638,635.705994 
	C710.779419,636.745911 707.633484,636.328003 704.517395,636.308899 
	C701.927490,636.292969 701.713318,634.455322 701.706482,632.515686 
	C701.685974,626.686279 701.553650,620.853149 701.720032,615.028809 
	C701.815674,611.681580 700.787720,610.155884 697.190002,610.267700 
	C690.700500,610.469299 684.196716,610.454712 677.705994,610.275696 
	C674.359436,610.183411 673.323608,611.625427 673.373413,614.731812 
	C673.469604,620.725830 673.196594,626.728760 673.398621,632.717163 
	C673.563049,637.592957 670.261292,637.001404 667.335083,636.900574 
	C664.401001,636.799500 660.638977,637.954956 660.660889,632.715820 
	C660.740295,613.728638 660.728943,594.740784 660.663025,575.753540 
	C660.652710,572.782104 661.760925,571.416382 664.769531,571.638794 
	C667.396301,571.833008 670.075256,571.249146 673.352600,572.315125 
	C673.352600,578.756958 673.560974,585.372742 673.278809,591.967529 
	C673.093201,596.304565 674.544495,598.088501 678.981689,597.706665 
	C682.454041,597.407959 685.972107,597.640503 689.960693,597.636597 
z"/>
<path fill="#000000" opacity="1.000000" stroke="none" 
	d="
M464.987457,583.402832 
	C459.992645,583.405151 455.492981,583.472229 450.996307,583.385315 
	C448.250824,583.332336 446.968140,584.531128 447.068115,587.253662 
	C447.074219,587.419678 447.059906,587.586731 447.049500,587.753052 
	C446.425659,597.738953 446.425598,597.734192 456.372101,597.726562 
	C460.870422,597.723145 465.369720,597.805725 469.866821,597.735474 
	C475.070557,597.654175 473.822449,601.515442 474.072510,604.456726 
	C474.335876,607.554749 473.566650,609.553772 469.767181,609.431946 
	C463.609314,609.234314 457.438843,609.467651 451.276093,609.369446 
	C448.357910,609.322998 447.157288,610.406128 446.996338,613.429688 
	C446.374939,625.103516 446.292175,625.093567 457.896423,625.062988 
	C463.227753,625.048950 468.562927,625.187195 473.889404,625.026001 
	C478.953033,624.872803 478.294312,628.317627 478.288391,631.479126 
	C478.282623,634.534363 478.662048,637.511169 473.916901,637.433472 
	C461.924408,637.237122 449.925903,637.293640 437.931366,637.409485 
	C434.634674,637.441284 433.610443,636.086304 433.622955,632.948853 
	C433.698792,613.955994 433.697754,594.962280 433.603821,575.969543 
	C433.587830,572.740662 434.803040,571.559814 438.000458,571.590576 
	C449.661926,571.702820 461.327515,571.789246 472.986237,571.583801 
	C477.757904,571.499634 477.319366,574.463623 477.333435,577.511963 
	C477.347656,580.586487 477.725616,583.776611 472.978699,583.418701 
	C470.494141,583.231384 467.983002,583.396606 464.987457,583.402832 
z"/>
<path fill="#000000" opacity="1.000000" stroke="none" 
	d="
M524.681335,638.322998 
	C507.917114,639.720032 491.552460,629.706604 488.380707,613.771545 
	C485.208771,597.835449 489.742676,582.926941 504.833588,574.384949 
	C517.693359,567.105896 535.104919,569.654175 545.378296,580.181824 
	C548.608459,583.491882 549.742920,585.646240 550.620422,590.316101 
	C547.261536,592.116150 543.381531,592.083740 539.743408,592.909058 
	C537.894836,593.328369 537.264832,591.510071 536.400391,590.378418 
	C531.633850,584.138611 525.346985,581.041748 517.656433,582.810547 
	C509.049286,584.790100 503.254028,590.345215 501.376587,599.186340 
	C498.549255,612.500793 505.364258,623.177063 518.383179,626.117615 
	C524.957825,627.602661 531.285645,625.978027 534.967163,620.684570 
	C538.888123,615.046814 543.015198,615.619873 548.099121,617.428406 
	C549.014282,617.754028 549.942688,618.042297 551.360535,618.512024 
	C546.357849,630.471375 537.137512,636.194092 524.681335,638.322998 
z"/>
<path fill="#000000" opacity="1.000000" stroke="none" 
	d="
M743.349182,582.027466 
	C743.349487,592.017395 743.323547,601.512512 743.357117,611.007446 
	C743.389221,620.074524 748.455994,625.605530 756.706970,625.667480 
	C765.386963,625.732727 770.549438,620.405518 770.625732,611.045227 
	C770.718079,599.718506 770.634338,588.390503 770.661194,577.063110 
	C770.675293,571.122925 770.926270,571.217529 777.944702,570.889587 
	C782.631348,570.670471 783.489075,572.713196 783.418945,576.812256 
	C783.216553,588.635925 783.365967,600.465393 783.344421,612.292480 
	C783.315430,628.181641 772.469910,638.430786 756.527405,637.669678 
	C739.116760,636.838440 730.506897,628.120544 729.910706,610.043091 
	C729.537537,598.727600 729.884521,587.389893 729.758362,576.063782 
	C729.723206,572.906494 730.779968,571.355652 734.062988,571.631165 
	C735.220581,571.728210 736.412659,571.774048 737.556458,571.612671 
	C742.226685,570.953674 743.936646,573.051392 743.371277,577.537842 
	C743.205994,578.849487 743.347839,580.199951 743.349182,582.027466 
z"/>
<path fill="#000000" opacity="1.000000" stroke="none" 
	d="
M388.471863,585.768921 
	C387.638092,583.348938 385.911499,583.413025 384.232819,583.404724 
	C381.238861,583.389893 378.244812,583.400269 375.250854,583.387451 
	C368.558136,583.358826 368.750946,583.351257 368.600281,576.786682 
	C368.512207,572.951233 369.706421,571.504333 373.694336,571.556885 
	C387.830170,571.742981 401.973785,571.814453 416.106171,571.525574 
	C420.996277,571.425659 421.308929,573.805054 421.421783,577.609009 
	C421.544830,581.756775 420.519836,584.082764 415.917023,583.392761 
	C415.754486,583.368408 415.584839,583.390503 415.418518,583.392273 
	C402.051697,583.535400 402.057648,583.535400 402.062836,596.720032 
	C402.067444,608.529602 401.811279,620.346252 402.151093,632.145935 
	C402.336182,638.572693 398.161652,637.152649 394.526245,637.415466 
	C390.583832,637.700378 388.464325,636.893066 388.545013,632.091187 
	C388.802094,616.794312 388.586395,601.489441 388.471863,585.768921 
z"/>
<path fill="#000000" opacity="1.000000" stroke="none" 
	d="
M614.607727,410.583496 
	C608.896912,423.022430 598.317627,418.858551 588.007751,419.229340 
	C591.651123,411.664398 595.646301,405.333527 600.335693,399.422028 
	C600.675293,398.993896 601.537598,398.806549 602.158875,398.802460 
	C608.756226,398.759155 615.354004,398.775604 622.729309,398.775604 
	C620.675720,403.700623 617.204041,406.644501 614.607727,410.583496 
z"/>
<path fill="#000000" opacity="1.000000" stroke="none" 
	d="
M898.142700,419.384979 
	C895.701294,419.385101 893.728699,419.385101 890.436951,419.385101 
	C894.446960,412.608307 897.886414,406.719147 901.444214,400.902344 
	C901.795166,400.328613 902.867615,399.913971 903.610291,399.905914 
	C910.508972,399.831055 917.408813,399.861633 925.670044,399.861633 
	C920.076599,407.243530 915.307251,413.572845 909.328918,418.610565 
	C906.666382,420.854218 902.232239,419.134491 898.142700,419.384979 
z"/>
</svg>