<svg version="1.1" id="Layer_1" xmlns="http://www.w3.org/2000/svg" xmlns:xlink="http://www.w3.org/1999/xlink" x="0px" y="0px"
	 width="100%" viewBox="0 0 1024 1024" enable-background="new 0 0 1024 1024" xml:space="preserve">
<path fill="#000000" opacity="1.000000" stroke="none" 
	d="
M206.945221,340.600159 
	C217.931946,338.287048 229.678894,343.464050 235.720306,353.028168 
	C242.030106,363.017151 241.360092,374.902802 233.961349,384.230164 
	C226.993530,393.014282 215.383041,396.599121 204.824646,393.136597 
	C202.460876,392.361389 199.752853,391.799347 197.971161,390.253906 
	C193.812180,386.646576 190.388504,388.179962 186.326859,390.413666 
	C142.861298,414.318024 117.803665,451.209198 110.225784,499.798157 
	C102.591225,548.750488 116.093529,591.344910 151.184448,626.698303 
	C155.993332,631.543152 161.349854,635.834412 167.103119,639.552734 
	C170.804993,641.945312 174.639160,644.133179 178.663788,646.098511 
	C167.406433,634.162964 157.259323,621.523743 149.369141,607.163452 
	C135.907761,582.663635 130.136856,556.346191 132.995636,528.683838 
	C136.855865,491.330933 155.258896,461.910553 185.183304,439.593170 
	C188.218521,437.329468 189.840912,434.968109 190.446152,431.212524 
	C192.343567,419.439148 200.048508,412.659241 211.353165,412.277740 
	C222.073303,411.915985 231.108841,419.284790 233.825409,430.604553 
	C236.235382,440.646759 230.932678,451.647034 221.397049,455.897797 
	C214.996933,458.750854 208.433914,458.739624 202.055084,455.752228 
	C199.700241,454.649414 197.877182,454.553009 195.684189,456.245331 
	C165.299438,479.692749 149.006958,510.229614 152.650040,548.869263 
	C157.439957,599.672668 185.540680,634.729980 230.583130,657.033630 
	C233.549591,658.502502 236.751236,659.566772 239.936371,660.503418 
	C242.936356,661.385559 246.059189,661.849792 249.272964,662.235168 
	C238.063797,656.146179 227.916168,648.624146 218.727493,639.908936 
	C198.678497,620.893005 183.822861,598.703735 179.288666,570.905640 
	C174.925262,544.154480 179.843033,519.842163 200.205963,500.294647 
	C205.654633,495.064117 211.998337,491.016083 218.696335,487.616638 
	C233.752609,479.975159 246.911819,470.443970 253.459641,454.043854 
	C254.569427,451.264160 255.527298,448.422180 256.502350,445.590729 
	C258.319763,440.313110 258.855438,435.767151 255.190094,430.290802 
	C248.688034,420.576111 249.442764,409.945221 256.055603,400.255402 
	C262.516968,390.787537 272.089020,387.128204 283.079956,388.988953 
	C293.875366,390.816620 301.460236,397.356293 304.662872,408.154694 
	C310.218658,426.887054 295.383484,443.126678 281.923828,443.435791 
	C278.669342,443.510529 276.951569,445.064362 275.998505,448.327667 
	C271.249756,464.587952 263.682312,479.192596 250.764755,490.659485 
	C242.441910,498.047638 232.691666,503.164062 223.074188,508.436890 
	C202.463364,519.736877 194.774078,542.133667 197.852524,563.376038 
	C202.258713,593.780029 220.039841,615.894104 243.125412,634.473633 
	C251.843964,641.490479 261.292175,647.326050 271.567291,651.954102 
	C277.268005,654.521851 281.963806,654.585388 286.681824,649.836853 
	C272.769806,642.974548 260.271881,634.039856 249.023239,623.354919 
	C236.922867,611.860962 227.579926,598.859863 225.225525,581.730225 
	C223.914215,572.189758 225.335663,563.140015 229.175018,554.465942 
	C237.504318,535.647827 252.487305,522.714600 268.400848,510.648407 
	C269.064209,510.145386 269.781250,509.713226 270.445648,509.211517 
	C276.997406,504.264191 283.122437,500.096588 283.333893,489.759247 
	C283.567719,478.332458 295.482941,469.113739 306.502075,468.673370 
	C321.806122,468.061737 332.767761,475.030151 336.215118,487.717133 
	C339.242737,498.859558 336.503113,508.700317 328.075745,516.364624 
	C318.908203,524.702026 308.128845,524.814209 297.306885,519.924744 
	C294.078949,518.466370 291.991882,518.535889 289.258636,520.662415 
	C278.615814,528.942688 267.335571,536.436340 258.277313,546.617981 
	C254.488358,550.876770 251.198685,555.469788 248.553284,560.499573 
	C241.594101,573.731567 244.388351,585.844055 252.886230,597.293884 
	C260.652771,607.758362 261.447723,607.724243 269.557617,597.776794 
	C280.840240,583.937805 291.260620,569.505554 300.457703,554.193909 
	C302.130310,551.409302 304.244263,549.028015 307.761566,548.722900 
	C311.725220,548.378967 315.697174,548.750244 318.009155,552.433899 
	C320.438263,556.304016 319.884949,560.371582 317.393677,564.176697 
	C308.262817,578.122864 298.727142,591.776978 288.188446,604.708252 
	C284.927094,608.710022 281.781525,612.816406 278.341370,616.658508 
	C275.876770,619.411194 276.584137,621.144714 279.296478,623.063049 
	C287.513794,628.874878 296.382904,633.369873 305.787140,636.921387 
	C320.749878,642.571960 321.938110,649.298767 309.624359,659.325562 
	C292.690735,673.114197 273.617828,682.072266 251.547592,683.348450 
	C197.666534,686.464172 155.278503,664.441589 122.366211,622.950134 
	C102.827324,598.318115 92.535118,569.811890 89.522202,538.523071 
	C85.155922,493.179565 96.245842,452.264313 124.584816,416.497559 
	C139.774170,397.326965 158.916946,382.616882 180.422241,371.027740 
	C183.272614,369.491699 185.188950,367.716888 185.521790,364.297668 
	C186.780777,351.364258 194.438293,344.021576 206.945221,340.600159 
M214.796143,376.588531 
	C220.061844,374.442505 223.008987,370.580963 222.571182,366.401154 
	C222.126556,362.156128 218.010910,357.863373 213.903366,357.360352 
	C207.974747,356.634338 202.803421,360.696014 202.426544,366.374481 
	C202.011627,372.626587 206.679108,376.786682 214.796143,376.588531 
M271.544678,422.979828 
	C277.302490,428.858490 286.695679,424.377594 287.696930,418.156555 
	C288.465240,413.382782 286.398956,408.553223 282.255280,406.904022 
	C278.037720,405.225372 274.057190,405.785370 270.862854,409.308136 
	C267.464630,413.055725 267.552002,417.209869 271.544678,422.979828 
M299.567902,494.724792 
	C299.360718,496.475372 300.140564,497.995270 300.858185,499.462158 
	C302.891998,503.619629 307.700989,506.163605 311.414429,505.187653 
	C316.293182,503.905396 319.780823,499.652893 319.623047,495.178925 
	C319.463287,490.650085 315.600006,486.661011 310.657837,485.921906 
	C305.805267,485.196167 302.067230,487.968536 299.567902,494.724792 
z"/>
<path fill="#000000" opacity="1.000000" stroke="none" 
	d="
M379.018677,429.973938 
	C409.401672,405.667480 459.055878,420.007904 466.588715,464.727539 
	C471.702087,495.083618 448.565308,527.520386 413.434052,527.609680 
	C381.500275,527.690857 359.424377,501.164368 359.483276,473.346558 
	C359.520477,455.779419 365.859192,441.704498 379.018677,429.973938 
M442.970367,485.418976 
	C445.395081,478.910400 446.293457,472.366913 444.661774,465.418610 
	C441.236725,450.833679 429.491669,439.554932 414.846222,438.672363 
	C403.182495,437.969482 390.473816,443.814850 383.971649,458.961395 
	C375.661530,478.319580 386.648132,501.549103 406.567902,506.045837 
	C420.163513,509.114990 435.761261,502.751587 442.970367,485.418976 
z"/>
<path fill="#000000" opacity="1.000000" stroke="none" 
	d="
M671.004395,504.905884 
	C660.201904,518.670532 645.860168,524.106201 629.228516,524.351135 
	C617.065002,524.530273 604.894836,524.269104 592.731934,524.465759 
	C588.790833,524.529480 587.569641,523.169128 587.584717,519.271362 
	C587.706726,487.773376 587.664185,456.274689 587.635376,424.776276 
	C587.632874,422.026611 587.831665,419.828339 591.502136,419.870667 
	C607.799011,420.058746 624.145142,418.921173 640.348145,421.575348 
	C663.268738,425.329865 678.049927,441.723480 680.509766,464.777130 
	C682.062744,479.330811 679.455505,492.534607 671.004395,504.905884 
M648.716370,446.769836 
	C647.946777,446.135864 647.217468,445.443970 646.401550,444.876648 
	C635.730652,437.456665 623.572205,438.960083 611.653442,439.196594 
	C609.209167,439.245087 608.996826,441.351135 608.997009,443.258698 
	C608.998596,462.562469 609.038818,481.866241 609.010010,501.169952 
	C609.005493,504.211365 610.002869,505.799713 613.359619,505.674042 
	C618.178894,505.493561 623.040344,505.973114 627.829407,505.551788 
	C637.516113,504.699554 646.520569,501.953857 652.670593,493.687500 
	C663.341187,479.345001 661.840820,459.927124 648.716370,446.769836 
z"/>
<path fill="#000000" opacity="1.000000" stroke="none" 
	d="
M698.978882,523.307251 
	C698.763489,489.942322 698.718933,456.985687 698.646912,424.029114 
	C698.641479,421.551971 699.187012,419.803894 702.185242,419.836151 
	C719.296021,420.020294 736.476440,418.809082 753.461914,421.733521 
	C773.900513,425.252472 789.424194,443.020142 791.485474,463.804688 
	C792.667725,475.725433 791.523865,487.062592 786.141479,497.738770 
	C777.426941,515.024597 762.400330,522.992493 743.837280,524.174011 
	C729.742432,525.071228 715.555115,524.527832 701.408691,524.565491 
	C700.654236,524.567505 699.898254,524.011658 698.978882,523.307251 
M734.473572,439.049408 
	C731.142822,439.027985 727.811096,439.048981 724.481628,438.972137 
	C721.659180,438.907013 720.147583,439.956757 720.153931,443.028168 
	C720.194397,462.514343 720.183472,482.000732 720.128113,501.486908 
	C720.119812,504.394104 721.183411,505.772339 724.244263,505.668213 
	C728.403137,505.526794 732.570862,505.667053 736.734314,505.635498 
	C766.549622,505.409698 775.652161,478.237183 768.104248,458.621674 
	C762.925415,445.162933 752.753845,439.195923 734.473572,439.049408 
z"/>
<path fill="#000000" opacity="1.000000" stroke="none" 
	d="
M813.929626,480.070129 
	C821.070740,461.361786 828.154480,443.045471 835.004639,424.642212 
	C836.385559,420.932220 838.357910,419.399261 842.355774,419.636963 
	C847.670532,419.952972 853.018311,419.786072 858.350220,419.706726 
	C860.793396,419.670441 862.376770,420.423004 863.316284,422.877197 
	C875.928040,455.822144 888.609009,488.740631 901.251831,521.673767 
	C901.537354,522.417603 901.578735,523.255188 901.874512,524.766846 
	C894.735901,525.699524 887.854919,525.387817 880.991577,524.979065 
	C879.273315,524.876709 878.833557,523.109741 878.301086,521.697937 
	C876.421387,516.714417 874.425720,511.771484 872.683655,506.740570 
	C871.713867,503.939819 870.038940,502.910400 867.102417,502.933197 
	C855.270752,503.025146 843.436890,503.005127 831.605896,502.860626 
	C829.092957,502.829926 828.015991,503.969269 827.273132,506.071442 
	C825.499756,511.089905 823.538330,516.044067 821.858154,521.092529 
	C820.884766,524.017578 819.292053,525.433472 816.057068,525.334412 
	C810.127075,525.152832 804.187622,525.282715 796.930725,525.282715 
	C802.846741,509.544128 808.318298,494.987823 813.929626,480.070129 
M859.776489,472.526367 
	C856.609253,463.831635 853.442017,455.136932 849.904602,445.425964 
	C847.127930,452.737061 844.673645,458.726288 842.581848,464.839569 
	C840.464050,471.029358 837.480347,476.956970 836.107056,483.934387 
	C845.499084,485.469299 854.353088,483.403259 863.517151,484.206482 
	C862.976135,479.889862 861.249939,476.654236 859.776489,472.526367 
z"/>
<path fill="#000000" opacity="1.000000" stroke="none" 
	d="
M481.649902,478.996094 
	C481.651123,460.680878 481.756104,442.863678 481.576447,425.049377 
	C481.535065,420.943604 482.801666,419.313812 486.965759,419.627869 
	C490.607971,419.902588 494.301117,419.876129 497.947113,419.624908 
	C501.892365,419.353027 503.180756,420.958099 503.155731,424.815094 
	C503.034821,443.462799 503.081635,462.111877 503.146790,480.760223 
	C503.158356,484.074707 503.089844,487.491425 503.827454,490.683197 
	C506.538971,502.416626 516.059509,508.217194 529.386719,506.602356 
	C538.870850,505.453156 546.498901,495.950836 546.597900,484.520233 
	C546.765198,465.206970 546.643250,445.891266 546.656799,426.576569 
	C546.661377,419.992889 546.680481,419.986603 553.356995,419.970215 
	C556.853455,419.961639 560.355469,420.105103 563.844788,419.950287 
	C567.351257,419.794769 568.411011,421.360413 568.393982,424.728516 
	C568.285339,446.207245 568.601135,467.691376 568.238098,489.164612 
	C567.913391,508.373352 553.011230,523.810059 533.727844,526.525452 
	C525.109070,527.739136 516.796387,527.248718 508.630188,524.666321 
	C491.773834,519.335815 481.711609,505.303223 481.652985,487.487762 
	C481.644226,484.823608 481.650696,482.159393 481.649902,478.996094 
z"/>
<path fill="#000000" opacity="1.000000" stroke="none" 
	d="
M917.662964,489.999939 
	C917.662903,468.521820 917.762207,447.542908 917.580139,426.566406 
	C917.543701,422.367737 918.772278,420.991058 922.980530,421.461334 
	C926.930115,421.902740 930.977844,421.842773 934.953247,421.573303 
	C939.075928,421.293823 940.438049,422.801727 940.397400,426.946747 
	C940.219299,445.092682 940.319397,463.241364 940.318054,481.389038 
	C940.317139,494.042480 940.176941,506.698242 940.389526,519.348083 
	C940.463318,523.734253 939.331238,525.858215 934.535339,525.431030 
	C930.570740,525.077942 926.540771,525.183472 922.556946,525.400269 
	C918.855713,525.601562 917.564087,524.109192 917.618652,520.467834 
	C917.768372,510.480560 917.665955,500.489502 917.662964,489.999939 
z"/>
<path fill="#000000" opacity="1.000000" stroke="none" 
	d="
M824.138794,596.343384 
	C830.276367,600.949585 832.461914,607.076050 830.644775,614.055115 
	C828.687744,621.571594 823.418335,626.455444 814.849854,627.083557 
	C806.229980,627.715454 797.533020,627.290283 788.869934,627.342712 
	C786.502991,627.357056 785.679749,626.059448 785.681335,623.870850 
	C785.694519,606.040833 785.699280,588.210876 785.667175,570.380859 
	C785.662537,567.805786 786.900452,566.834351 789.357849,566.847595 
	C797.683777,566.892578 806.045105,566.513367 814.297974,567.797729 
	C827.114441,569.792358 832.286499,582.804199 824.462708,592.980713 
	C823.726379,593.938477 822.076660,594.736328 824.138794,596.343384 
M796.785339,617.554810 
	C802.093933,619.672974 807.468201,618.882874 812.758728,617.659180 
	C818.050720,616.435242 820.356628,613.018311 819.813171,607.911743 
	C819.365723,603.707397 816.120483,600.697937 811.314758,600.409241 
	C807.679871,600.190796 804.018921,600.437378 800.377563,600.285645 
	C797.410400,600.162109 796.130798,601.319946 796.262268,604.343689 
	C796.442017,608.480042 796.403625,612.625916 796.785339,617.554810 
M796.761841,590.569458 
	C800.840820,592.791687 805.241272,591.630920 809.433594,591.424500 
	C813.697937,591.214478 816.442261,588.533691 816.620300,583.951172 
	C816.773376,580.009583 813.959900,577.116638 809.442932,576.425659 
	C797.182312,574.550049 796.067688,575.510986 796.282166,587.795471 
	C796.293701,588.459534 796.378235,589.122253 796.761841,590.569458 
z"/>
<path fill="#000000" opacity="1.000000" stroke="none" 
	d="
M498.844482,575.877869 
	C510.055908,565.169067 524.913330,562.704407 537.728394,569.181091 
	C541.854492,571.266479 544.949646,574.287903 547.431458,578.232849 
	C549.824463,582.036804 549.299194,584.293518 544.989014,585.659485 
	C543.575378,586.107483 542.232971,586.780151 541.118591,587.242126 
	C539.663391,587.008423 539.163940,586.103027 538.687134,585.245300 
	C534.236694,577.239136 526.983093,575.110779 518.676514,576.511047 
	C510.933746,577.816345 505.770538,582.866394 504.020538,590.480591 
	C500.879700,604.146301 506.066254,615.441956 519.379822,618.192566 
	C525.881897,619.535889 531.310242,617.353943 535.688965,612.845947 
	C541.152954,607.220642 541.933594,606.983032 548.764526,612.164429 
	C544.857056,621.767212 537.761719,627.334473 527.438049,628.303772 
	C513.679199,629.595520 501.616699,626.139709 494.891479,613.001953 
	C488.345673,600.214844 489.548004,587.637024 498.844482,575.877869 
z"/>
<path fill="#000000" opacity="1.000000" stroke="none" 
	d="
M655.627747,604.999878 
	C655.626648,592.520630 655.626648,580.541443 655.626648,568.460388 
	C656.514404,568.150269 657.101074,567.803162 657.711853,567.753540 
	C666.295227,567.055786 666.296936,567.065552 666.306213,575.716736 
	C666.310181,579.382935 666.477112,583.058960 666.263062,586.712524 
	C666.056030,590.247192 667.107300,591.952026 670.986145,591.797668 
	C676.809326,591.565918 682.654419,591.585327 688.479309,591.797180 
	C692.228210,591.933594 693.603821,590.221069 693.591003,586.768127 
	C693.571899,581.602295 693.744446,576.431213 693.560486,571.272095 
	C693.403259,566.860413 696.325195,567.148743 699.222412,567.057617 
	C702.194946,566.964294 704.377441,567.338745 704.349243,571.255493 
	C704.223145,588.752380 704.249207,606.250793 704.319031,623.748291 
	C704.330261,626.575317 703.277405,627.715637 700.477600,627.435181 
	C698.366638,627.223755 696.178772,627.728516 693.616150,626.700867 
	C693.616150,619.941040 693.429077,613.141968 693.687378,606.359863 
	C693.838623,602.389221 692.386047,601.037231 688.495605,601.194824 
	C682.672546,601.430725 676.831604,601.335693 671.001038,601.230896 
	C667.638428,601.170471 666.148743,602.483398 666.266479,605.965637 
	C666.435242,610.959106 666.307495,615.962952 666.290161,620.962280 
	C666.267456,627.539429 666.260376,627.551392 659.669922,627.391113 
	C658.539551,627.363647 657.412903,627.184998 655.628845,627.012939 
	C655.628845,619.728699 655.628845,612.614319 655.627747,604.999878 
z"/>
<path fill="#000000" opacity="1.000000" stroke="none" 
	d="
M599.377075,591.645996 
	C602.401245,590.582581 601.607361,588.290710 601.634399,586.433777 
	C601.723450,580.327576 601.667908,574.219299 601.667908,567.956482 
	C605.403076,567.393311 608.480835,567.486023 611.419861,567.815918 
	C612.706421,569.298767 612.312927,570.863647 612.315735,572.307434 
	C612.348083,588.947021 612.263855,605.587219 612.398193,622.225769 
	C612.427795,625.890198 611.679993,627.684875 607.456604,627.495056 
	C603.752869,627.328613 601.417725,626.894226 601.627136,622.378479 
	C601.888916,616.733521 601.580383,611.064392 601.707275,605.409912 
	C601.773315,602.466797 600.734192,601.144897 597.678772,601.205322 
	C591.524536,601.327087 585.364197,601.354736 579.210693,601.222290 
	C575.411499,601.140442 574.325256,603.029175 574.383911,606.471069 
	C574.499329,613.252319 574.417908,620.036865 574.417908,627.059570 
	C570.744751,627.622192 567.654358,627.516785 564.647461,627.180847 
	C563.329285,625.841736 563.689453,624.265381 563.686768,622.818848 
	C563.655945,606.179260 563.867554,589.535706 563.546875,572.902222 
	C563.442810,567.506836 566.266602,567.726440 570.062683,567.537964 
	C574.552551,567.315063 574.824890,569.495422 574.562317,573.046814 
	C574.231873,577.516357 574.610474,582.034790 574.374573,586.515930 
	C574.173706,590.331482 575.465454,591.961182 579.483154,591.804810 
	C585.962952,591.552734 592.458984,591.717163 599.377075,591.645996 
z"/>
<path fill="#000000" opacity="1.000000" stroke="none" 
	d="
M474.476624,600.543823 
	C467.832031,601.824463 461.496338,601.224060 455.182861,601.247986 
	C451.562469,601.261658 450.098511,602.572083 450.154968,606.249817 
	C450.359436,619.573547 448.517670,617.753967 461.333191,617.925659 
	C465.998138,617.988098 470.668152,618.070312 475.328949,617.923645 
	C479.325470,617.797913 479.314667,620.296143 479.386383,623.175293 
	C479.460205,626.138977 478.806091,628.097534 475.328705,627.861572 
	C464.345551,627.116089 453.351013,627.438354 442.360504,627.599243 
	C439.701843,627.638123 438.876709,626.327087 438.879852,623.910400 
	C438.902954,606.247314 438.897339,588.584290 438.869446,570.921204 
	C438.865997,568.730103 439.542877,567.480896 442.019409,567.543457 
	C454.149078,567.849854 466.288513,566.251282 478.414185,567.718140 
	C480.922119,575.491211 479.897552,577.016418 472.149872,577.026001 
	C466.484528,577.033020 460.816803,577.130249 455.154755,576.994080 
	C451.570892,576.907898 450.110443,578.256897 450.162018,581.976318 
	C450.320557,593.409119 449.393402,591.508545 459.692871,591.676208 
	C462.358307,591.719543 465.025055,591.679993 467.691193,591.683044 
	C475.939484,591.692383 476.104126,591.890259 474.476624,600.543823 
z"/>
<path fill="#000000" opacity="1.000000" stroke="none" 
	d="
M744.959412,628.368774 
	C732.121155,629.202148 719.693176,619.858398 720.527161,604.511963 
	C721.104858,593.881836 720.783691,583.190247 720.531250,572.533997 
	C720.431396,568.320374 722.326050,567.552917 725.931885,567.562378 
	C729.461121,567.571655 731.492310,568.156494 731.394714,572.439697 
	C731.151794,583.096130 731.268738,593.762207 731.338867,604.423828 
	C731.389893,612.188660 736.162109,617.625854 743.464722,618.463867 
	C749.853821,619.196960 755.283569,614.629333 757.111755,607.186462 
	C757.721863,604.702209 757.624268,602.228638 757.629883,599.740784 
	C757.653442,589.283386 757.639893,578.825928 757.639893,568.918823 
	C758.948853,567.537537 759.998535,567.695923 760.968933,567.661560 
	C768.320190,567.401245 768.328674,567.409241 768.334412,574.936279 
	C768.341980,584.931946 768.343750,594.927673 768.332581,604.923340 
	C768.316711,619.034363 759.554565,627.993103 744.959412,628.368774 
z"/>
<path fill="#000000" opacity="1.000000" stroke="none" 
	d="
M407.999146,567.630371 
	C413.157501,567.638062 417.818878,567.746704 422.473755,567.618774 
	C425.652435,567.531555 426.380402,569.126221 426.359924,571.935730 
	C426.339539,574.734680 426.054108,577.011169 422.496368,576.877441 
	C419.341187,576.758911 416.188385,576.574097 413.032867,576.467407 
	C409.010284,576.331299 407.078888,577.833984 407.171204,582.331970 
	C407.433929,595.138123 407.287170,607.952820 407.287262,620.764160 
	C407.287323,628.078186 407.273956,628.089355 399.740875,627.529907 
	C398.787048,627.459045 397.716705,627.763306 396.767395,626.723877 
	C395.819153,616.132446 396.844910,605.343994 396.556305,594.571045 
	C396.440521,590.250000 396.090912,585.930420 396.117371,581.611877 
	C396.139557,577.990112 394.451813,576.439636 390.997131,576.443359 
	C386.707123,576.447998 382.417145,576.444458 377.982880,576.444458 
	C377.432190,573.389526 377.489807,570.824036 378.093597,567.630615 
	C387.956696,567.630615 397.728088,567.630615 407.999146,567.630371 
z"/>
<path fill="#000000" opacity="1.000000" stroke="none" 
	d="
M947.798462,417.296143 
	C940.210876,416.892853 935.813660,413.010315 935.692078,406.998016 
	C935.577393,401.328857 939.434448,396.921783 945.259216,396.066681 
	C951.079346,395.212219 956.367371,399.002045 957.745667,405.015289 
	C959.032166,410.627930 955.438843,415.251923 947.798462,417.296143 
z"/>
<path fill="#000000" opacity="1.000000" stroke="none" 
	d="
M919.080872,416.666870 
	C909.419739,418.310730 902.477234,412.725677 904.130127,405.116364 
	C905.298889,399.736023 909.855957,395.976562 915.183044,395.997986 
	C920.288391,396.018555 924.905701,399.393158 926.103760,403.979462 
	C927.408813,408.975220 925.026550,413.459442 919.080872,416.666870 
z"/>
</svg>