<?xml version="1.0" encoding="UTF-8"?>
<svg version="1.1" xmlns="http://www.w3.org/2000/svg" width="1024" height="1024">
<path d="M0 0 C337.92 0 675.84 0 1024 0 C1024 337.92 1024 675.84 1024 1024 C686.08 1024 348.16 1024 0 1024 C0 686.08 0 348.16 0 0 Z " fill="#EEEEEE" transform="translate(0,0)"/>
<path d="M0 0 C6.57870386 3.81043738 12.39232969 9.68498071 14.625 17.0625 C15.46223792 24.85321915 15.73728745 32.41598635 11.23828125 39.1328125 C5.63230408 45.83826703 -0.20577485 50.33024776 -9.0078125 51.375 C-16.5398855 51.71069128 -22.77768782 50.06026015 -28.625 45.1875 C-29.2025 44.81625 -29.78 44.445 -30.375 44.0625 C-57.13887358 52.56051825 -78.54839517 76.50858547 -93.375 99.0625 C-93.98214844 99.98289062 -94.58929688 100.90328125 -95.21484375 101.8515625 C-103.28944004 114.85147943 -108.97803658 130.17822066 -112.375 145.0625 C-112.67277344 146.34511719 -112.97054687 147.62773437 -113.27734375 148.94921875 C-117.49209919 169.48464064 -117.89345577 194.76953318 -112.375 215.0625 C-112.19275879 215.7332959 -112.01051758 216.4040918 -111.82275391 217.09521484 C-101.70736252 253.50893373 -80.94151013 282.50141107 -48.6484375 302.2265625 C-45.70979454 304.22555791 -45.70979454 304.22555791 -43.375 304.0625 C-44.25800781 303.22589844 -45.14101562 302.38929688 -46.05078125 301.52734375 C-64.99391724 283.27912538 -78.97141364 261.1758307 -86.6875 235.9375 C-86.93000488 235.15101074 -87.17250977 234.36452148 -87.42236328 233.55419922 C-96.58877753 202.05153313 -92.2999899 167.31606346 -76.625 138.6875 C-66.79805093 121.48240062 -52.56075996 104.31030501 -35.375 94.0625 C-34.715 94.0625 -34.055 94.0625 -33.375 94.0625 C-33.47941406 93.13630859 -33.47941406 93.13630859 -33.5859375 92.19140625 C-33.99258702 85.83024593 -32.91995966 82.08419144 -29.09375 76.9765625 C-25.13942364 72.57288087 -21.01128185 70.50906093 -15.1484375 69.7890625 C-8.22681257 69.49596438 -3.05164903 71.03943968 2.625 75.0625 C4.71988343 77.21625603 6.21631134 79.41736409 7.625 82.0625 C8.058125 82.84625 8.49125 83.63 8.9375 84.4375 C10.95641508 92.14608486 9.62099391 99.2005746 5.625 106.0625 C1.71871986 110.45819807 -2.63259619 113.80529526 -8.58203125 114.36328125 C-9.77183594 114.36714844 -10.96164063 114.37101562 -12.1875 114.375 C-13.36957031 114.39175781 -14.55164063 114.40851563 -15.76953125 114.42578125 C-19.93610808 114.00596365 -22.63156762 112.87909523 -26.375 111.0625 C-49.09997889 129.90760444 -67.00870631 151.85710401 -71.375 182.0625 C-71.66994332 186.39969718 -71.7091213 190.71630924 -71.6875 195.0625 C-71.68186035 196.25222412 -71.6762207 197.44194824 -71.67041016 198.66772461 C-71.19183052 233.69643707 -56.33113085 264.72697545 -31.375 289.0625 C-16.90308907 302.74462602 4.83180511 319.0625 25.625 319.0625 C24.8 318.63582031 23.975 318.20914062 23.125 317.76953125 C-8.72352932 300.53009294 -32.36733121 271.81176416 -43.2199707 237.38183594 C-45.55538602 229.12647881 -45.85857432 221.23219115 -45.8125 212.6875 C-45.83248047 211.38039063 -45.85246094 210.07328125 -45.87304688 208.7265625 C-45.86431726 191.1276528 -39.97731852 175.31159921 -28.375 162.0625 C-27.82714844 161.40894531 -27.27929688 160.75539063 -26.71484375 160.08203125 C-19.57762419 152.22324663 -9.86082541 147.01960521 -0.61328125 142 C15.07040129 133.47917913 24.95340284 123.07855763 31.0625 106.3125 C31.32200439 105.60343506 31.58150879 104.89437012 31.84887695 104.16381836 C33.37136845 99.68956832 34.04631591 95.84532568 33.625 91.0625 C31.79977572 88.40596271 31.79977572 88.40596271 29.625 86.0625 C26.17374237 79.30632782 26.31019823 69.44721103 28.46484375 62.26171875 C31.86398925 55.63510177 37.56216113 50.17023983 44.375 47.125 C51.57148696 44.88138936 59.04676778 44.95799964 65.9375 48.0625 C72.09582143 51.56739676 77.71377788 57.10642097 80.18359375 63.89453125 C81.87622738 72.20790882 81.613879 80.38511916 77.31640625 87.8046875 C72.72740845 93.93041667 67.08967895 99.25683967 59.30664062 100.40429688 C57.08095669 100.65701745 54.85725917 100.87769423 52.625 101.0625 C52.2846875 102.18785156 51.944375 103.31320312 51.59375 104.47265625 C46.44815276 120.9899691 40.06517854 133.91763727 27.625 146.0625 C26.69300781 147.02542969 26.69300781 147.02542969 25.7421875 148.0078125 C20.27701383 153.27692613 13.56884008 156.7509814 7.03515625 160.51171875 C-9.16362063 169.84150609 -19.79172606 178.23515351 -25.5546875 196.87890625 C-30.44456449 218.31854097 -23.54149049 240.69830223 -12.22802734 258.90869141 C-7.34649699 266.18533539 -1.37735819 272.70324483 4.625 279.0625 C5.24761719 279.73796875 5.87023437 280.4134375 6.51171875 281.109375 C18.32217279 293.48930586 35.85314973 306.6541889 52.625 311.0625 C56.46412887 310.60043546 59.9798954 309.33404812 63.625 308.0625 C63.625 307.4025 63.625 306.7425 63.625 306.0625 C62.95855469 305.99160156 62.29210937 305.92070313 61.60546875 305.84765625 C57.55003097 304.77931681 54.44655675 302.75108519 50.9375 300.5 C50.22706543 300.04890869 49.51663086 299.59781738 48.78466797 299.13305664 C39.27491945 293.00976437 30.91350903 285.73288293 22.625 278.0625 C22.00882813 277.52367187 21.39265625 276.98484375 20.7578125 276.4296875 C9.1089018 265.74704589 1.71513224 250.0484613 0.40234375 234.41015625 C-0.13689235 218.06895797 7.19248528 204.21921694 17.625 192.0625 C18.64207031 190.84626953 18.64207031 190.84626953 19.6796875 189.60546875 C25.1077306 183.31782451 31.07295237 178.13395038 37.625 173.0625 C39.1693832 171.86082149 40.71364468 170.65898652 42.2578125 169.45703125 C44.70437567 167.55336678 47.15250607 165.65198956 49.60717773 163.75878906 C50.35684814 163.17967773 51.10651855 162.60056641 51.87890625 162.00390625 C52.88932983 161.22575562 52.88932983 161.22575562 53.92016602 160.43188477 C55.73481863 159.02499673 55.73481863 159.02499673 57.625 157.0625 C57.90139405 154.73350924 57.90139405 154.73350924 57.9375 152.0625 C58.57726461 143.91616397 61.48397048 137.69712831 67.5 132.125 C74.87294401 126.31435268 81.41595522 125.20892013 90.625 126.0625 C97.67981253 127.28990469 103.0296217 130.5780159 107.625 136.0625 C112.46832646 143.73893733 113.69846839 150.48609364 112.25390625 159.3359375 C110.50044395 166.22885827 105.97257653 171.51870031 100.625 176.0625 C95.64214496 178.72198831 91.27312475 179.57895349 85.6875 179.5 C84.9852832 179.49822754 84.28306641 179.49645508 83.55957031 179.49462891 C77.85515267 179.35023004 74.4658547 177.85530079 69.625 175.0625 C66.71057812 176.11861724 64.38632338 177.8761624 61.9375 179.75 C61.24470947 180.27851562 60.55191895 180.80703125 59.83813477 181.3515625 C56.80539493 183.69612298 53.77364743 186.04167481 50.75341797 188.40234375 C49.44711691 189.42125258 48.13707264 190.4354112 46.82080078 191.44140625 C36.44277271 199.37809419 27.74485009 208.90285604 22.625 221.0625 C22.00625 222.485625 22.00625 222.485625 21.375 223.9375 C19.24214914 232.82437857 20.83869602 240.8236802 24.625 249.0625 C28.13076768 254.68191453 32.36197424 259.08313906 37.625 263.0625 C52.67130615 249.15097113 64.28672179 230.73178142 75.06030273 213.41894531 C75.48512939 212.74573242 75.90995605 212.07251953 76.34765625 211.37890625 C76.71640869 210.78537354 77.08516113 210.19184082 77.46508789 209.58032227 C78.625 208.0625 78.625 208.0625 81.625 206.0625 C86.61385232 205.60056923 89.61380248 205.99511366 93.625 209.0625 C95.17604262 212.16458524 95.33153236 214.72911657 94.625 218.0625 C92.66096819 221.97751357 90.1313852 225.47819389 87.625 229.0625 C86.81524719 230.27179312 86.00806752 231.48281219 85.203125 232.6953125 C75.96419072 246.51099758 65.81388074 259.70978807 54.82421875 272.18041992 C52.34783116 274.74211625 52.34783116 274.74211625 51.625 278.0625 C53.5520542 279.5558121 55.45000851 280.87999464 57.5 282.1875 C58.11552734 282.58275879 58.73105469 282.97801758 59.36523438 283.38525391 C65.80650853 287.38631295 72.62294132 290.38800569 79.59375 293.3359375 C90.51441421 297.95858319 90.51441421 297.95858319 92.625 302.0625 C93.33842591 305.20157402 93.2078585 307.08262193 91.546875 309.875 C77.75162906 327.1538939 52.92852648 337.29589289 31.625 340.0625 C26.47891232 340.3849463 21.3421338 340.45251593 16.1875 340.4375 C15.4839035 340.43695618 14.78030701 340.43641235 14.0553894 340.43585205 C2.21777316 340.39390979 -8.97787336 339.41354596 -20.375 336.0625 C-21.47255615 335.74104004 -21.47255615 335.74104004 -22.59228516 335.41308594 C-33.40366816 332.1287967 -43.47727843 327.47612983 -53.375 322.0625 C-54.01711426 321.71316406 -54.65922852 321.36382813 -55.32080078 321.00390625 C-64.9485229 315.69273042 -73.32929394 309.54434993 -81.375 302.0625 C-82.0055127 301.48113281 -82.63602539 300.89976562 -83.28564453 300.30078125 C-114.92390082 270.81809847 -133.41495004 230.85435492 -135.54345703 187.64257812 C-136.50293575 158.59325603 -132.22872534 131.29087166 -119.375 105.0625 C-119.04661133 104.37736328 -118.71822266 103.69222656 -118.37988281 102.98632812 C-102.81696262 70.79635644 -74.10607539 41.67879371 -41.18969727 27.09423828 C-40.29142212 26.58352783 -40.29142212 26.58352783 -39.375 26.0625 C-38.6714804 23.49017668 -38.6714804 23.49017668 -38.5 20.5 C-37.46116066 13.08606114 -34.9599264 7.96225275 -29.0859375 3.2109375 C-20.3918203 -2.7644981 -9.93512411 -4.49630033 0 0 Z " fill="#026EB7" transform="translate(223.375,341.9375)"/>
<path d="M0 0 C1.22009766 0.45826172 1.22009766 0.45826172 2.46484375 0.92578125 C15.60050662 6.63242784 24.1585384 17.3043611 30 30 C31.24015767 33.29986009 32.22158485 36.56468025 33 40 C33.27070313 40.94746094 33.27070313 40.94746094 33.546875 41.9140625 C36.47843931 55.40936715 32.32453938 70.8230576 25.04296875 82.25 C15.77373522 94.72713271 4.34386845 102.2715199 -11 105 C-28.17763992 106.79600184 -42.64078812 102.66025013 -56.1875 91.8125 C-66.01728588 82.81675656 -72.71178827 68.56957481 -73.3359375 55.265625 C-73.66181895 37.14160303 -69.02754726 23.74982333 -56.4921875 10.328125 C-41.68739691 -3.50205555 -18.86823997 -7.42009437 0 0 Z " fill="#09161F" transform="translate(432,421)"/>
<path d="M0 0 C64.03896104 0 64.03896104 0 78.94921875 13.8046875 C90.54070103 25.92419826 92.58927134 40.29755794 92.3125 56.30078125 C91.77362393 70.01742246 86.06999137 81.86219677 76.0546875 91.25390625 C55.24100014 108.94158353 24.86542187 103 0 103 C0 69.01 0 35.02 0 0 Z " fill="#08151E" transform="translate(587,420)"/>
<path d="M0 0 C64.44372924 0 64.44372924 0 79.671875 14.4140625 C89.1727202 24.96701471 92.5779141 36.96737039 92.4375 50.875 C92.42920166 51.93420654 92.42090332 52.99341309 92.41235352 54.0847168 C92.13867044 66.72770598 88.51132703 75.84520166 81 86 C80.52304687 86.64710938 80.04609375 87.29421875 79.5546875 87.9609375 C75.86486616 92.23031193 71.25252241 94.73810574 66.3125 97.3125 C65.67771729 97.65047607 65.04293457 97.98845215 64.38891602 98.33666992 C45.9039484 107.41478671 16.86910727 103 0 103 C0 69.01 0 35.02 0 0 Z " fill="#08151E" transform="translate(698,420)"/>
<path d="M0 0 C8.25 0 16.5 0 25 0 C34.3960316 23.97652206 43.70854896 47.9826279 52.88232422 72.04516602 C53.60107809 73.92860882 54.31998665 75.8119926 55.0390625 77.6953125 C55.37980804 78.58852707 55.72055359 79.48174164 56.07162476 80.40202332 C58.62264828 87.06800255 61.26978311 93.69052325 63.98193359 100.29248047 C65 103 65 103 65 105 C57.74 105 50.48 105 43 105 C39.93867333 97.68683073 36.94504732 90.36261831 34 83 C19.81 82.67 5.62 82.34 -9 82 C-9.99 85.3 -10.98 88.6 -12 92 C-13.58583014 96.36885036 -15.29733783 100.67431774 -17 105 C-24.26 105 -31.52 105 -39 105 C-38.35219207 101.76096033 -37.80497557 99.18634572 -36.6875 96.18334961 C-36.28847725 95.10317314 -36.28847725 95.10317314 -35.88139343 94.00117493 C-35.5905336 93.22606064 -35.29967377 92.45094635 -35 91.65234375 C-34.69226151 90.82393478 -34.38452301 89.99552582 -34.06745911 89.14201355 C-33.04916488 86.40559201 -32.02486079 83.67146836 -31 80.9375 C-30.2860332 79.02523467 -29.57208492 77.11296243 -28.8581543 75.20068359 C-21.94132769 56.71171185 -14.83068972 38.29791204 -7.6789856 19.89875793 C-5.10327732 13.27194183 -2.54729407 6.63780318 0 0 Z " fill="#0A171F" transform="translate(836,419)"/>
<path d="M0 0 C6.6 0 13.2 0 20 0 C20.0093457 2.03784668 20.01869141 4.07569336 20.02832031 6.17529297 C20.06222791 12.94081824 20.11785246 19.70604291 20.18390274 26.47132683 C20.22325656 30.56944148 20.25550379 34.66734516 20.27099609 38.765625 C20.28624315 42.72758648 20.32082884 46.68896747 20.36830902 50.6506691 C20.38304051 52.15512138 20.39103624 53.65965659 20.39188385 55.16418076 C20.33038659 68.79164237 20.33038659 68.79164237 26.41143799 80.63644409 C31.4758152 85.16152985 36.29342494 86.29085806 42.9375 86.3125 C44.71447266 86.33763672 44.71447266 86.33763672 46.52734375 86.36328125 C51.88305098 85.80301042 55.79411226 83.81747574 59.25 79.6875 C59.96929688 78.85798828 59.96929688 78.85798828 60.703125 78.01171875 C63.75898637 73.27145187 64.25802157 68.52003694 64.31884766 62.98486328 C64.32889328 62.31099075 64.3389389 61.63711823 64.34928894 60.94282532 C64.37995844 58.73532902 64.39711023 56.52795307 64.4140625 54.3203125 C64.43278727 52.78188045 64.45236165 51.24345853 64.4727478 49.70504761 C64.5239369 45.67083728 64.56363304 41.63659371 64.60089111 37.60223389 C64.641014 33.4795315 64.69206842 29.35696584 64.7421875 25.234375 C64.83879016 17.1563368 64.92223341 9.07824152 65 1 C71.93 1 78.86 1 86 1 C86.06810195 9.91960919 86.12300268 18.8390423 86.15543652 27.75885391 C86.17101253 31.90183516 86.19210097 36.04462745 86.22631836 40.1875 C86.25920267 44.1945961 86.27691345 48.20151185 86.28463173 52.2087326 C86.2901236 53.72835881 86.30084592 55.24797649 86.31719017 56.76752472 C86.4651508 71.10974747 85.03355328 84.25537892 74.92578125 95.2578125 C65.40510106 104.26341226 56.12905835 106.19691204 43.4375 106.3125 C41.88579102 106.35600586 41.88579102 106.35600586 40.30273438 106.40039062 C28.07315103 106.49994265 18.87723228 102.53900774 10.09375 94.1875 C5.49481371 89.35471949 3.00291667 84.3318011 1 78 C0.82235611 77.44209778 0.64471222 76.88419556 0.46168518 76.30938721 C-0.17979184 73.10066646 -0.11908994 70.02488267 -0.11352539 66.75292969 C-0.11367142 66.03058136 -0.11381744 65.30823303 -0.1139679 64.56399536 C-0.11327284 62.18325772 -0.1054995 59.80259892 -0.09765625 57.421875 C-0.09579063 55.76849409 -0.0943674 54.11511262 -0.09336853 52.46173096 C-0.08955473 48.11505603 -0.07973415 43.76841463 -0.06866455 39.42175293 C-0.05842599 34.98429823 -0.05386567 30.54683811 -0.04882812 26.109375 C-0.03811086 17.40623291 -0.02052326 8.70312449 0 0 Z " fill="#08151E" transform="translate(481,419)"/>
<path d="M0 0 C8.61159416 6.03449487 15.05646677 14.45529841 17 25 C17.99774528 36.00791106 15.76160787 45.57148587 8.69140625 54.21875 C1.52208465 61.76889007 -6.07359721 65.06040964 -16.4375 65.4375 C-24.27264006 65.23612958 -31.6607602 63.10313235 -37.55859375 57.67578125 C-45.72176363 48.18526668 -48.50814351 39.12546993 -48.3125 26.7265625 C-47.5298851 17.39387979 -42.94367514 9.60921932 -36.15234375 3.27734375 C-25.55233719 -5.29959993 -11.954077 -6.94654238 0 0 Z " fill="#EDEEEE" transform="translate(428,441)"/>
<path d="M0 0 C32.50427215 0 32.50427215 0 42.28515625 8.16796875 C50.20837971 16.63264256 52.50495341 26.09899324 52.3125 37.4296875 C51.5579076 46.05090567 48.09579293 53.81973881 42 60 C29.39413628 70.207285 16.06089627 68 0 68 C0 45.56 0 23.12 0 0 Z " fill="#EDEDED" transform="translate(718,437)"/>
<path d="M0 0 C33.24070248 0 33.24070248 0 43.90234375 10.48828125 C51.68173991 19.80327516 52.68799266 29.22768118 52 41 C50.55987454 49.93365966 46.22791667 56.5138782 39.375 62.3125 C27.60621363 70.35559981 13.88345636 68 0 68 C0 45.56 0 23.12 0 0 Z " fill="#EEEEEE" transform="translate(607,437)"/>
<path d="M0 0 C7.1775 -0.1546875 7.1775 -0.1546875 14.5 -0.3125 C15.99337891 -0.35802002 17.48675781 -0.40354004 19.02539062 -0.45043945 C26.61810345 -0.52957276 32.25724057 -0.31439041 38 5 C40.95916747 8.24553852 41.89702118 10.90842452 42.3125 15.3125 C41.94292427 19.67349359 40.77856044 21.66572748 38 25 C37.01 25.33 36.02 25.66 35 26 C35 26.66 35 27.32 35 28 C35.7425 28.226875 36.485 28.45375 37.25 28.6875 C40.64440036 30.30755472 41.93401309 31.86629716 44 35 C44.98157258 40.76673891 44.80871837 46.22704049 42.375 51.5625 C37.70795924 56.35235762 34.70414983 57.8826417 28 59 C18.76 59 9.52 59 0 59 C0 39.53 0 20.06 0 0 Z " fill="#111F27" transform="translate(785,567)"/>
<path d="M0 0 C7.26 0 14.52 0 22 0 C22 33.99 22 67.98 22 103 C14.74 103 7.48 103 0 103 C0 69.01 0 35.02 0 0 Z " fill="#091822" transform="translate(917,421)"/>
<path d="M0 0 C3.3 0 6.6 0 10 0 C10 7.92 10 15.84 10 24 C19.24 24 28.48 24 38 24 C38 16.08 38 8.16 38 0 C41.3 0 44.6 0 48 0 C48 19.47 48 38.94 48 59 C44.7 59 41.4 59 38 59 C38 50.42 38 41.84 38 33 C28.76 33 19.52 33 10 33 C10 41.58 10 50.16 10 59 C6.7 59 3.4 59 0 59 C0 39.53 0 20.06 0 0 Z " fill="#18242B" transform="translate(655,567)"/>
<path d="M0 0 C3.3 0 6.6 0 10 0 C10 7.92 10 15.84 10 24 C19.24 24 28.48 24 38 24 C38 16.08 38 8.16 38 0 C41.3 0 44.6 0 48 0 C48 19.47 48 38.94 48 59 C44.7 59 41.4 59 38 59 C38 50.42 38 41.84 38 33 C28.76 33 19.52 33 10 33 C10 41.58 10 50.16 10 59 C6.7 59 3.4 59 0 59 C0 39.53 0 20.06 0 0 Z " fill="#121D24" transform="translate(563,567)"/>
<path d="M0 0 C3.36096178 2.73254666 6.11585667 5.54233261 7.859375 9.57421875 C6.859375 12.57421875 6.859375 12.57421875 3.921875 14.26171875 C0.859375 15.57421875 0.859375 15.57421875 -1.140625 15.57421875 C-2.21875 14.1484375 -2.21875 14.1484375 -3.390625 12.26171875 C-5.95173395 8.62612156 -7.7549218 6.90559294 -12.140625 5.57421875 C-19.20213642 4.75375593 -25.70630054 4.5153383 -31.55078125 8.98828125 C-36.68071877 14.1056145 -37.41429411 18.97193138 -37.640625 26.13671875 C-37.4200519 33.78832349 -36.30972567 37.56763606 -30.703125 42.88671875 C-25.28230565 46.45652661 -20.56599047 47.43093415 -14.140625 46.57421875 C-8.2028645 44.7343493 -5.0858445 41.97378784 -2.140625 36.57421875 C1.81758359 37.13967712 4.5252803 38.38324223 7.859375 40.57421875 C3.79714247 47.74286439 -0.97377391 53.44503227 -8.99609375 56.21484375 C-19.52254589 57.97883937 -29.41596103 56.93637766 -38.328125 51.01171875 C-43.61211224 46.79509693 -48.02453706 40.33140335 -49.140625 33.57421875 C-49.90337423 22.1329803 -49.27105546 13.5864704 -42.015625 4.32421875 C-31.10903888 -7.47750835 -13.17186555 -8.77323162 0 0 Z " fill="#0C171F" transform="translate(540.140625,570.42578125)"/>
<path d="M0 0 C3.3 0 6.6 0 10 0 C10.0093457 1.24088379 10.01869141 2.48176758 10.02832031 3.76025391 C10.06829283 8.37877866 10.13407207 12.99664238 10.20751953 17.61474609 C10.23568703 19.61075325 10.25692252 21.60687106 10.27099609 23.60302734 C10.29248403 26.47811364 10.33916426 29.35187529 10.390625 32.2265625 C10.39185364 33.11429352 10.39308228 34.00202454 10.39434814 34.91665649 C10.52645535 40.54713586 11.31906044 43.67485336 15 48 C19.86867222 50.89488618 24.93172722 50.46828818 30.3125 49.25 C33.06258503 48.2438261 33.06258503 48.2438261 34.3125 46.125 C35.4338167 42.65911202 36.12446097 39.52433322 36.20532227 35.87402344 C36.22526749 35.07349548 36.24521271 34.27296753 36.26576233 33.44818115 C36.28247482 32.59387512 36.29918732 31.73956909 36.31640625 30.859375 C36.33718735 29.97719299 36.35796844 29.09501099 36.37937927 28.18609619 C36.44464867 25.37414169 36.50365447 22.56209555 36.5625 19.75 C36.60570673 17.84113644 36.64932171 15.93228207 36.69335938 14.0234375 C36.80030687 9.34905174 36.90163785 4.67457398 37 0 C40.3 0 43.6 0 47 0 C47.12441814 5.94067917 47.21472356 11.88058531 47.2746582 17.82226562 C47.2996658 19.83965278 47.3336834 21.85695059 47.37719727 23.87402344 C47.84161061 45.96917144 47.84161061 45.96917144 42 53 C39.6484375 55.25390625 39.6484375 55.25390625 37.375 56.5625 C36.61960937 57.01753906 35.86421875 57.47257813 35.0859375 57.94140625 C28.71741966 61.17336942 20.91390193 61.14111037 14.1328125 59.1640625 C8.17200365 56.46448645 4.11442979 52.7806575 1 47 C0.13371347 44.13692052 -0.12230362 41.5832302 -0.11352539 38.59863281 C-0.11344986 37.7380426 -0.11337433 36.87745239 -0.11329651 35.99078369 C-0.10813522 35.07085632 -0.10297394 34.15092896 -0.09765625 33.203125 C-0.0962413 32.25435486 -0.09482635 31.30558472 -0.09336853 30.32806396 C-0.08777742 27.30201038 -0.07522652 24.27603117 -0.0625 21.25 C-0.05748385 19.19661565 -0.05292115 17.14323014 -0.04882812 15.08984375 C-0.03781089 10.05986724 -0.02055233 5.02994622 0 0 Z " fill="#0B171F" transform="translate(720,567)"/>
<path d="M0 0 C12.87 0 25.74 0 39 0 C39 2.64 39 5.28 39 8 C29.1 8 19.2 8 9 8 C9 13.28 9 18.56 9 24 C17.58 24 26.16 24 35 24 C35 26.97 35 29.94 35 33 C26.42 33 17.84 33 9 33 C9 38.94 9 44.88 9 51 C18.9 51 28.8 51 39 51 C39 53.64 39 56.28 39 59 C26.13 59 13.26 59 0 59 C0 39.53 0 20.06 0 0 Z " fill="#08131B" transform="translate(439,567)"/>
<path d="M0 0 C15.84 0 31.68 0 48 0 C48 2.64 48 5.28 48 8 C41.73 8 35.46 8 29 8 C29 24.83 29 41.66 29 59 C25.7 59 22.4 59 19 59 C19 42.17 19 25.34 19 8 C12.73 8 6.46 8 0 8 C0 5.36 0 2.72 0 0 Z " fill="#07141C" transform="translate(377,567)"/>
<path d="M0 0 C8.91 0 17.82 0 27 0 C27 0.33 27 0.66 27 1 C18.75 1 10.5 1 2 1 C2 19.48 2 37.96 2 57 C10.58 56.67 19.16 56.34 28 56 C28 55.34 28 54.68 28 54 C27.34 53.67 26.68 53.34 26 53 C25.67 53.66 25.34 54.32 25 55 C22.54104382 54.69188262 20.08291693 54.37871012 17.625 54.0625 C16.92632813 53.97548828 16.22765625 53.88847656 15.5078125 53.79882812 C10.2265625 53.11328125 10.2265625 53.11328125 8 52 C8 45.07 8 38.14 8 31 C8.33 31 8.66 31 9 31 C9 37.6 9 44.2 9 51 C11.68125 50.896875 14.3625 50.79375 17.125 50.6875 C17.95789551 50.66260498 18.79079102 50.63770996 19.64892578 50.61206055 C24.41423817 50.37839992 27.88455681 49.63313311 32 47 C34.42113313 43.36830031 34.18624932 41.99565739 33.54296875 37.87109375 C33.09859703 35.81246112 33.09859703 35.81246112 31.1875 34.0625 C26.82641195 31.94425723 22.56101073 31.74932477 17.75 31.4375 C16.48671875 31.35371094 15.2234375 31.26992188 13.921875 31.18359375 C12.47554687 31.09271484 12.47554687 31.09271484 11 31 C11 30.67 11 30.34 11 30 C16.61 30 22.22 30 28 30 C22.86994068 29.86923336 22.86994068 29.86923336 17.73901367 29.79223633 C15.79296875 29.70703125 15.79296875 29.70703125 12 29 C9.98828125 26.44921875 9.98828125 26.44921875 9 24 C10.15757812 23.98582031 11.31515625 23.97164062 12.5078125 23.95703125 C14.04691372 23.91010743 15.58597499 23.86186018 17.125 23.8125 C17.88554688 23.80669922 18.64609375 23.80089844 19.4296875 23.79492188 C25.267389 23.56845932 27.8735968 22.1329949 32 18 C32.495 18.99 32.495 18.99 33 20 C33.99 20 34.98 20 36 20 C38 22 38 22 38 25 C37.01 25.33 36.02 25.66 35 26 C35 26.66 35 27.32 35 28 C35.7425 28.226875 36.485 28.45375 37.25 28.6875 C40.64440036 30.30755472 41.93401309 31.86629716 44 35 C44.98157258 40.76673891 44.80871837 46.22704049 42.375 51.5625 C37.70795924 56.35235762 34.70414983 57.8826417 28 59 C18.76 59 9.52 59 0 59 C0 39.53 0 20.06 0 0 Z " fill="#060F16" transform="translate(785,567)"/>
<path d="M0 0 C3.3 0 6.6 0 10 0 C10 8.25 10 16.5 10 25 C19.24 25 28.48 25 38 25 C38 25.33 38 25.66 38 26 C34.7 26.33 31.4 26.66 28 27 C28.33 27.99 28.66 28.98 29 30 C32.3 30.33 35.6 30.66 39 31 C39 31.33 39 31.66 39 32 C29.43 32 19.86 32 10 32 C10 40.91 10 49.82 10 59 C6.7 59 3.4 59 0 59 C0 39.53 0 20.06 0 0 Z " fill="#081017" transform="translate(563,567)"/>
<path d="M0 0 C0.66 0 1.32 0 2 0 C2.17539307 0.54188965 2.35078613 1.0837793 2.53149414 1.64208984 C6.02111113 12.37885115 9.64065313 23.01520556 13.86547852 33.48779297 C16 38.80967838 16 38.80967838 16 41 C6.1 41 -3.8 41 -14 41 C-12.23914863 34.54354499 -10.60093564 28.56016779 -8.30078125 22.36328125 C-7.94091377 21.38780586 -7.94091377 21.38780586 -7.57377625 20.3926239 C-6.82437252 18.36427044 -6.0685944 16.33836754 -5.3125 14.3125 C-4.79579464 12.91747665 -4.27951574 11.52229526 -3.76367188 10.12695312 C-2.51401467 6.74947007 -1.25863864 3.37414799 0 0 Z " fill="#EDEDEE" transform="translate(848,443)"/>
<path d="M0 0 C7.26 0 14.52 0 22 0 C22 33.99 22 67.98 22 103 C14.74 103 7.48 103 0 103 C0 69.01 0 35.02 0 0 Z M2 1 C2 34 2 67 2 101 C7.94 101 13.88 101 20 101 C20 68 20 35 20 1 C14.06 1 8.12 1 2 1 Z " fill="#101316" transform="translate(917,421)"/>
<path d="M0 0 C4.5478125 -0.12375 4.5478125 -0.12375 9.1875 -0.25 C10.60712036 -0.30462402 10.60712036 -0.30462402 12.05541992 -0.36035156 C16.13339072 -0.41402616 18.4513754 -0.31862429 22.046875 1.76953125 C24.56063099 4.64024059 24.95771225 6.32975658 25.19921875 10.03515625 C24.86509679 13.33051598 23.41124367 14.84257146 21 17 C16.65024333 19.29858701 12.48494377 19.23560107 7.6875 19.125 C3.8821875 19.063125 3.8821875 19.063125 0 19 C0 12.73 0 6.46 0 0 Z " fill="#EFEFEF" transform="translate(795,599)"/>
<path d="M0 0 C2.97 0.495 2.97 0.495 6 1 C6 19.48 6 37.96 6 57 C4.02 57 2.04 57 0 57 C0 48.42 0 39.84 0 31 C-9.57 31 -19.14 31 -29 31 C-29 30.67 -29 30.34 -29 30 C-21.41 29.67 -13.82 29.34 -6 29 C-6 28.01 -6 27.02 -6 26 C-17.385 25.505 -17.385 25.505 -29 25 C-29 24.67 -29 24.34 -29 24 C-19.43 24 -9.86 24 0 24 C0 16.08 0 8.16 0 0 Z " fill="#07121A" transform="translate(694,568)"/>
<path d="M0 0 C9.9 0 19.8 0 30 0 C30.33 0.66 30.66 1.32 31 2 C28.28598706 3.35700647 26.15153684 3.1123861 23.1171875 3.09765625 C21.95058594 3.09443359 20.78398437 3.09121094 19.58203125 3.08789062 C18.35871094 3.07951172 17.13539063 3.07113281 15.875 3.0625 C14.64394531 3.05798828 13.41289062 3.05347656 12.14453125 3.04882812 C9.09630608 3.0370133 6.04817686 3.02054028 3 3 C3 6.63 3 10.26 3 14 C4.48113281 13.98839844 5.96226562 13.97679687 7.48828125 13.96484375 C9.42968624 13.95546498 11.37109259 13.94636487 13.3125 13.9375 C14.28896484 13.92912109 15.26542969 13.92074219 16.27148438 13.91210938 C17.20927734 13.90888672 18.14707031 13.90566406 19.11328125 13.90234375 C20.40939331 13.89448853 20.40939331 13.89448853 21.73168945 13.88647461 C24 14 24 14 27 15 C27 18.63 27 22.26 27 26 C24.49502996 27.25248502 22.79146726 27.11374406 19.9921875 27.09765625 C19.00605469 27.09443359 18.01992188 27.09121094 17.00390625 27.08789062 C15.97136719 27.07951172 14.93882812 27.07113281 13.875 27.0625 C12.31458984 27.05573242 12.31458984 27.05573242 10.72265625 27.04882812 C8.14841313 27.03701967 5.57419947 27.01908385 3 27 C3 31.29 3 35.58 3 40 C4.44632812 39.98839844 5.89265625 39.97679687 7.3828125 39.96484375 C9.2968737 39.9554611 11.21093631 39.94636141 13.125 39.9375 C14.55199219 39.92493164 14.55199219 39.92493164 16.0078125 39.91210938 C20.79018487 39.89550392 25.29771569 39.99462945 30 41 C30 41.66 30 42.32 30 43 C20.1 43 10.2 43 0 43 C0 37.06 0 31.12 0 25 C8.58 25 17.16 25 26 25 C26 22.03 26 19.06 26 16 C17.42 16 8.84 16 0 16 C0 10.72 0 5.44 0 0 Z " fill="#DFE0E1" transform="translate(448,575)"/>
<path d="M0 0 C2.75569447 2.18159145 4.43588747 3.87177494 6 7 C6.39447548 11.18144011 6.45035186 13.30946048 4.125 16.875 C1.26214372 19.73785628 -0.36716762 20.1865146 -4.3125 20.3125 C-7.79215473 20.27888015 -8.90980411 20.05449335 -12 18.1875 C-14.60565434 15.33756556 -14.95828582 13.45051314 -15.3125 9.625 C-14.94884973 5.40665686 -13.95115008 3.95115008 -11 1 C-7.52736727 -0.73631636 -3.78806987 -0.60190402 0 0 Z " fill="#EBEFF0" transform="translate(216,356)"/>
<path d="M0 0 C3.0625 1.4375 3.0625 1.4375 5 4 C6.03742844 7.08884061 6.35891712 9.75852977 6 13 C3.98545508 16.76048385 2.87314624 18.3607244 -1.12890625 19.7265625 C-5.45065598 20.47244824 -7.52900823 20.24390645 -11.5 18.1875 C-13.98528778 16.01287319 -14.83387711 15.20795071 -15.2734375 12.01171875 C-15.45602853 7.83319314 -15.35549816 5.580647 -13.125 1.9375 C-8.70932631 -0.80021769 -5.06338166 -0.86468258 0 0 Z " fill="#0B151E" transform="translate(919,396)"/>
<path d="M0 0 C3.6578218 2.03993908 5.66946174 3.50419262 8 7 C8.43660384 10.30571478 8.71042728 12.81419387 6.94921875 15.75390625 C4.25064576 19.05746905 2.50523547 20.82895052 -1.75 21.3125 C-5.85767229 20.91753151 -7.82926614 19.5942368 -11 17 C-13.34965355 13.79592697 -13.54561533 10.89725235 -13 7 C-9.56454715 1.49561271 -6.50626786 -0.62560268 0 0 Z " fill="#EEEEEF" transform="translate(311,484)"/>
<path d="M0 0 C3.125 1.9375 3.125 1.9375 5 5 C5.68486367 8.15608007 5.73056637 10.84943251 5 14 C2.81840855 16.75569447 1.12822506 18.43588747 -2 20 C-6.22672392 20.04079849 -9.88623137 19.69610539 -13.5 17.4375 C-15.59942212 14.02593906 -16.34607108 11.00673411 -16 7 C-12.1065751 -0.38408171 -7.9248667 -1.05747829 0 0 Z " fill="#0B161E" transform="translate(951,396)"/>
<path d="M0 0 C3.18707586 2.10211387 4.69636793 3.59915202 5.515625 7.37890625 C5.74407075 10.86270399 5.78189962 13.72052789 3.92578125 16.7578125 C1.24137215 19.33190342 -1.45115808 20.33636284 -5.0625 20.5625 C-9.36116046 19.94840565 -11.01296996 19.0775461 -14 16 C-15.61540873 12.76918255 -15.5896275 9.49240902 -15 6 C-11.37660818 -0.53329722 -7.05387839 -1.7026603 0 0 Z " fill="#EBEFF0" transform="translate(282,405)"/>
<path d="M0 0 C3.8053125 -0.12375 3.8053125 -0.12375 7.6875 -0.25 C8.87218872 -0.30462402 8.87218872 -0.30462402 10.08081055 -0.36035156 C13.82478729 -0.41905091 15.67280689 -0.19382868 18.98046875 1.765625 C21.09036541 4.09997875 21.6852326 4.91609094 21.625 8 C21.63789062 8.66 21.65078125 9.32 21.6640625 10 C20.58539206 13.24870157 18.91135027 14.27532068 16 16 C13.20078309 16.46081178 10.51418137 16.38033357 7.6875 16.25 C5.150625 16.1675 2.61375 16.085 0 16 C0 10.72 0 5.44 0 0 Z " fill="#F1F1F2" transform="translate(795,575)"/>
<path d="M0 0 C13.86 0 27.72 0 42 0 C42 0.33 42 0.66 42 1 C28.47 1 14.94 1 1 1 C1.01160156 6.04152344 1.02320313 11.08304687 1.03515625 16.27734375 C1.04026313 19.4628919 1.04507691 22.64843504 1.04882812 25.83398438 C1.05481611 30.89511152 1.06191521 35.95622064 1.07543945 41.01733398 C1.08626991 45.09568543 1.09227717 49.17401757 1.09487724 53.25238228 C1.09673121 54.81177639 1.10035127 56.3711694 1.10573006 57.93055534 C1.11294262 60.10729162 1.11399085 62.28394714 1.11352539 64.46069336 C1.115746 65.70201523 1.11796661 66.9433371 1.12025452 68.22227478 C1 71 1 71 0 72 C-0.15888092 74.28988781 -0.25138073 76.58443441 -0.31640625 78.87890625 C-0.33718735 79.5655687 -0.35796844 80.25223114 -0.37937927 80.95970154 C-0.44494143 83.16052935 -0.50379015 85.36147975 -0.5625 87.5625 C-0.60567892 89.05144514 -0.649293 90.54037773 -0.69335938 92.02929688 C-0.8006293 95.68606553 -0.90187772 99.34297318 -1 103 C-1.33 103 -1.66 103 -2 103 C-2.04635069 90.45641077 -2.08188317 77.91284194 -2.10362434 65.36918449 C-2.11405926 59.54459482 -2.12821328 53.72006376 -2.15087891 47.89550781 C-2.17261748 42.27397206 -2.18457082 36.65249267 -2.18975449 31.03091812 C-2.1934484 28.88673134 -2.20066166 26.74254763 -2.21146011 24.59838486 C-2.22598836 21.59400528 -2.22797736 18.58985831 -2.22705078 15.58544922 C-2.23424133 14.69999924 -2.24143188 13.81454926 -2.24884033 12.90226746 C-2.246091 12.07784653 -2.24334167 11.2534256 -2.24050903 10.40402222 C-2.24235262 9.69424162 -2.24419621 8.98446102 -2.24609566 8.25317192 C-2 6 -2 6 0 0 Z " fill="#E3E4E5" transform="translate(586,419)"/>
<path d="M0 0 C5.0277657 2.91610411 8.14915726 5.44747179 10 11 C10.45528455 17.2601626 10.45528455 17.2601626 8.5 20.4375 C8.005 20.953125 7.51 21.46875 7 22 C6.01 21.67 5.02 21.34 4 21 C4 20.34 4 19.68 4 19 C2.68 19.33 1.36 19.66 0 20 C-0.09796875 19.38511719 -0.1959375 18.77023437 -0.296875 18.13671875 C-1.12596175 13.09506893 -1.12596175 13.09506893 -3.9375 9 C-8.68319222 6.69905832 -13.19694698 6.67115527 -18.3828125 6.37890625 C-19.24648438 6.25386719 -20.11015625 6.12882813 -21 6 C-21.33 5.34 -21.66 4.68 -22 4 C-21.15695312 3.96261719 -20.31390625 3.92523437 -19.4453125 3.88671875 C-17.80175781 3.78810547 -17.80175781 3.78810547 -16.125 3.6875 C-14.48917969 3.60048828 -14.48917969 3.60048828 -12.8203125 3.51171875 C-11.88960937 3.34285156 -10.95890625 3.17398438 -10 3 C-9.34 2.01 -8.68 1.02 -8 0 C-4.57086463 -1.14304512 -3.41406669 -1.0321597 0 0 Z " fill="#0D171F" transform="translate(817,568)"/>
<path d="M0 0 C31.53221957 0 31.53221957 0 37.828125 5.63671875 C38.21484375 6.08660156 38.6015625 6.53648437 39 7 C34.82412255 8.39195915 32.86525224 6.82323219 29 5 C29 4.34 29 3.68 29 3 C20.42 3 11.84 3 3 3 C3.01571045 4.8979834 3.0314209 6.7959668 3.04760742 8.75146484 C3.09593169 15.01391815 3.13043092 21.27632741 3.15543652 27.53891563 C3.17111006 31.33692183 3.19237859 35.13472681 3.22631836 38.93261719 C3.25885241 42.59602467 3.27684029 46.25923831 3.28463173 49.92277908 C3.29018603 51.3222827 3.30103199 52.72177539 3.31719017 54.12119675 C3.33888273 56.07727511 3.3402247 58.03354748 3.34057617 59.98974609 C3.34723801 61.1044931 3.35389984 62.21924011 3.36076355 63.36776733 C3.24171158 64.23640411 3.12265961 65.10504089 3 66 C1.515 66.99 1.515 66.99 0 68 C0 45.56 0 23.12 0 0 Z " fill="#D5D8DA" transform="translate(607,437)"/>
<path d="M0 0 C23 0 23 0 30 2 C29.67 2.66 29.34 3.32 29 4 C27.68 3.67 26.36 3.34 25 3 C13.615 2.505 13.615 2.505 2 2 C2.33 23.12 2.66 44.24 3 66 C8.28 66 13.56 66 19 66 C18.67 66.66 18.34 67.32 18 68 C12.06 68 6.12 68 0 68 C0 45.56 0 23.12 0 0 Z " fill="#D2D5D7" transform="translate(718,437)"/>
<path d="M0 0 C8.91 0 17.82 0 27 0 C27 0.33 27 0.66 27 1 C18.75 1 10.5 1 2 1 C2 19.48 2 37.96 2 57 C17.345 56.505 17.345 56.505 33 56 C33 56.66 33 57.32 33 58 C22.20866128 60.15826774 11.00504935 59 0 59 C0 39.53 0 20.06 0 0 Z " fill="#000204" transform="translate(785,567)"/>
<path d="M0 0 C15.84 0 31.68 0 48 0 C48 2.64 48 5.28 48 8 C41.73 8 35.46 8 29 8 C29 24.83 29 41.66 29 59 C28.67 59 28.34 59 28 59 C28 41.84 28 24.68 28 7 C33.94 7 39.88 7 46 7 C46 5.35 46 3.7 46 2 C31.15 2 16.3 2 1 2 C1 3.65 1 5.3 1 7 C2.98 7 4.96 7 7 7 C7 7.33 7 7.66 7 8 C4.69 8 2.38 8 0 8 C0 5.36 0 2.72 0 0 Z " fill="#1F2225" transform="translate(377,567)"/>
<path d="M0 0 C2.97 0 5.94 0 9 0 C9 8.25 9 16.5 9 25 C8.67 25 8.34 25 8 25 C8 17.41 8 9.82 8 2 C6.02 2 4.04 2 2 2 C2 20.48 2 38.96 2 58 C3.98 58 5.96 58 8 58 C8 49.42 8 40.84 8 32 C8.33 32 8.66 32 9 32 C9 40.91 9 49.82 9 59 C6.03 59 3.06 59 0 59 C0 39.53 0 20.06 0 0 Z " fill="#010508" transform="translate(655,567)"/>
<path d="M0 0 C0.5775 0.763125 1.155 1.52625 1.75 2.3125 C3.7270537 4.67398081 5.53447072 6.21461673 8 8 C8.33 8.66 8.66 9.32 9 10 C8.34 10 7.68 10 7 10 C6.67 44.98 6.34 79.96 6 116 C5.67 116 5.34 116 5 116 C4.67 81.68 4.34 47.36 4 12 C-4.91 11.67 -13.82 11.34 -23 11 C-19.31422423 9.15711212 -18.27877347 8.75298955 -14.453125 8.8046875 C-13.18662109 8.81435547 -13.18662109 8.81435547 -11.89453125 8.82421875 C-11.02183594 8.84097656 -10.14914062 8.85773438 -9.25 8.875 C-7.91775391 8.88853516 -7.91775391 8.88853516 -6.55859375 8.90234375 C-4.37211942 8.92585423 -2.18619906 8.95871501 0 9 C0.1315587 6.12607709 0.1315587 6.12607709 -0.5625 3.9375 C-1 2 -1 2 0 0 Z " fill="#E6E6E8" transform="translate(935,408)"/>
<path d="M0 0 C1.77218729 0.04235793 3.54424443 0.09038445 5.31616211 0.14282227 C6.24698105 0.16643326 7.17779999 0.19004425 8.13682556 0.21437073 C11.12253311 0.29120977 14.10799434 0.37514647 17.09350586 0.45922852 C19.11237384 0.51242896 21.131254 0.56516947 23.15014648 0.61743164 C28.1105902 0.74685216 33.07082419 0.88264032 38.03100586 1.02172852 C38.03100586 1.35172852 38.03100586 1.68172852 38.03100586 2.02172852 C24.50100586 2.02172852 10.97100586 2.02172852 -2.96899414 2.02172852 C-2.96899414 23.14172852 -2.96899414 44.26172852 -2.96899414 66.02172852 C-3.62899414 66.02172852 -4.28899414 66.02172852 -4.96899414 66.02172852 C-4.99212073 57.56405518 -5.00991084 49.10639495 -5.02080631 40.64869785 C-5.02603445 36.72184193 -5.03313083 32.79500757 -5.04443359 28.86816406 C-5.05526494 25.08158594 -5.0612715 21.29502862 -5.06387138 17.5084362 C-5.06572519 16.06068532 -5.06934495 14.61293563 -5.0747242 13.16519356 C-5.08193781 11.14415717 -5.08240222 9.12310004 -5.08251953 7.10205078 C-5.08474014 5.94955338 -5.08696075 4.79705597 -5.08924866 3.6096344 C-4.89387827 -0.59478302 -4.44046196 0.0243096 0 0 Z " fill="#E2E4E5" transform="translate(700.968994140625,417.978271484375)"/>
<path d="M0 0 C0.33 0 0.66 0 1 0 C1 2.64 1 5.28 1 8 C7.6 8 14.2 8 21 8 C21 24.83 21 41.66 21 59 C19.515 59.495 19.515 59.495 18 60 C18 43.83 18 27.66 18 11 C12.39 10.67 6.78 10.34 1 10 C0 9 0 9 -0.09765625 6.93359375 C-0.08605469 6.10988281 -0.07445312 5.28617188 -0.0625 4.4375 C-0.05347656 3.61121094 -0.04445313 2.78492188 -0.03515625 1.93359375 C-0.02355469 1.29550781 -0.01195312 0.65742187 0 0 Z " fill="#E5E7E8" transform="translate(375,567)"/>
<path d="M0 0 C0.33 0.66 0.66 1.32 1 2 C5.455 1.505 5.455 1.505 10 1 C9.67 1.99 9.34 2.98 9 4 C10.32 3.67 11.64 3.34 13 3 C15.36423418 7.22184674 17.4520461 11.50163806 16.5625 16.41796875 C15.84884708 18.75592545 15.19543303 20.86562532 14 23 C13.01 23.33 12.02 23.66 11 24 C10.34 24.66 9.68 25.32 9 26 C9 25.34 9 24.68 9 24 C8.34 24.33 7.68 24.66 7 25 C2.22744077 25.39771327 -0.08482672 25.47453429 -4.375 23.25 C-8.13513514 20.02702703 -8.13513514 20.02702703 -9 17 C-9.328125 10.65625 -9.328125 10.65625 -8 8 C-8.66 8 -9.32 8 -10 8 C-10 7.34 -10 6.68 -10 6 C-9.401875 5.9175 -8.80375 5.835 -8.1875 5.75 C-5.38926857 4.79060637 -4.69589407 3.35950479 -3 1 C-2.01 0.67 -1.02 0.34 0 0 Z M-7 8 C-8.43304064 10.86608129 -8.30644155 12.81300783 -8 16 C-6.34976991 19.06471302 -4.943924 21.30778907 -2.125 23.375 C0.85516446 24.25151896 2.89838626 24.43422592 6 24 C8.92483867 22.17452064 11.43429205 20.13141589 13 17 C13.38482057 12.92090194 13.44121857 10.70910127 11.25 7.1875 C8.18388248 4.20655241 6.34605804 3.20483492 2.125 2.5625 C-2.2682371 3.17755319 -3.84565969 4.91901645 -7 8 Z " fill="#074587" transform="translate(306,481)"/>
<path d="M0 0 C3.3 0 6.6 0 10 0 C10.09931654 5.97732771 10.17167995 11.9541688 10.21972656 17.93212891 C10.23976836 19.96313857 10.26700947 21.99409106 10.30175781 24.02490234 C10.35060414 26.95424556 10.37304343 29.882822 10.390625 32.8125 C10.41127014 33.71178223 10.43191528 34.61106445 10.45318604 35.53759766 C10.45536991 41.75610673 9.15366578 45.63112954 6 51 C5.67 50.34 5.34 49.68 5 49 C5.45125244 47.99996948 5.45125244 47.99996948 5.91162109 46.97973633 C7.45128301 42.76448874 7.35641576 38.78023128 7.4140625 34.32421875 C7.43342865 33.3990596 7.4527948 32.47390045 7.4727478 31.52070618 C7.53235254 28.57639683 7.57885248 25.63204798 7.625 22.6875 C7.66319736 20.68683225 7.70225012 18.68618064 7.7421875 16.68554688 C7.83803841 11.7904962 7.92214 6.89536855 8 2 C5.69 2 3.38 2 1 2 C1 15.2 1 28.4 1 42 C0.67 42 0.34 42 0 42 C0 28.14 0 14.28 0 0 Z " fill="#020306" transform="translate(757,567)"/>
<path d="M0 0 C0.99 0.66 1.98 1.32 3 2 C2.31292969 2.44730469 1.62585938 2.89460938 0.91796875 3.35546875 C0.01691406 3.96003906 -0.88414062 4.56460937 -1.8125 5.1875 C-2.70582031 5.77917969 -3.59914062 6.37085938 -4.51953125 6.98046875 C-7.15976043 9.13007267 -8.55436983 10.93051128 -10 14 C-9.814375 14.845625 -9.62875 15.69125 -9.4375 16.5625 C-9.293125 17.366875 -9.14875 18.17125 -9 19 C-10.31129922 20.35500919 -11.64691687 21.68671343 -13 23 C-13.35919321 24.99551782 -13.69496569 26.99548879 -14 29 C-14.99 29.66 -15.98 30.32 -17 31 C-17.99 32.485 -17.99 32.485 -19 34 C-19.99 34 -20.98 34 -22 34 C-23.67099977 34.31088368 -25.33871537 34.64080332 -27 35 C-25.51792829 31.23306773 -25.51792829 31.23306773 -23.125 30.15625 C-22.42375 29.9396875 -21.7225 29.723125 -21 29.5 C-18.76800053 28.60370632 -18.76800053 28.60370632 -17 27 C-16.13702111 24.03295402 -15.86009585 21.17501337 -15.52734375 18.10546875 C-14.50745596 12.09946285 -11.33572639 7.84038474 -6.60546875 4.11328125 C-4.44330772 2.65254569 -2.26952291 1.28606298 0 0 Z " fill="#0A8ACB" transform="translate(201,341)"/>
<path d="M0 0 C1.98 0.99 1.98 0.99 4 2 C3.01 2 2.02 2 1 2 C1.33 15.86 1.66 29.72 2 44 C3.32 43.34 4.64 42.68 6 42 C6.33 42 6.66 42 7 42 C7 46.95 7 51.9 7 57 C4.69 57 2.38 57 0 57 C0 38.19 0 19.38 0 0 Z " fill="#0D1B25" transform="translate(565,568)"/>
<path d="M0 0 C14.19 0 28.38 0 43 0 C43.495 1.98 43.495 1.98 44 4 C29.48 4 14.96 4 0 4 C0 2.68 0 1.36 0 0 Z " fill="#E1E3E5" transform="translate(827,501)"/>
<path d="M0 0 C8.91 0 17.82 0 27 0 C27 0.33 27 0.66 27 1 C19.08 1 11.16 1 3 1 C3.07910641 8.80848837 3.07910641 8.80848837 3.18017578 16.61669922 C3.18766846 18.07100342 3.18766846 18.07100342 3.1953125 19.5546875 C3.20578613 20.54968262 3.21625977 21.54467773 3.22705078 22.56982422 C3 25 3 25 1 27 C-1.8203125 27.1953125 -1.8203125 27.1953125 -5.125 27.125 C-6.22070312 27.10695313 -7.31640625 27.08890625 -8.4453125 27.0703125 C-9.28835938 27.04710937 -10.13140625 27.02390625 -11 27 C-10.67 25.68 -10.34 24.36 -10 23 C-10 23.66 -10 24.32 -10 25 C-6.7 25 -3.4 25 0 25 C0 16.75 0 8.5 0 0 Z " fill="#E4E6E7" transform="translate(573,601)"/>
<path d="M0 0 C1.9140625 0.81640625 1.9140625 0.81640625 4.6015625 2.31640625 C3.2815625 2.64640625 1.9615625 2.97640625 0.6015625 3.31640625 C0.2715625 2.65640625 -0.0584375 1.99640625 -0.3984375 1.31640625 C-2.92576985 0.66085506 -2.92576985 0.66085506 -5.3984375 0.31640625 C-5.7284375 0.97640625 -6.0584375 1.63640625 -6.3984375 2.31640625 C-7.3884375 2.31640625 -8.3784375 2.31640625 -9.3984375 2.31640625 C-13.4374225 2.49591669 -15.70157732 3.25587156 -18.5859375 6.00390625 C-22.10450918 9.87341159 -24.29014526 13.36714602 -24.5859375 18.69140625 C-24.5240625 19.55765625 -24.4621875 20.42390625 -24.3984375 21.31640625 C-25.0584375 21.64640625 -25.7184375 21.97640625 -26.3984375 22.31640625 C-27.40878894 17.91678497 -28.12367414 14.04787527 -26.33984375 9.7890625 C-19.9552066 -0.17760484 -11.62332369 -3.31283656 0 0 Z " fill="#088CD2" transform="translate(217.3984375,413.68359375)"/>
<path d="M0 0 C0 0.66 0 1.32 0 2 C0.99 2.33 1.98 2.66 3 3 C5.62269945 7.80828232 6.42668163 10.92955815 5.1875 16.3125 C4.21297435 19.03113378 3.55688342 20.57392812 1.25390625 22.3359375 C-3.38118818 24.30562675 -7.16652114 24.10767224 -12 23 C-12 22.67 -12 22.34 -12 22 C-11.31292969 21.89042969 -10.62585938 21.78085937 -9.91796875 21.66796875 C-9.01691406 21.50941406 -8.11585938 21.35085938 -7.1875 21.1875 C-6.29417969 21.03667969 -5.40085937 20.88585937 -4.48046875 20.73046875 C-1.72539866 19.91913315 -0.61899147 19.3621351 1 17 C1.39991425 14.59084105 1.39991425 14.59084105 1.25 12 C1.23453125 11.13375 1.2190625 10.2675 1.203125 9.375 C1.0807181 6.85176221 1.0807181 6.85176221 0 4 C-2.50447516 2.78130071 -2.50447516 2.78130071 -5 2 C-5 1.34 -5 0.68 -5 0 C-6.98 0 -8.96 0 -11 0 C-11 -0.33 -11 -0.66 -11 -1 C-3.57142857 -2.42857143 -3.57142857 -2.42857143 0 0 Z " fill="#0E78BB" transform="translate(285,403)"/>
<path d="M0 0 C0.66 0.66 1.32 1.32 2 2 C-0.97 2.66 -3.94 3.32 -7 4 C-6.34 5.32 -5.68 6.64 -5 8 C-5.639375 8.2475 -6.27875 8.495 -6.9375 8.75 C-9.11372785 9.82890009 -9.11372785 9.82890009 -10 11.875 C-10.18847742 14.13077511 -10.18847742 14.13077511 -8.625 16.1875 C-4.92420846 18.74280844 -1.41195606 18.81145487 3 19 C1 21 1 21 -1.75 21.375 C-5.82714387 20.90456032 -7.84352644 19.58256928 -11 17 C-13.34965355 13.79592697 -13.54561533 10.89725235 -13 7 C-9.51039969 1.40885601 -6.55009489 -0.40938093 0 0 Z " fill="#E1EBF0" transform="translate(311,484)"/>
<path d="M0 0 C3.04387155 1.01462385 6.08724665 2.02966386 9.125 3.0625 C11.8822789 4.01573672 11.8822789 4.01573672 14.3125 4.5 C14.869375 4.665 15.42625 4.83 16 5 C16.33 5.66 16.66 6.32 17 7 C19.32156597 7.40729228 21.6568787 7.74438677 24 8 C24 8.66 24 9.32 24 10 C25.98 10 27.96 10 30 10 C30 10.66 30 11.32 30 12 C30.95261719 12.12117187 31.90523437 12.24234375 32.88671875 12.3671875 C34.14097656 12.53476562 35.39523438 12.70234375 36.6875 12.875 C37.92886719 13.03742187 39.17023438 13.19984375 40.44921875 13.3671875 C43.57795295 13.92478369 46.12148102 14.69008123 49 16 C49 16.33 49 16.66 49 17 C31.68152939 17.25099233 14.8912891 9.10911783 0 1 C0 0.67 0 0.34 0 0 Z " fill="#0F4284" transform="translate(170,663)"/>
<path d="M0 0 C1 2 1 2 0.3125 5.375 C-1 9 -1 9 -2.98046875 10.87109375 C-5.40448779 13.42639429 -5.86937568 15.27808663 -6.625 18.6875 C-7.02680976 20.47200807 -7.47305941 22.24835684 -8 24 C-8.66 24.33 -9.32 24.66 -10 25 C-10 26.65 -10 28.3 -10 30 C-10.66 30.33 -11.32 30.66 -12 31 C-11.67 32.32 -11.34 33.64 -11 35 C-11.99 35.495 -11.99 35.495 -13 36 C-13.91485573 38.80478195 -13.91485573 38.80478195 -14.625 42.0625 C-14.88539063 43.16722656 -15.14578125 44.27195312 -15.4140625 45.41015625 C-15.60742188 46.26480469 -15.80078125 47.11945312 -16 48 C-16.33 48 -16.66 48 -17 48 C-16.37139419 34.79927789 -12.07750987 22.39828663 -6.234375 10.63671875 C-4.95438671 8.1270521 -4.95438671 8.1270521 -4.45703125 5.78515625 C-3.77265392 3.1119901 -2.00165974 1.80795074 0 0 Z " fill="#0283CF" transform="translate(152,475)"/>
<path d="M0 0 C0.33 0 0.66 0 1 0 C1 3.3 1 6.6 1 10 C1.66 10.33 2.32 10.66 3 11 C3 16.28 3 21.56 3 27 C3.66 27 4.32 27 5 27 C4.814375 27.928125 4.62875 28.85625 4.4375 29.8125 C3.75876119 33.01343771 3.75876119 33.01343771 5 36 C5.35543427 38.33006911 5.6913753 40.66327016 6 43 C6.66 43 7.32 43 8 43 C8.33 43.99 8.66 44.98 9 46 C8.34 46 7.68 46 7 46 C6.67 46.99 6.34 47.98 6 49 C5.18608745 46.41710408 4.37382071 43.83371003 3.5625 41.25 C3.33240234 40.52039063 3.10230469 39.79078125 2.86523438 39.0390625 C2.53168945 37.97558594 2.53168945 37.97558594 2.19140625 36.890625 C1.98717041 36.24125977 1.78293457 35.59189453 1.57250977 34.92285156 C1.38358154 34.28831055 1.19465332 33.65376953 1 33 C0.81244141 32.39865234 0.62488281 31.79730469 0.43164062 31.17773438 C-0.16184016 28.1834761 -0.11103954 25.3170141 -0.09765625 22.265625 C-0.09443359 20.97011719 -0.09121094 19.67460938 -0.08789062 18.33984375 C-0.07953598 16.97656183 -0.07107104 15.61328058 -0.0625 14.25 C-0.05748168 12.87109535 -0.05291935 11.49218896 -0.04882812 10.11328125 C-0.03704093 6.74214341 -0.02058635 3.37109372 0 0 Z " fill="#07468A" transform="translate(178,541)"/>
<path d="M0 0 C8.25 0 16.5 0 25 0 C25 2.31 25 4.62 25 7 C16.42 7 7.84 7 -1 7 C-1 6.67 -1 6.34 -1 6 C6.59 6 14.18 6 22 6 C22 5.01 22 4.02 22 3 C14.41 3 6.82 3 -1 3 C-0.67 2.01 -0.34 1.02 0 0 Z " fill="#202C35" transform="translate(449,591)"/>
<path d="M0 0 C2.475 0.495 2.475 0.495 5 1 C-4.8141957 11.66760402 -21.88255003 17.80506078 -36 20 C-38.33301986 20.03824623 -40.66711508 20.04574284 -43 20 C-43 19.67 -43 19.34 -43 19 C-41.85144531 18.76925781 -40.70289063 18.53851562 -39.51953125 18.30078125 C-22.93446258 15.7604107 -22.93446258 15.7604107 -10 7 C-9.01 7.33 -8.02 7.66 -7 8 C-7 7.01 -7 6.02 -7 5 C-3.535 3.515 -3.535 3.515 0 2 C0 1.34 0 0.68 0 0 Z " fill="#0A397C" transform="translate(297,661)"/>
<path d="M0 0 C0.33 0.66 0.66 1.32 1 2 C-4.64770019 9.48534667 -10.4026111 16.81412576 -16.5949707 23.86010742 C-19.197155 26.53870163 -19.197155 26.53870163 -20 30 C-18.70766393 31.37310707 -17.37562854 32.71034824 -16 34 C-17.65 33.67 -19.3 33.34 -21 33 C-21.66 30.36 -22.32 27.72 -23 25 C-21.68 24.67 -20.36 24.34 -19 24 C-17.89163577 22.11683841 -17.89163577 22.11683841 -17 20 C-15.375 18.25 -15.375 18.25 -14 17 C-14.33 16.34 -14.66 15.68 -15 15 C-14.195625 14.7525 -13.39125 14.505 -12.5625 14.25 C-11.716875 13.8375 -10.87125 13.425 -10 13 C-9.34786708 10.97536745 -9.34786708 10.97536745 -9 9 C-8.01 8.67 -7.02 8.34 -6 8 C-6.33 6.68 -6.66 5.36 -7 4 C-5.02 3.67 -3.04 3.34 -1 3 C-0.67 2.01 -0.34 1.02 0 0 Z " fill="#094186" transform="translate(295,590)"/>
<path d="M0 0 C4.33551805 5.46652276 4.53963466 10.22022632 4 17 C2.77786803 23.11065987 0.77294956 27.00104226 -4 31 C-3.91214662 29.58222818 -3.80395353 28.16570961 -3.6875 26.75 C-3.62949219 25.96109375 -3.57148438 25.1721875 -3.51171875 24.359375 C-3 22 -3 22 -1.46875 20.28125 C0.86541875 16.65583896 0.31572674 12.95846725 0.1875 8.75 C0.16719727 7.48929687 0.16719727 7.48929687 0.14648438 6.203125 C0.11123464 4.13514062 0.0574302 2.06748729 0 0 Z " fill="#0C4C8A" transform="translate(332,482)"/>
<path d="M0 0 C0.33 0.99 0.66 1.98 1 3 C1.66 3 2.32 3 3 3 C3.38671875 3.84304688 3.7734375 4.68609375 4.171875 5.5546875 C4.95304688 7.19824219 4.95304688 7.19824219 5.75 8.875 C6.26046875 9.96554687 6.7709375 11.05609375 7.296875 12.1796875 C9.02537809 15.04202519 9.89999181 15.93521458 13 17 C12 20 12 20 10 21 C10.66 21.66 11.32 22.32 12 23 C12.625 25.125 12.625 25.125 13 27 C6.41211113 20.96867415 1.17250727 12.11766761 0.0625 3.125 C0.041875 2.09375 0.02125 1.0625 0 0 Z " fill="#0560AC" transform="translate(226,584)"/>
<path d="M0 0 C0.33 0 0.66 0 1 0 C1.34574608 2.90426705 1.58374009 5.11804487 -0.078125 7.62890625 C-1.36481471 9.10416255 -2.68161833 10.55299573 -4 12 C-4.33 12.99 -4.66 13.98 -5 15 C-7.58072903 17.32265612 -8.45176068 18 -12 18 C-12.28875 18.639375 -12.5775 19.27875 -12.875 19.9375 C-14 22 -14 22 -16 23 C-14.59195334 19.99811392 -12.94319563 17.38827168 -10.99609375 14.70703125 C-10.42052734 13.91232422 -9.84496094 13.11761719 -9.25195312 12.29882812 C-8.35379883 11.0680957 -8.35379883 11.0680957 -7.4375 9.8125 C-6.83486328 8.98041016 -6.23222656 8.14832031 -5.61132812 7.29101562 C-1.15715681 1.15715681 -1.15715681 1.15715681 0 0 Z " fill="#084E94" transform="translate(290,569)"/>
<path d="M0 0 C0.66 0.33 1.32 0.66 2 1 C1.4946875 1.34933594 0.989375 1.69867188 0.46875 2.05859375 C-0.1809375 2.51363281 -0.830625 2.96867187 -1.5 3.4375 C-2.1496875 3.88996094 -2.799375 4.34242188 -3.46875 4.80859375 C-3.9740625 5.20175781 -4.479375 5.59492188 -5 6 C-5 6.33 -5 6.66 -5 7 C-13.59141782 7.43995881 -20.46853452 7.46309065 -28 3 C-27.67 2.34 -27.34 1.68 -27 1 C-25.6078125 1.2784375 -25.6078125 1.2784375 -24.1875 1.5625 C-20.98656229 2.24123881 -20.98656229 2.24123881 -18 1 C-18 1.66 -18 2.32 -18 3 C-13.10676817 4.63107728 -7.94922324 4.4556539 -3 3 C-2.67 2.34 -2.34 1.68 -2 1 C-1.34 0.67 -0.68 0.34 0 0 Z " fill="#0889D0" transform="translate(223,449)"/>
<path d="M0 0 C0.66 0.66 1.32 1.32 2 2 C1.79296875 4.13671875 1.79296875 4.13671875 1.1875 6.6875 C0.48084458 9.81309128 -0.16659523 12.88206499 -0.5625 16.0625 C-1 19 -1 19 -2 20 C-2.03179788 23.04351168 -1.93147433 26.07505225 -1.83984375 29.1171875 C-2 32 -2 32 -4 35 C-5.72596912 12.49242974 -5.72596912 12.49242974 -3 5 C-2.34 4.67 -1.68 4.34 -1 4 C-0.34786708 1.97536745 -0.34786708 1.97536745 0 0 Z " fill="#0C86CD" transform="translate(94,479)"/>
<path d="M0 0 C1 3 1 3 0.0625 5.5625 C-2.68522589 14.45220142 -0.66847732 22.63243636 3 31 C4.53606457 33.27620643 4.53606457 33.27620643 6 35 C5.67 35.66 5.34 36.32 5 37 C-2.75060736 29.45886851 -2.75060736 29.45886851 -3.38818359 25.72924805 C-3.39156738 24.91496338 -3.39495117 24.10067871 -3.3984375 23.26171875 C-3.40230469 22.35873047 -3.40617188 21.45574219 -3.41015625 20.52539062 C-3.39855469 19.58888672 -3.38695312 18.65238281 -3.375 17.6875 C-3.38660156 16.76259766 -3.39820313 15.83769531 -3.41015625 14.88476562 C-3.38571205 9.15260041 -2.65501249 5.09228587 0 0 Z " fill="#0E3574" transform="translate(245,560)"/>
<path d="M0 0 C1.88391785 3.26545761 2.49287967 6.28111761 3 10 C3.99 10.33 4.98 10.66 6 11 C6.50808327 13.49584763 6.99821974 15.98964214 7.4296875 18.5 C8.27797449 23.26231293 9.12298257 26.99719314 12 31 C12.33 31.66 12.66 32.32 13 33 C12.34 33.66 11.68 34.32 11 35 C-0.47244878 10.18599562 -0.47244878 10.18599562 0 0 Z " fill="#083C7F" transform="translate(135,566)"/>
<path d="M0 0 C0.66 0.33 1.32 0.66 2 1 C0.9171875 2.051875 0.9171875 2.051875 -0.1875 3.125 C-2.08895323 5.02109703 -3.77105489 6.92526587 -5.5 9 C-7.87353344 11.84824012 -10.27004182 14.49138978 -13 17 C-13.66 17 -14.32 17 -15 17 C-15.66 18.32 -16.32 19.64 -17 21 C-17.66 20.67 -18.32 20.34 -19 20 C-16.58594219 14.536606 -13.76878657 10.63287413 -8.5625 7.5625 C-5.14797707 5.48047383 -2.7609712 2.88938846 0 0 Z " fill="#058AD2" transform="translate(178,445)"/>
<path d="M0 0 C0.66 1.32 1.32 2.64 2 4 C-7.24 4 -16.48 4 -26 4 C-26 3.01 -26 2.02 -26 1 C-17.42 0.67 -8.84 0.34 0 0 Z " fill="#D8DBDD" transform="translate(862,480)"/>
<path d="M0 0 C0.09796875 1.0621875 0.1959375 2.124375 0.296875 3.21875 C1.09361339 11.00304967 1.97162221 17.15175777 6 24 C6 24.99 6 25.98 6 27 C5.34 27 4.68 27 4 27 C3.67 25.02 3.34 23.04 3 21 C2.01 20.67 1.02 20.34 0 20 C-2.06125926 16.96235477 -2.09717821 14.59559361 -2 11 C-2.33 10.67 -2.66 10.34 -3 10 C-3.07179964 8.48071962 -3.08392007 6.95832518 -3.0625 5.4375 C-3.05347656 4.61121094 -3.04445313 3.78492188 -3.03515625 2.93359375 C-3.02355469 2.29550781 -3.01195312 1.65742187 -3 1 C-1 0 -1 0 0 0 Z " fill="#DADBDD" transform="translate(491,592)"/>
<path d="M0 0 C0.33 0 0.66 0 1 0 C1.04898438 0.92683594 1.09796875 1.85367188 1.1484375 2.80859375 C1.22320312 4.00613281 1.29796875 5.20367188 1.375 6.4375 C1.44460937 7.63246094 1.51421875 8.82742188 1.5859375 10.05859375 C1.72257813 11.02925781 1.85921875 11.99992188 2 13 C2.66 13.33 3.32 13.66 4 14 C3.835 14.515625 3.67 15.03125 3.5 15.5625 C2.84065094 18.77682668 2.81824783 21.72846085 3 25 C3.66 25.66 4.32 26.32 5 27 C4.34 29.31 3.68 31.62 3 34 C0.12591116 29.01824601 -0.12803666 23.81481931 -0.09765625 18.1640625 C-0.09443359 17.10058594 -0.09121094 16.03710938 -0.08789062 14.94140625 C-0.07951172 13.84699219 -0.07113281 12.75257813 -0.0625 11.625 C-0.05798828 10.50738281 -0.05347656 9.38976562 -0.04882812 8.23828125 C-0.03709244 5.49213196 -0.02067363 2.74609414 0 0 Z " fill="#094281" transform="translate(132,531)"/>
<path d="M0 0 C1.25541557 3.76624671 0.37061958 5.37188934 -1 9 C-1.99 8.67 -2.98 8.34 -4 8 C-4.45890625 8.51691406 -4.9178125 9.03382813 -5.390625 9.56640625 C-6.00421875 10.22511719 -6.6178125 10.88382813 -7.25 11.5625 C-8.15492188 12.55443359 -8.15492188 12.55443359 -9.078125 13.56640625 C-11 15 -11 15 -13 14.9375 C-15.44252186 13.79256788 -16.89964186 12.39460957 -18.75 10.4375 C-19.36359375 9.79683594 -19.9771875 9.15617188 -20.609375 8.49609375 C-21.06828125 8.00238281 -21.5271875 7.50867188 -22 7 C-21.67 6.34 -21.34 5.68 -21 5 C-18.36 7.64 -15.72 10.28 -13 13 C-8.12830382 9.00520914 -3.95751795 4.89978413 0 0 Z " fill="#16417C" transform="translate(273,592)"/>
<path d="M0 0 C-0.51949219 0.24234375 -1.03898437 0.4846875 -1.57421875 0.734375 C-10.1246167 4.84362355 -14.61903423 8.96216542 -18 18 C-18.61727192 21.05932579 -18.84850615 23.86912714 -19 27 C-19.33 27 -19.66 27 -20 27 C-20.84474933 22.30694816 -20.86846952 18.66802366 -20 14 C-20.33 13.34 -20.66 12.68 -21 12 C-20.278125 11.62875 -19.55625 11.2575 -18.8125 10.875 C-16.04445227 9.02963485 -14.43336848 7.08252331 -12.38671875 4.5 C-8.93615295 0.76755699 -5.04915151 -1.69041615 0 0 Z " fill="#E8F6F9" transform="translate(204,341)"/>
<path d="M0 0 C0.66 0.33 1.32 0.66 2 1 C1.67 4.63 1.34 8.26 1 12 C0.67 11.34 0.34 10.68 0 10 C-3.91402949 11.26941497 -5.79072873 12.51167694 -8 16 C-8.66 15.67 -9.32 15.34 -10 15 C-9.2884375 14.2265625 -9.2884375 14.2265625 -8.5625 13.4375 C-6.57190593 10.33217325 -6.34939182 7.63367496 -6 4 C-5.34 4.66 -4.68 5.32 -4 6 C-0.87525373 4.36526484 -0.87525373 4.36526484 -0.3125 1.875 C-0.1578125 0.946875 -0.1578125 0.946875 0 0 Z " fill="#0E1B24" transform="translate(827,601)"/>
<path d="M0 0 C0.33 0 0.66 0 1 0 C1.33 2.64 1.66 5.28 2 8 C3.65 8 5.3 8 7 8 C7 8.66 7 9.32 7 10 C7.99 10.33 8.98 10.66 10 11 C11.32 11.66 12.64 12.32 14 13 C9.38 13 4.76 13 0 13 C0 8.71 0 4.42 0 0 Z " fill="#E7E7E9" transform="translate(796,576)"/>
<path d="M0 0 C2.01319296 4.02638592 3.02631003 7.83945436 4 12.1875 C4.17370117 12.94474365 4.34740234 13.7019873 4.52636719 14.48217773 C5.02303702 16.65359401 5.51280494 18.82644092 6 21 C6.23203125 22.02867187 6.4640625 23.05734375 6.703125 24.1171875 C7.14137732 26.07680146 7.57195584 28.03813095 8 30 C5.51340379 27.51340379 4.9656889 25.39516054 3.875 22.0625 C3.52179688 21.00160156 3.16859375 19.94070313 2.8046875 18.84765625 C2 16 2 16 2 13 C1.34 13 0.68 13 0 13 C0 8.71 0 4.42 0 0 Z " fill="#153873" transform="translate(151,555)"/>
<path d="M0 0 C-1.3125 1.9375 -1.3125 1.9375 -4 4 C-7.65582511 4.6575225 -11.29108788 4.87210648 -15 5 C-14.34 4.67 -13.68 4.34 -13 4 C-13 3.34 -13 2.68 -13 2 C-11.21089097 1.47044766 -9.41860852 0.9516063 -7.625 0.4375 C-6.62726563 0.14746094 -5.62953125 -0.14257812 -4.6015625 -0.44140625 C-2 -1 -2 -1 0 0 Z M-26 5 C-22.37 5 -18.74 5 -15 5 C-15 5.33 -15 5.66 -15 6 C-18.63 6 -22.26 6 -26 6 C-26 5.67 -26 5.34 -26 5 Z " fill="#E7E7E8" transform="translate(434,523)"/>
<path d="M0 0 C1.91619141 -0.02513672 1.91619141 -0.02513672 3.87109375 -0.05078125 C7.76898831 0.33282107 10.20771609 1.34733292 13.5625 3.3125 C13.5625 3.6425 13.5625 3.9725 13.5625 4.3125 C11.5825 4.6425 9.6025 4.9725 7.5625 5.3125 C7.2325 3.9925 6.9025 2.6725 6.5625 1.3125 C5.5725 1.3125 4.5825 1.3125 3.5625 1.3125 C3.2325 1.9725 2.9025 2.6325 2.5625 3.3125 C2.2325 2.9825 1.9025 2.6525 1.5625 2.3125 C-3.2590583 2.02887892 -6.94242881 2.55832588 -11.4375 4.3125 C-11.7675 3.6525 -12.0975 2.9925 -12.4375 2.3125 C-8.21314121 0.27734826 -4.66475175 0.01409291 0 0 Z " fill="#038BD6" transform="translate(277.4375,389.6875)"/>
<path d="M0 0 C0.99 0.33 1.98 0.66 3 1 C3.99 0.67 4.98 0.34 6 0 C6.33 0.66 6.66 1.32 7 2 C6.34 2 5.68 2 5 2 C5.8971875 3.546875 5.8971875 3.546875 6.8125 5.125 C10.52462121 11.66098485 10.52462121 11.66098485 12 15 C11.67 15.66 11.34 16.32 11 17 C9.3459856 14.92272602 7.70180656 12.83882992 6.0625 10.75 C5.59392578 10.16347656 5.12535156 9.57695313 4.64257812 8.97265625 C2.32647685 6.00671361 0.73252745 3.68717165 0 0 Z " fill="#064A90" transform="translate(113,608)"/>
<path d="M0 0 C0.33 0 0.66 0 1 0 C1.04898437 1.09699219 1.09796875 2.19398438 1.1484375 3.32421875 C1.22350591 4.77866925 1.29905197 6.23309516 1.375 7.6875 C1.4059375 8.40873047 1.436875 9.12996094 1.46875 9.87304688 C1.69335587 13.97210394 2.17740909 17.24368459 4 21 C3.01 21.33 2.02 21.66 1 22 C0.29925156 18.846632 0 16.27275026 0 13 C-0.66 13 -1.32 13 -2 13 C-2 9.7 -2 6.4 -2 3 C-1.34 3 -0.68 3 0 3 C0 2.01 0 1.02 0 0 Z " fill="#192024" transform="translate(501,588)"/>
<path d="M0 0 C0.33 0.66 0.66 1.32 1 2 C5.455 1.505 5.455 1.505 10 1 C11 5 11 5 11 8 C10.13375 7.34 9.2675 6.68 8.375 6 C4.70258249 3.82375259 3.16689958 3.2907405 -1 4 C-3.64748202 5.80510138 -5.74080266 7.74080266 -8 10 C-8 9.34 -8 8.68 -8 8 C-8.66 8 -9.32 8 -10 8 C-10 7.34 -10 6.68 -10 6 C-9.401875 5.9175 -8.80375 5.835 -8.1875 5.75 C-5.38926857 4.79060637 -4.69589407 3.35950479 -3 1 C-2.01 0.67 -1.02 0.34 0 0 Z " fill="#024082" transform="translate(306,481)"/>
<path d="M0 0 C0.66 0.33 1.32 0.66 2 1 C1.67 1.66 1.34 2.32 1 3 C1 4.32 1 5.64 1 7 C0.38125 7.04125 -0.2375 7.0825 -0.875 7.125 C-3.32799882 7.85212993 -3.32799882 7.85212993 -4.3125 10.875 C-5.28188276 14.00881487 -5.28188276 14.00881487 -4 17 C-4.66 17.99 -5.32 18.98 -6 20 C-6.66 19.34 -7.32 18.68 -8 18 C-8 11.3993869 -4.68230147 4.68230147 0 0 Z " fill="#F0F5F6" transform="translate(207,519)"/>
<path d="M0 0 C1.71056541 2.58430745 2.05220752 3.68321539 1.5390625 6.796875 C1.23742187 7.77140625 0.93578125 8.7459375 0.625 9.75 C0.32851562 10.73484375 0.03203125 11.7196875 -0.2734375 12.734375 C-0.51320313 13.48203125 -0.75296875 14.2296875 -1 15 C-1.66 15 -2.32 15 -3 15 C-3.33 17.31 -3.66 19.62 -4 22 C-4.33 22 -4.66 22 -5 22 C-4.58955515 15.42208127 -4.13391403 9.25948114 -2 3 C-1.34 3 -0.68 3 0 3 C0 2.01 0 1.02 0 0 Z " fill="#0683CB" transform="translate(112,472)"/>
<path d="M0 0 C0.66 0.66 1.32 1.32 2 2 C1.73445313 2.49628906 1.46890625 2.99257813 1.1953125 3.50390625 C-1.11205852 7.94180599 -2.7006846 12.1492225 -4 17 C-5.35222316 20.9901667 -6.65238048 24.47857072 -9 28 C-8.46700931 22.13052225 -7.22884692 17.21522054 -5.0625 11.75 C-4.79759766 11.05648438 -4.53269531 10.36296875 -4.25976562 9.6484375 C-2.98665502 6.35035443 -1.6650024 3.12087406 0 0 Z " fill="#0294DE" transform="translate(104,450)"/>
<path d="M0 0 C0.66 0.33 1.32 0.66 2 1 C-2.39735961 5.94702956 -8.24781892 10.36698302 -15 11 C-15 10.34 -15 9.68 -15 9 C-13.35 8.34 -11.7 7.68 -10 7 C-10 6.34 -10 5.68 -10 5 C-6.66666667 3.33333333 -3.33333333 1.66666667 0 0 Z " fill="#0D83C2" transform="translate(181,388)"/>
<path d="M0 0 C1.65322266 0.01740234 1.65322266 0.01740234 3.33984375 0.03515625 C4.99693359 0.04869141 4.99693359 0.04869141 6.6875 0.0625 C7.54214844 0.07410156 8.39679687 0.08570313 9.27734375 0.09765625 C8.94734375 0.75765625 8.61734375 1.41765625 8.27734375 2.09765625 C4.97734375 2.09765625 1.67734375 2.09765625 -1.72265625 2.09765625 C-1.72265625 9.68765625 -1.72265625 17.27765625 -1.72265625 25.09765625 C-2.05265625 25.09765625 -2.38265625 25.09765625 -2.72265625 25.09765625 C-2.91850978 21.11885397 -3.10294295 17.13960469 -3.28515625 13.16015625 C-3.34123047 12.02384766 -3.39730469 10.88753906 -3.45507812 9.71679688 C-3.50341797 8.63720703 -3.55175781 7.55761719 -3.6015625 6.4453125 C-3.64869385 5.44508057 -3.6958252 4.44484863 -3.74438477 3.41430664 C-3.71267801 0.03379693 -3.39779176 0.12187201 0 0 Z " fill="#E4E6E8" transform="translate(694.72265625,564.90234375)"/>
<path d="M0 0 C0 0.99 0 1.98 0 3 C-6.27 2.67 -12.54 2.34 -19 2 C-13.47151263 -1.68565824 -6.28545287 -2.09515096 0 0 Z " fill="#DEEDF1" transform="translate(221,338)"/>
<path d="M0 0 C0 3.52809907 -0.64276511 4.46815512 -3 7 C-3.99 7 -4.98 7 -6 7 C-6 7.66 -6 8.32 -6 9 C-7.98 9.99 -7.98 9.99 -10 11 C-10 11.99 -10 12.98 -10 14 C-10.5775 13.649375 -11.155 13.29875 -11.75 12.9375 C-14.35801776 11.85082593 -15.39417629 12.06934867 -18 13 C-15.65446279 10.34785662 -13.33377758 9.07821538 -10.125 7.625 C-5.86943782 5.57809948 -3.06041293 3.57048176 0 0 Z " fill="#067CC5" transform="translate(243,471)"/>
<path d="M0 0 C0 2.33333333 0 4.66666667 0 7 C-0.66 7 -1.32 7 -2 7 C-2.226875 7.556875 -2.45375 8.11375 -2.6875 8.6875 C-4.68085165 12.19959577 -7.36119749 15.18059875 -11 17 C-9.56407335 12.88016856 -7.53749031 9.74182002 -4.9375 6.25 C-4.22464844 5.28578125 -3.51179687 4.3215625 -2.77734375 3.328125 C-1 1 -1 1 0 0 Z " fill="#0A75BA" transform="translate(160,462)"/>
<path d="M0 0 C5.66340319 4.69941967 10.84191625 9.75514475 16 15 C17.01964976 16.02201554 18.0402197 17.04311568 19.0625 18.0625 C19.701875 18.701875 20.34125 19.34125 21 20 C20.21625 19.67 19.4325 19.34 18.625 19 C16.15667503 17.88133489 16.15667503 17.88133489 14 18 C13.58105469 17.29230469 13.16210938 16.58460938 12.73046875 15.85546875 C10.6953546 12.4973007 8.13709709 9.99131143 5.3125 7.3125 C3.48631016 5.57842567 1.73509182 3.82935827 0 2 C0 1.34 0 0.68 0 0 Z " fill="#093373" transform="translate(220,614)"/>
<path d="M0 0 C0.99 0.33 1.98 0.66 3 1 C2.27683594 1.50660156 2.27683594 1.50660156 1.5390625 2.0234375 C0.90742188 2.46945312 0.27578125 2.91546875 -0.375 3.375 C-1.31472656 4.03628906 -1.31472656 4.03628906 -2.2734375 4.7109375 C-4.23413141 6.174804 -5.84285905 7.82976397 -7.5 9.625 C-9 11 -9 11 -11 11 C-11 11.99 -11 12.98 -11 14 C-12.65 14.66 -14.3 15.32 -16 16 C-12.85948159 8.99894189 -6.41725769 3.94908166 0 0 Z " fill="#038CD9" transform="translate(211,492)"/>
<path d="M0 0 C0.66 0.66 1.32 1.32 2 2 C1.8125 4 1.8125 4 1 6 C0.01 6.66 -0.98 7.32 -2 8 C-2.99 9.485 -2.99 9.485 -4 11 C-4.99 11 -5.98 11 -7 11 C-8.67099977 11.31088368 -10.33871537 11.64080332 -12 12 C-10.91897181 8.86501824 -10.02159388 8.0131441 -7.125 6.25 C-4 5 -4 5 0 5 C0 3.35 0 1.7 0 0 Z " fill="#058FD3" transform="translate(186,364)"/>
<path d="M0 0 C3.35118586 2.27401898 5.53104054 4.80487599 8 8 C9.98236695 10.34856774 11.98998047 12.67507741 14 15 C14.99 14.67 15.98 14.34 17 14 C17 14.99 17 15.98 17 17 C16.34 17.66 15.68 18.32 15 19 C3.85017422 8.29616725 3.85017422 8.29616725 0 2 C0 1.34 0 0.68 0 0 Z " fill="#093879" transform="translate(160,622)"/>
<path d="M0 0 C0.33 0 0.66 0 1 0 C1.06058594 1.02480469 1.12117188 2.04960937 1.18359375 3.10546875 C1.26805026 4.46615695 1.35269567 5.82683343 1.4375 7.1875 C1.47681641 7.86103516 1.51613281 8.53457031 1.55664062 9.22851562 C1.74169742 12.14671898 1.98916749 14.94868809 2.59375 17.8125 C3.13282955 20.71523604 2.26644145 22.39262055 1 25 C0.67 25 0.34 25 0 25 C-0.19572967 21.95866211 -0.38183916 18.91723937 -0.5625 15.875 C-0.61857422 15.0190625 -0.67464844 14.163125 -0.73242188 13.28125 C-0.99798352 8.67818141 -1.00515346 4.54180454 0 0 Z " fill="#0B72BB" transform="translate(89,499)"/>
<path d="M0 0 C1.396478 0.45636536 2.7921508 0.91519488 4.1875 1.375 C5.01121094 1.64570312 5.83492188 1.91640625 6.68359375 2.1953125 C9 3 9 3 11.75 4.25 C14.59317622 5.19772541 16.15692068 4.87479364 19 4 C19.70125 3.62875 20.4025 3.2575 21.125 2.875 C23 2 23 2 26 3 C17.14223195 8.2166302 17.14223195 8.2166302 12.375 7.3125 C11.199375 6.6628125 11.199375 6.6628125 10 6 C9.67 6.66 9.34 7.32 9 8 C8.67 6.68 8.34 5.36 8 4 C7.236875 3.896875 6.47375 3.79375 5.6875 3.6875 C2.77363954 2.94209384 1.97049603 2.15541061 0 0 Z " fill="#0B3879" transform="translate(262,648)"/>
<path d="M0 0 C1.66666667 1.66666667 3.33333333 3.33333333 5 5 C7.57061311 5.64767793 7.57061311 5.64767793 10 6 C9 9 9 9 7 10 C7.66 10.66 8.32 11.32 9 12 C9.625 14.125 9.625 14.125 10 16 C5.46321158 11.98170169 2.54222705 7.5063556 0 2 C0 1.34 0 0.68 0 0 Z " fill="#074589" transform="translate(229,595)"/>
<path d="M0 0 C3.3125 0.4375 3.3125 0.4375 5.3125 2.4375 C2.159132 3.13824844 -0.41474974 3.4375 -3.6875 3.4375 C-4.0175 4.4275 -4.3475 5.4175 -4.6875 6.4375 C-5.6775 6.7675 -6.6675 7.0975 -7.6875 7.4375 C-9.35460346 8.93735609 -9.35460346 8.93735609 -10.6875 10.4375 C-8.8752148 4.671138 -6.24882666 0.74138621 0 0 Z " fill="#0A488B" transform="translate(308.6875,547.5625)"/>
<path d="M0 0 C0.99 0.99 1.98 1.98 3 3 C2.67 3.99 2.34 4.98 2 6 C1.34 6 0.68 6 0 6 C0 9.96 0 13.92 0 18 C-0.66 18.33 -1.32 18.66 -2 19 C-2.05451714 16.95863605 -2.09302485 14.91684144 -2.125 12.875 C-2.14820313 11.73804688 -2.17140625 10.60109375 -2.1953125 9.4296875 C-1.99672109 5.94242233 -1.2524801 3.2446138 0 0 Z " fill="#E5EFF5" transform="translate(153,518)"/>
<path d="M0 0 C2.73332093 0.48235075 5.24862665 1.08647883 7.875 2 C11.26012581 3.08324026 14.4768148 3.55960185 18 4 C20.00097458 4.3274322 22.00133314 4.65876419 24 5 C24 5.33 24 5.66 24 6 C14.66348234 6.6053938 7.96186707 6.13668843 0 1 C0 0.67 0 0.34 0 0 Z " fill="#0A3D80" transform="translate(291,515)"/>
<path d="M0 0 C0.99 0.66 1.98 1.32 3 2 C2.42415568 4.38564077 1.77772405 6.66682784 1 9 C1.0825 9.825 1.165 10.65 1.25 11.5 C1.1675 12.325 1.085 13.15 1 14 C-1.375 15.875 -1.375 15.875 -4 17 C-4.66 16.67 -5.32 16.34 -6 16 C-5.360625 15.566875 -4.72125 15.13375 -4.0625 14.6875 C-1.24607439 11.01761208 -1.38571204 7.89178821 -1.17578125 3.36328125 C-1 1 -1 1 0 0 Z " fill="#0A4C8B" transform="translate(283,487)"/>
<path d="M0 0 C7.48291572 6.15034169 7.48291572 6.15034169 10 10 C4.52386331 8.81887248 1.6905212 7.47335903 -2 3 C-2 2.34 -2 1.68 -2 1 C-1.34 0.67 -0.68 0.34 0 0 Z " fill="#EDEDED" transform="translate(164,632)"/>
<path d="M0 0 C0.66 0.33 1.32 0.66 2 1 C1.3503125 1.5878125 1.3503125 1.5878125 0.6875 2.1875 C-1.13175226 3.99843418 -1.13175226 3.99843418 -2.4375 6.5625 C-4.16339269 9.25489259 -5.19284788 9.68414744 -8 11 C-9.73425773 13.03317007 -9.73425773 13.03317007 -11 15 C-10.49353463 10.60543896 -9.04647166 8.46599839 -6.0625 5.25 C-4.99708984 4.08210938 -4.99708984 4.08210938 -3.91015625 2.890625 C-2 1 -2 1 0 0 Z " fill="#044384" transform="translate(295,471)"/>
<path d="M0 0 C0.66 0 1.32 0 2 0 C0.35433477 5.68502535 -2.29032784 10.76681636 -5 16 C-7.16666667 9.5 -7.16666667 9.5 -6 6 C-5.01 6 -4.02 6 -3 6 C-2.01 4.02 -1.02 2.04 0 0 Z " fill="#E6F3F6" transform="translate(105,441)"/>
<path d="M0 0 C0.33 0.99 0.66 1.98 1 3 C-0.03001323 4.77033524 -1.06306771 6.53944507 -2.140625 8.28125 C-3.21531041 10.04666841 -3.21531041 10.04666841 -2.75 12.4375 C-2.5025 12.953125 -2.255 13.46875 -2 14 C-3.65 13.67 -5.3 13.34 -7 13 C-6.22409568 7.56866979 -4.0655127 3.67832102 0 0 Z " fill="#068ACF" transform="translate(114,431)"/>
<path d="M0 0 C4.12521724 3.65145279 5.71339995 8.72201194 6.1875 14.14453125 C6.1875 15.76422714 6.10317488 17.38359358 6 19 C5.67 19 5.34 19 5 19 C4.51171875 16.98177083 4.0234375 14.96354167 3.53515625 12.9453125 C3.05153008 10.9414343 3.05153008 10.9414343 2 9 C2.33 8.34 2.66 7.68 3 7 C1.68 6.67 0.36 6.34 -1 6 C-0.67 4.02 -0.34 2.04 0 0 Z " fill="#0286D4" transform="translate(297,399)"/>
<path d="M0 0 C2.85215083 2.75118973 5.34358701 5.60315225 7.75 8.75 C8.36359375 9.54921875 8.9771875 10.3484375 9.609375 11.171875 C10.06828125 11.77515625 10.5271875 12.3784375 11 13 C10.67 13.66 10.34 14.32 10 15 C9.278125 14.071875 8.55625 13.14375 7.8125 12.1875 C5.98845951 9.96851058 4.78492107 8.87290791 2.25 7.375 C0 6 0 6 -0.875 3.9375 C-1 2 -1 2 0 0 Z " fill="#0B4487" transform="translate(209,599)"/>
<path d="M0 0 C7.43378943 -0.33452052 13.19877155 -0.13902852 20 3 C20 3.33 20 3.66 20 4 C17.04019468 3.91329863 14.08353131 3.80646977 11.125 3.6875 C10.28324219 3.66494141 9.44148438 3.64238281 8.57421875 3.61914062 C7.76855469 3.58369141 6.96289062 3.54824219 6.1328125 3.51171875 C5.38918457 3.48553467 4.64555664 3.45935059 3.87939453 3.43237305 C2 3 2 3 0 0 Z " fill="#E5E6E8" transform="translate(406,415)"/>
<path d="M0 0 C0.33 0.99 0.66 1.98 1 3 C-6.98734511 5.4744657 -14.61843511 7.61375277 -23 8 C-22.67 7.34 -22.34 6.68 -22 6 C-19.42650515 5.37963042 -16.91778617 4.87363737 -14.3125 4.4375 C-13.24999023 4.24897461 -13.24999023 4.24897461 -12.16601562 4.05664062 C-10.11223898 3.69443256 -8.05680149 3.34457642 -6 3 C-4.83855469 2.80535156 -3.67710937 2.61070312 -2.48046875 2.41015625 C-1.66191406 2.27480469 -0.84335937 2.13945313 0 2 C0 1.34 0 0.68 0 0 Z " fill="#0460AB" transform="translate(277,672)"/>
<path d="M0 0 C0.99 0.33 1.98 0.66 3 1 C2.34 2.65 1.68 4.3 1 6 C0.34 5.67 -0.32 5.34 -1 5 C-2.98 9.95 -4.96 14.9 -7 20 C-8.15600822 15.37596714 -7.59851857 14.24946799 -5.75 10 C-5.31171875 8.96875 -4.8734375 7.9375 -4.421875 6.875 C-3.1514507 4.30623 -1.80731889 2.21130782 0 0 Z " fill="#0C5B9E" transform="translate(189,512)"/>
<path d="M0 0 C0.144375 0.61875 0.28875 1.2375 0.4375 1.875 C0.93152225 4.03258322 0.93152225 4.03258322 2 6 C2.22950319 8.204364 2.41075933 10.41392173 2.5625 12.625 C2.64628906 13.81351562 2.73007812 15.00203125 2.81640625 16.2265625 C2.87699219 17.14179688 2.93757813 18.05703125 3 19 C2.01 19 1.02 19 0 19 C-1.12050151 15.63849548 -1.13296652 13.03713274 -1.125 9.5 C-1.12757813 8.3553125 -1.13015625 7.210625 -1.1328125 6.03125 C-1 3 -1 3 0 0 Z " fill="#1E282F" transform="translate(378,462)"/>
<path d="M0 0 C0.99 0 1.98 0 3 0 C3.054138 2.24973447 3.09285491 4.49984383 3.125 6.75 C3.14820313 8.00296875 3.17140625 9.2559375 3.1953125 10.546875 C3.01537302 13.72820492 2.68998582 15.36521896 1 18 C0.10395632 11.95170514 -0.11269443 6.1105424 0 0 Z " fill="#E6E8E9" transform="translate(767,464)"/>
<path d="M0 0 C0.33 0.99 0.66 1.98 1 3 C-1.64 5.97 -4.28 8.94 -7 12 C-7.66 11.67 -8.32 11.34 -9 11 C-7.84101462 6.46942077 -5.51745129 0 0 0 Z " fill="#0B85C7" transform="translate(146,416)"/>
<path d="M0 0 C0.66 0.66 1.32 1.32 2 2 C1.21366078 3.14949588 0.42073742 4.29448989 -0.375 5.4375 C-0.81585938 6.07558594 -1.25671875 6.71367187 -1.7109375 7.37109375 C-3 9 -3 9 -5 10 C-6.13350534 12.01669827 -6.13350534 12.01669827 -7 14 C-7.59865471 8.01345291 -7.59865471 8.01345291 -5.95703125 5.234375 C-4.16141815 3.06489524 -2.53856072 1.26928036 0 0 Z " fill="#067FC7" transform="translate(271,402)"/>
<path d="M0 0 C2.9719385 1.12451727 5.33440687 2.22293791 8 4 C10.62531524 4.16713569 10.62531524 4.16713569 13 4 C13 4.66 13 5.32 13 6 C13.66 6.33 14.32 6.66 15 7 C14.67 7.33 14.34 7.66 14 8 C14.99 8.99 15.98 9.98 17 11 C13.09544063 9.57497833 9.75164038 7.73347873 6.25 5.5 C5.28578125 4.8915625 4.3215625 4.283125 3.328125 3.65625 C1 2 1 2 0 0 Z " fill="#0D2F6D" transform="translate(153,652)"/>
<path d="M0 0 C0.33 0.66 0.66 1.32 1 2 C-3.455 7.94 -3.455 7.94 -8 14 C-8.66 12.68 -9.32 11.36 -10 10 C-8.68 9.34 -7.36 8.68 -6 8 C-6.33 6.68 -6.66 5.36 -7 4 C-5.02 3.67 -3.04 3.34 -1 3 C-0.67 2.01 -0.34 1.02 0 0 Z " fill="#0D4A8E" transform="translate(295,590)"/>
<path d="M0 0 C1.125 1.5625 1.125 1.5625 2 4 C1.125 7.75 1.125 7.75 0 11 C0.66 11.33 1.32 11.66 2 12 C2.75 14.4375 2.75 14.4375 3 17 C2.34 17.66 1.68 18.32 1 19 C-0.515625 17.94140625 -0.515625 17.94140625 -2 16 C-2.109375 12.71484375 -2.109375 12.71484375 -1.75 8.9375 C-1.64171875 7.68839844 -1.5334375 6.43929688 -1.421875 5.15234375 C-1 2 -1 2 0 0 Z " fill="#0A89D3" transform="translate(253,407)"/>
<path d="M0 0 C0.66 0.99 1.32 1.98 2 3 C0.94294153 7.46313576 -1.45429578 10.17955346 -5 13 C-8.3125 13.3125 -8.3125 13.3125 -11 13 C-10.38125 12.71125 -9.7625 12.4225 -9.125 12.125 C-6.86674235 11.06279958 -6.86674235 11.06279958 -5 9 C-4.34 8.67 -3.68 8.34 -3 8 C-1.48304705 5.41225673 -0.62684577 2.92528027 0 0 Z " fill="#161E25" transform="translate(756,607)"/>
<path d="M0 0 C5.28 0 10.56 0 16 0 C15.01 0.495 15.01 0.495 14 1 C14 1.66 14 2.32 14 3 C4.58997722 3.3690205 4.58997722 3.3690205 0 1 C0 0.67 0 0.34 0 0 Z " fill="#161C21" transform="translate(515,506)"/>
<path d="M0 0 C1.9375 0.5 1.9375 0.5 4 2 C4.68790422 4.69658452 4.81946464 7.2017019 5 10 C3.68 10 2.36 10 1 10 C0.63883954 8.5225254 0.28624952 7.04295325 -0.0625 5.5625 C-0.25972656 4.73878906 -0.45695313 3.91507812 -0.66015625 3.06640625 C-0.82837891 2.04353516 -0.82837891 2.04353516 -1 1 C-0.67 0.67 -0.34 0.34 0 0 Z " fill="#0192DC" transform="translate(232,352)"/>
<path d="M0 0 C4.10958767 1.45044271 7.43258745 3.51110752 11 6 C9.1875 7.0625 9.1875 7.0625 7 8 C3.55815706 6.85271902 2.91992283 5.96715346 1 3 C0.67 2.01 0.34 1.02 0 0 Z " fill="#09498E" transform="translate(163,638)"/>
<path d="M0 0 C0.33 1.32 0.66 2.64 1 4 C-1.31 5.98 -3.62 7.96 -6 10 C-7.32 9.34 -8.64 8.68 -10 8 C-9.44570313 7.59007812 -8.89140625 7.18015625 -8.3203125 6.7578125 C-7.59585938 6.21898437 -6.87140625 5.68015625 -6.125 5.125 C-5.04605469 4.32449219 -5.04605469 4.32449219 -3.9453125 3.5078125 C-1.91747368 2.00126838 -1.91747368 2.00126838 0 0 Z " fill="#E8E8E9" transform="translate(666,507)"/>
<path d="M0 0 C0.33 0.99 0.66 1.98 1 3 C-2.20336822 5.83374881 -4.78087253 6.5205537 -9 7 C-8.4375 4.625 -8.4375 4.625 -7 2 C-3.375 0.6875 -3.375 0.6875 0 0 Z " fill="#077CC5" transform="translate(221,504)"/>
<path d="M0 0 C0.33 0 0.66 0 1 0 C1.22304441 1.74818591 1.4278645 3.49870323 1.625 5.25 C1.74101562 6.22453125 1.85703125 7.1990625 1.9765625 8.203125 C2.00148066 11.17669233 1.71293696 12.59083705 0 15 C-0.99 15.33 -1.98 15.66 -3 16 C-3.33 15.01 -3.66 14.02 -4 13 C-3.34 13 -2.68 13 -2 13 C-1.34 8.71 -0.68 4.42 0 0 Z " fill="#0789D0" transform="translate(236,363)"/>
<path d="M0 0 C3.69876091 1.37287342 6.9514476 3.06355453 10.3125 5.125 C11.19550781 5.66382813 12.07851563 6.20265625 12.98828125 6.7578125 C13.65214844 7.16773438 14.31601562 7.57765625 15 8 C14.01 8.66 13.02 9.32 12 10 C11.01 9.01 10.02 8.02 9 7 C8.01 7.66 7.02 8.32 6 9 C5.566875 8.071875 5.13375 7.14375 4.6875 6.1875 C3.27961373 3.52815927 2.23876444 1.91894095 0 0 Z " fill="#0C4183" transform="translate(247,639)"/>
<path d="M0 0 C2.34171739 2.34171739 2.391923 3.23060454 2.75 6.4375 C2.84796875 7.21996094 2.9459375 8.00242187 3.046875 8.80859375 C3 11 3 11 1 14 C-1.33214424 10.35602463 -1.23164058 7.24674388 -1 3 C-0.67 2.01 -0.34 1.02 0 0 Z " fill="#DFE0E0" transform="translate(902,400)"/>
<path d="M0 0 C1.65 0.33 3.3 0.66 5 1 C4.01 1.33 3.02 1.66 2 2 C2 3.32 2 4.64 2 6 C-1 7 -1 7 -2.82421875 6.22265625 C-4.54947917 5.1484375 -6.27473958 4.07421875 -8 3 C-7.34 2.67 -6.68 2.34 -6 2 C-3.375 2.9375 -3.375 2.9375 -1 4 C-0.67 2.68 -0.34 1.36 0 0 Z " fill="#F1F6F7" transform="translate(226,648)"/>
<path d="M0 0 C2.00875442 -0.27571139 4.01178687 -0.60235737 6 -1 C5 1 5 1 3.109375 1.6328125 C-0.97875601 2.48563453 -4.79614144 3.27121668 -9 3 C-9.33 2.01 -9.66 1.02 -10 0 C-3.375 -1.125 -3.375 -1.125 0 0 Z " fill="#DEDFE0" transform="translate(754,522)"/>
<path d="M0 0 C0.66 0.33 1.32 0.66 2 1 C0.5 3 0.5 3 -1 5 C-1.515625 5.7425 -2.03125 6.485 -2.5625 7.25 C-3.2740625 8.11625 -3.2740625 8.11625 -4 9 C-4.66 9 -5.32 9 -6 9 C-6.66 10.32 -7.32 11.64 -8 13 C-8.33 12.34 -8.66 11.68 -9 11 C-6.36113346 6.7973607 -3.63559661 3.43361902 0 0 Z " fill="#038DD7" transform="translate(263,393)"/>
<path d="M0 0 C0.33 0.99 0.66 1.98 1 3 C-5.31715405 6.44572039 -10.90370975 6.31461385 -18 6 C-18 5.67 -18 5.34 -18 5 C-13.98195309 4.15901344 -10.98196457 3.94595055 -7 5 C-7 4.01 -7 3.02 -7 2 C-5.35 2.33 -3.7 2.66 -2 3 C-2 2.34 -2 1.68 -2 1 C-1.34 0.67 -0.68 0.34 0 0 Z " fill="#0293DD" transform="translate(225,385)"/>
<path d="M0 0 C8.91 1.98 8.91 1.98 18 4 C18 4.33 18 4.66 18 5 C13.38 5 8.76 5 4 5 C4 4.01 4 3.02 4 2 C2.68 1.67 1.36 1.34 0 1 C0 0.67 0 0.34 0 0 Z " fill="#0D3E80" transform="translate(232,658)"/>
<path d="M0 0 C4.29 0 8.58 0 13 0 C13 0.99 13 1.98 13 3 C8.71 3 4.42 3 0 3 C0 2.01 0 1.02 0 0 Z " fill="#1B232A" transform="translate(737,624)"/>
<path d="M0 0 C1.859375 0.2578125 1.859375 0.2578125 4 1 C5.265625 2.7421875 5.265625 2.7421875 6.25 4.875 C6.58515625 5.57367187 6.9203125 6.27234375 7.265625 6.9921875 C8 9 8 9 8 12 C2.00704225 6.16901408 2.00704225 6.16901408 0 3 C0 2.01 0 1.02 0 0 Z " fill="#0A4D93" transform="translate(242,585)"/>
<path d="M0 0 C0.66 0.33 1.32 0.66 2 1 C1.4946875 1.34933594 0.989375 1.69867188 0.46875 2.05859375 C-0.1809375 2.51363281 -0.830625 2.96867187 -1.5 3.4375 C-2.1496875 3.88996094 -2.799375 4.34242188 -3.46875 4.80859375 C-3.9740625 5.20175781 -4.479375 5.59492188 -5 6 C-5 6.33 -5 6.66 -5 7 C-8.96 7 -12.92 7 -17 7 C-17 6.67 -17 6.34 -17 6 C-14.03 6 -11.06 6 -8 6 C-7.67 5.01 -7.34 4.02 -7 3 C-5.68 3 -4.36 3 -3 3 C-2.67 2.34 -2.34 1.68 -2 1 C-1.34 0.67 -0.68 0.34 0 0 Z " fill="#097EC1" transform="translate(223,449)"/>
<path d="M0 0 C-1.10067996 0.81721717 -2.20569731 1.62859451 -3.3125 2.4375 C-3.92738281 2.88996094 -4.54226563 3.34242188 -5.17578125 3.80859375 C-8.35199427 5.88299412 -11.00069477 6.11593196 -14.6875 6.0625 C-15.89986328 6.04896484 -15.89986328 6.04896484 -17.13671875 6.03515625 C-18.05904297 6.01775391 -18.05904297 6.01775391 -19 6 C-19 5.67 -19 5.34 -19 5 C-18.28972656 4.87882812 -17.57945312 4.75765625 -16.84765625 4.6328125 C-15.92855469 4.46523438 -15.00945312 4.29765625 -14.0625 4.125 C-13.14597656 3.96257812 -12.22945313 3.80015625 -11.28515625 3.6328125 C-10.53105469 3.42398437 -9.77695312 3.21515625 -9 3 C-8.67 2.34 -8.34 1.68 -8 1 C-2.47058824 -1.23529412 -2.47058824 -1.23529412 0 0 Z " fill="#0E5895" transform="translate(295,436)"/>
<path d="M0 0 C2.31 0.66 4.62 1.32 7 2 C7 2.66 7 3.32 7 4 C7.66 4.33 8.32 4.66 9 5 C10.0409066 6.64142963 11.04504326 8.30712215 12 10 C8.78727751 8.56006357 6.3793336 6.76981628 3.75 4.4375 C3.04359375 3.81746094 2.3371875 3.19742188 1.609375 2.55859375 C1.07828125 2.04425781 0.5471875 1.52992188 0 1 C0 0.67 0 0.34 0 0 Z " fill="#0B4284" transform="translate(141,642)"/>
<path d="M0 0 C1.9453125 0.77734375 1.9453125 0.77734375 4.125 1.9375 C5.21167969 2.50791016 5.21167969 2.50791016 6.3203125 3.08984375 C6.87460938 3.39019531 7.42890625 3.69054687 8 4 C8 4.66 8 5.32 8 6 C8.66 6.33 9.32 6.66 10 7 C8.3125 7.75 8.3125 7.75 6 8 C3.25 6.1875 3.25 6.1875 1 4 C1 3.34 1 2.68 1 2 C0.01 1.67 -0.98 1.34 -2 1 C-1.34 0.67 -0.68 0.34 0 0 Z " fill="#0688CC" transform="translate(192,382)"/>
<path d="M0 0 C0.66 0.33 1.32 0.66 2 1 C-1.0662621 3.70123089 -3.55204609 5.78463754 -7.25 7.5625 C-10.18493809 9.09667218 -10.94150687 9.93036993 -12 13 C-12 12.01 -12 11.02 -12 10 C-12.66 9.67 -13.32 9.34 -14 9 C-11.71439353 7.4693001 -9.42237333 5.95034956 -7.125 4.4375 C-6.14853516 3.78104492 -6.14853516 3.78104492 -5.15234375 3.11132812 C-3.47374503 2.01245164 -1.73976613 0.9992182 0 0 Z " fill="#029BE1" transform="translate(172,376)"/>
<path d="M0 0 C4.12751449 0.60698743 7.3321148 2.03810791 11 4 C11 4.33 11 4.66 11 5 C9.37419034 4.88601335 7.74932843 4.75844341 6.125 4.625 C5.22007812 4.55539062 4.31515625 4.48578125 3.3828125 4.4140625 C1 4 1 4 -1 2 C-0.67 1.34 -0.34 0.68 0 0 Z " fill="#EEF4F7" transform="translate(240,657)"/>
<path d="M0 0 C0.33 0 0.66 0 1 0 C1.38971999 2.10149011 1.76131477 4.2063482 2.125 6.3125 C2.33382812 7.48425781 2.54265625 8.65601563 2.7578125 9.86328125 C3 13 3 13 1 16 C-1.0662997 10.28728907 -1.0006709 5.96345767 0 0 Z " fill="#E0E9ED" transform="translate(133,561)"/>
<path d="M0 0 C4.05606165 0.46800711 7.46588679 0.87953208 11 3 C10.67 3.99 10.34 4.98 10 6 C6.51329166 4.8905928 3.22515763 3.73662334 0 2 C0 1.34 0 0.68 0 0 Z " fill="#0363AC" transform="translate(292,513)"/>
<path d="M0 0 C1.21386936 3.64160808 0.6674695 4.33165469 -0.9375 7.6875 C-1.31777344 8.49574219 -1.69804687 9.30398438 -2.08984375 10.13671875 C-2.39019531 10.75160156 -2.69054687 11.36648438 -3 12 C-4.4606285 9.35261084 -5 8.10551666 -5 5 C-4.34 4.67 -3.68 4.34 -3 4 C-3 3.01 -3 2.02 -3 1 C-2.01 0.67 -1.02 0.34 0 0 Z " fill="#0281D0" transform="translate(157,496)"/>
<path d="M0 0 C8.25 0.33 16.5 0.66 25 1 C25 1.33 25 1.66 25 2 C16.42 2.33 7.84 2.66 -1 3 C-0.67 2.01 -0.34 1.02 0 0 Z " fill="#FCFCFD" transform="translate(835,481)"/>
<path d="M0 0 C0.33 0 0.66 0 1 0 C1.0270043 1.45823212 1.04639787 2.91660675 1.0625 4.375 C1.07410156 5.18710937 1.08570312 5.99921875 1.09765625 6.8359375 C1 9 1 9 0 11 C-0.66 11 -1.32 11 -2 11 C-2 11.66 -2 12.32 -2 13 C-2.66 13 -3.32 13 -4 13 C-3.52140759 11.39566191 -3.04210442 9.79153584 -2.5625 8.1875 C-2.29566406 7.29417969 -2.02882813 6.40085937 -1.75390625 5.48046875 C-1.19612127 3.64526945 -0.60655425 1.81966274 0 0 Z " fill="#E0EEF3" transform="translate(118,462)"/>
<path d="M0 0 C0.99 0 1.98 0 3 0 C3 3.96 3 7.92 3 12 C2.01 12 1.02 12 0 12 C0 8.04 0 4.08 0 0 Z " fill="#E3E4E5" transform="translate(442,466)"/>
<path d="M0 0 C0.66 0.66 1.32 1.32 2 2 C0.71937515 3.7074998 -0.61767557 5.37373596 -2 7 C-2.66 7 -3.32 7 -4 7 C-4.66 8.32 -5.32 9.64 -6 11 C-6.99 11 -7.98 11 -9 11 C-8.21625 10.0925 -7.4325 9.185 -6.625 8.25 C-4.68189759 5.93469769 -3.31316981 3.72735269 -2 1 C-1.34 0.67 -0.68 0.34 0 0 Z " fill="#0394DB" transform="translate(130,410)"/>
<path d="M0 0 C0 3 0 3 -1.8125 5.1875 C-4 7 -4 7 -7 7 C-7.33 8.65 -7.66 10.3 -8 12 C-8.66 12 -9.32 12 -10 12 C-10.33 11.01 -10.66 10.02 -11 9 C-9.73113036 7.87278564 -8.45982438 6.74831342 -7.1875 5.625 C-6.47980469 4.99851562 -5.77210938 4.37203125 -5.04296875 3.7265625 C-3 2 -3 2 0 0 Z " fill="#0299E1" transform="translate(157,386)"/>
<path d="M0 0 C0.495 0.556875 0.99 1.11375 1.5 1.6875 C1.17 2.3475 0.84 3.0075 0.5 3.6875 C-0.95792884 3.74149736 -2.41642712 3.78029177 -3.875 3.8125 C-4.68710938 3.83570313 -5.49921875 3.85890625 -6.3359375 3.8828125 C-8.5 3.6875 -8.5 3.6875 -10.5 1.6875 C-3.28774617 -1.72606674 -3.28774617 -1.72606674 0 0 Z " fill="#0E8FD4" transform="translate(216.5,352.3125)"/>
<path d="M0 0 C0.66 0 1.32 0 2 0 C3.5547669 3.10953379 3.28644437 5.56266761 3 9 C1 12.4375 1 12.4375 -1 15 C-2 12 -2 12 -1.0625 9.8125 C-0.5365625 8.9153125 -0.5365625 8.9153125 0 8 C0.33 8 0.66 8 1 8 C1.08226668 4.95613276 0.97608217 2.92824652 0 0 Z " fill="#0D4685" transform="translate(315,551)"/>
<path d="M0 0 C0.33 0.66 0.66 1.32 1 2 C2.65 2 4.3 2 6 2 C2.35140239 5.04049801 -1.7444533 6.96518762 -6 9 C-5.67 8.01 -5.34 7.02 -5 6 C-2.9375 5.3125 -2.9375 5.3125 -1 5 C-0.67 3.35 -0.34 1.7 0 0 Z " fill="#DEEDF3" transform="translate(219,481)"/>
<path d="M0 0 C0.66 0 1.32 0 2 0 C2.29296875 6.0546875 2.29296875 6.0546875 2 8 C1.01 8.66 0.02 9.32 -1 10 C-1.66 9.34 -2.32 8.68 -3 8 C-2.01 5.36 -1.02 2.72 0 0 Z " fill="#E1EEF2" transform="translate(232,438)"/>
<path d="M0 0 C0.804375 0.350625 1.60875 0.70125 2.4375 1.0625 C6.90346108 2.23775292 10.49837555 1.74026713 15 1 C15 1.66 15 2.32 15 3 C10.67265609 5.22923777 7.71599818 4.92470553 3 4 C3 3.34 3 2.68 3 2 C2.01 1.67 1.02 1.34 0 1 C0 0.67 0 0.34 0 0 Z " fill="#0283D0" transform="translate(269,424)"/>
<path d="M0 0 C2 1 2 1 2.75 2.8125 C4.51231152 5.89654517 7.01059522 7.18036231 10 9 C9.01 9.495 9.01 9.495 8 10 C4.37 7.36 0.74 4.72 -3 2 C-2.01 1.34 -1.02 0.68 0 0 Z " fill="#0E3C7D" transform="translate(232,646)"/>
<path d="M0 0 C0.66 1.32 1.32 2.64 2 4 C1 5 1 5 -0.85766602 5.11352539 C-1.64842529 5.10828857 -2.43918457 5.10305176 -3.25390625 5.09765625 C-4.10791016 5.09443359 -4.96191406 5.09121094 -5.84179688 5.08789062 C-6.73962891 5.07951172 -7.63746094 5.07113281 -8.5625 5.0625 C-9.46419922 5.05798828 -10.36589844 5.05347656 -11.29492188 5.04882812 C-13.53001314 5.03700225 -15.76497437 5.0205222 -18 5 C-18 4.67 -18 4.34 -18 4 C-12.39 4 -6.78 4 -1 4 C-0.67 2.68 -0.34 1.36 0 0 Z " fill="#15222B" transform="translate(898,517)"/>
<path d="M0 0 C6.52307692 0.61538462 6.52307692 0.61538462 8.9375 2.5625 C9.288125 3.036875 9.63875 3.51125 10 4 C6.06329512 5.31223496 3.87511856 4.24296256 0 3 C0 2.01 0 1.02 0 0 Z " fill="#E3E4E5" transform="translate(642,419)"/>
<path d="M0 0 C4.43458973 1.3937282 6.87378374 3.60582235 10 7 C8.68 7.33 7.36 7.66 6 8 C4.9970458 6.85675161 3.99770973 5.71032809 3 4.5625 C2.443125 3.92441406 1.88625 3.28632812 1.3125 2.62890625 C0 1 0 1 0 0 Z " fill="#09438A" transform="translate(202,641)"/>
<path d="M0 0 C0.66 0 1.32 0 2 0 C3.125 7.75 3.125 7.75 2 10 C1.34 10 0.68 10 0 10 C0 6.7 0 3.4 0 0 Z " fill="#DADCDE" transform="translate(817,603)"/>
<path d="M0 0 C2.1991413 4.39828259 2.51855059 7.18550592 3 12 C2.01 12.33 1.02 12.66 0 13 C0 8.71 0 4.42 0 0 Z " fill="#144B87" transform="translate(151,555)"/>
<path d="M0 0 C0 1.32 0 2.64 0 4 C-0.99 4 -1.98 4 -3 4 C-4.68798827 5.43750191 -4.68798827 5.43750191 -6 7 C-6.33 5.68 -6.66 4.36 -7 3 C-3.375 0 -3.375 0 0 0 Z " fill="#037CC7" transform="translate(197,507)"/>
<path d="M0 0 C2 3 2 3 1.625 5.6875 C1.41875 6.450625 1.2125 7.21375 1 8 C0.01 8.33 -0.98 8.66 -2 9 C-2.33 9.99 -2.66 10.98 -3 12 C-4 10 -4 10 -3.22265625 7.6171875 C-2.83980469 6.71226562 -2.45695313 5.80734375 -2.0625 4.875 C-1.68222656 3.96492188 -1.30195312 3.05484375 -0.91015625 2.1171875 C-0.60980469 1.41851562 -0.30945313 0.71984375 0 0 Z " fill="#E3E5E6" transform="translate(677,487)"/>
<path d="M0 0 C-0.86625 0.4021875 -0.86625 0.4021875 -1.75 0.8125 C-4.0325868 2.01719859 -5.9737942 3.40798115 -8 5 C-9.125 1.25 -9.125 1.25 -8 -1 C-4.6677027 -2.37888164 -3.02109173 -1.83423426 0 0 Z " fill="#E4E9EC" transform="translate(303,467)"/>
<path d="M0 0 C0.33 0 0.66 0 1 0 C1.91457003 5.56157448 2.32086397 9.675665 0 15 C-0.33 15 -0.66 15 -1 15 C-1.02685412 12.68756208 -1.04632841 10.3750373 -1.0625 8.0625 C-1.07410156 6.77472656 -1.08570313 5.48695313 -1.09765625 4.16015625 C-1 1 -1 1 0 0 Z " fill="#0290DC" transform="translate(230,428)"/>
<path d="M0 0 C0.66 0.33 1.32 0.66 2 1 C1.3503125 1.5878125 1.3503125 1.5878125 0.6875 2.1875 C-1.14164898 4.00305796 -1.14164898 4.00305796 -2.4375 6.625 C-4 9 -4 9 -6.09765625 9.6484375 C-6.72542969 9.76445312 -7.35320312 9.88046875 -8 10 C-7.04367001 8.70684939 -6.08486149 7.41553147 -5.125 6.125 C-4.59132812 5.40570313 -4.05765625 4.68640625 -3.5078125 3.9453125 C-2 2 -2 2 0 0 Z " fill="#0685C9" transform="translate(148,391)"/>
<path d="M0 0 C7.48291572 6.15034169 7.48291572 6.15034169 10 10 C7.43548915 8.90092392 5.90445054 7.9015551 3.9375 5.875 C2.09006673 3.65228929 2.09006673 3.65228929 -1 4 C-0.67 2.68 -0.34 1.36 0 0 Z " fill="#01367A" transform="translate(141,618)"/>
<path d="M0 0 C0.66 0 1.32 0 2 0 C2 0.99 2 1.98 2 3 C2.99 3.33 3.98 3.66 5 4 C4.67 5.65 4.34 7.3 4 9 C1 7 1 7 0 4 C-0.66 3.34 -1.32 2.68 -2 2 C-1.34 1.34 -0.68 0.68 0 0 Z " fill="#0462AC" transform="translate(102,582)"/>
<path d="M0 0 C0.84051229 2.35343441 1.08353007 3.68444196 0.4375 6.125 C-1.59995095 8.78254472 -3.83141251 9.17341196 -7 10 C-6.57847656 9.44570313 -6.15695312 8.89140625 -5.72265625 8.3203125 C-5.17480469 7.59585937 -4.62695312 6.87140625 -4.0625 6.125 C-3.51722656 5.40570313 -2.97195313 4.68640625 -2.41015625 3.9453125 C-0.96035376 2.05642921 -0.96035376 2.05642921 0 0 Z " fill="#0A0E13" transform="translate(765,489)"/>
<path d="M0 0 C0.33 0 0.66 0 1 0 C1.22162329 1.62324086 1.42689803 3.248721 1.625 4.875 C1.74101562 5.77992188 1.85703125 6.68484375 1.9765625 7.6171875 C1.98429688 8.40351563 1.99203125 9.18984375 2 10 C1.34 10.66 0.68 11.32 0 12 C-2.125 11.625 -2.125 11.625 -4 11 C-3.34 10.01 -2.68 9.02 -2 8 C-1.34 8 -0.68 8 0 8 C0 5.36 0 2.72 0 0 Z " fill="#037BC0" transform="translate(190,428)"/>
<path d="M0 0 C0.66 0.33 1.32 0.66 2 1 C-1.96 4.465 -1.96 4.465 -6 8 C-6.66 6.68 -7.32 5.36 -8 4 C-6.865625 3.525625 -5.73125 3.05125 -4.5625 2.5625 C-1.24259834 1.36377917 -1.24259834 1.36377917 0 0 Z " fill="#0C4D8E" transform="translate(267,533)"/>
<path d="M0 0 C0.598125 0.165 1.19625 0.33 1.8125 0.5 C4.11344336 1.1114124 4.11344336 1.1114124 7 1 C3.39042389 4.2910841 0.87362847 5.54663921 -4 6 C-2.68 5.34 -1.36 4.68 0 4 C0 2.68 0 1.36 0 0 Z " fill="#0B417E" transform="translate(320,514)"/>
<path d="M0 0 C1.15155977 3.45467931 1.50630022 5.8608245 0 9.25 C-0.33 9.8275 -0.66 10.405 -1 11 C-1.66 11 -2.32 11 -3 11 C-3.36923077 3.49230769 -3.36923077 3.49230769 -1.5 1 C-1.005 0.67 -0.51 0.34 0 0 Z " fill="#0782CC" transform="translate(255,451)"/>
<path d="M0 0 C0 0.66 0 1.32 0 2 C-0.66 2 -1.32 2 -2 2 C-2 2.66 -2 3.32 -2 4 C-4.3125 4.625 -4.3125 4.625 -7 5 C-7.99 4.34 -8.98 3.68 -10 3 C-8.70990357 2.49596232 -7.41786211 1.99690074 -6.125 1.5 C-5.04605469 1.08234375 -5.04605469 1.08234375 -3.9453125 0.65625 C-2 0 -2 0 0 0 Z " fill="#E0EAF0" transform="translate(283,674)"/>
<path d="M0 0 C0.33 0 0.66 0 1 0 C1.12375 0.78375 1.2475 1.5675 1.375 2.375 C1.79117993 5.14057822 1.79117993 5.14057822 4 7 C3.34 9.31 2.68 11.62 2 14 C0.09391902 10.78817851 -0.22266247 8.46117397 -0.125 4.75 C-0.09792969 3.41195312 -0.09792969 3.41195312 -0.0703125 2.046875 C-0.04710937 1.37140625 -0.02390625 0.6959375 0 0 Z " fill="#03377A" transform="translate(133,551)"/>
<path d="M0 0 C0.66 0.66 1.32 1.32 2 2 C1.75 5.5625 1.75 5.5625 1 9 C0.01 9.495 0.01 9.495 -1 10 C-2.15837626 5.94568308 -1.83691257 3.78187881 0 0 Z " fill="#141C23" transform="translate(808,492)"/>
<path d="M0 0 C2.96404505 2.80804268 5.44499019 5.18315774 7 9 C2.36285097 7.53563715 2.36285097 7.53563715 0.6875 5.0625 C0 3 0 3 0 0 Z " fill="#0B4183" transform="translate(134,609)"/>
<path d="M0 0 C1.25541557 3.76624671 0.37061958 5.37188934 -1 9 C-1.66 8.67 -2.32 8.34 -3 8 C-3.36923077 3.44615385 -3.36923077 3.44615385 -1.5 1.1875 C-1.005 0.795625 -0.51 0.40375 0 0 Z " fill="#055098" transform="translate(273,592)"/>
<path d="M0 0 C0.33 0.99 0.66 1.98 1 3 C-1.97 5.475 -1.97 5.475 -5 8 C-5.66 7.67 -6.32 7.34 -7 7 C-5.54744301 3.17053157 -3.57104439 1.87949705 0 0 Z " fill="#161E24" transform="translate(507,568)"/>
<path d="M0 0 C2.475 0.99 2.475 0.99 5 2 C-0.14285714 6.42857143 -0.14285714 6.42857143 -4 7 C-4 6.34 -4 5.68 -4 5 C-3.01 5 -2.02 5 -1 5 C-0.67 3.35 -0.34 1.7 0 0 Z " fill="#0163B0" transform="translate(265,530)"/>
<path d="M0 0 C1.60031344 3.20062687 0.03173691 5.72271806 -1 9 C-2.32 9 -3.64 9 -5 9 C-3.7508258 5.54074837 -2.32472205 2.85306797 0 0 Z " fill="#F5F7F7" transform="translate(265,470)"/>
<path d="M0 0 C2.02907167 3.3146667 2.12742133 5.4315979 1.625 9.25 C1.51414062 10.14203125 1.40328125 11.0340625 1.2890625 11.953125 C1.19367188 12.62859375 1.09828125 13.3040625 1 14 C0.67 14 0.34 14 0 14 C-0.19627391 12.41773035 -0.38165538 10.83410729 -0.5625 9.25 C-0.66691406 8.36828125 -0.77132813 7.4865625 -0.87890625 6.578125 C-0.99456676 4.11567549 -0.73638695 2.33461936 0 0 Z " fill="#E3E4E5" transform="translate(381,460)"/>
<path d="M0 0 C0.66 0 1.32 0 2 0 C1.34 2.64 0.68 5.28 0 8 C-0.66 8 -1.32 8 -2 8 C-2.33 8.66 -2.66 9.32 -3 10 C-3 8.02 -3 6.04 -3 4 C-2.34 3.67 -1.68 3.34 -1 3 C-0.67 2.01 -0.34 1.02 0 0 Z " fill="#028CD6" transform="translate(123,445)"/>
<path d="M0 0 C0.66 0.33 1.32 0.66 2 1 C-1.17320782 4.53586014 -3.16743695 6.58578031 -8 7 C-8 6.34 -8 5.68 -8 5 C-6.35 4.34 -4.7 3.68 -3 3 C-3 2.34 -3 1.68 -3 1 C-2.01 0.67 -1.02 0.34 0 0 Z " fill="#0491D7" transform="translate(174,392)"/>
<path d="M0 0 C0.33 0.66 0.66 1.32 1 2 C3.35599235 2.46751788 3.35599235 2.46751788 6.0625 2.625 C7.44115234 2.73714844 7.44115234 2.73714844 8.84765625 2.8515625 C9.55792969 2.90054688 10.26820313 2.94953125 11 3 C11 3.33 11 3.66 11 4 C9.56465159 4.2226746 8.12654475 4.42761906 6.6875 4.625 C5.88699219 4.74101563 5.08648438 4.85703125 4.26171875 4.9765625 C2 5 2 5 -1 3 C-0.67 2.01 -0.34 1.02 0 0 Z " fill="#F5F6F6" transform="translate(689,624)"/>
<path d="M0 0 C-0.39803561 2.88575819 -0.79009069 3.82189513 -3.0625 5.75 C-3.701875 6.1625 -4.34125 6.575 -5 7 C-5.33 6.01 -5.66 5.02 -6 4 C-2.25 0 -2.25 0 0 0 Z " fill="#DAE6EB" transform="translate(265,538)"/>
<path d="M0 0 C0.33 0 0.66 0 1 0 C1.09038099 5.15171623 0.84681133 9.91913204 0 15 C-0.33 15 -0.66 15 -1 15 C-2.01603857 9.20858017 -1.96263236 5.5415502 0 0 Z " fill="#0289D7" transform="translate(106,495)"/>
<path d="M0 0 C1.98 0 3.96 0 6 0 C2.98112756 3.48331435 0.43090471 4.79157144 -4 6 C-3.525625 5.38125 -3.05125 4.7625 -2.5625 4.125 C-0.97582559 2.09294454 -0.97582559 2.09294454 0 0 Z " fill="#0F63A4" transform="translate(235,495)"/>
<path d="M0 0 C0.66 0.33 1.32 0.66 2 1 C2 1.66 2 2.32 2 3 C0.35 3.66 -1.3 4.32 -3 5 C-3.66 4.34 -4.32 3.68 -5 3 C-2.625 1.4375 -2.625 1.4375 0 0 Z M-7 4 C-5 5 -5 5 -5 5 Z " fill="#DFE1E2" transform="translate(400,439)"/>
<path d="M0 0 C0.33 0.99 0.66 1.98 1 3 C-1.97 5.475 -1.97 5.475 -5 8 C-4.67 6.35 -4.34 4.7 -4 3 C-3.34 3 -2.68 3 -2 3 C-2 2.34 -2 1.68 -2 1 C-1.34 0.67 -0.68 0.34 0 0 Z " fill="#0280C5" transform="translate(151,410)"/>
<path d="M0 0 C2.97 0.495 2.97 0.495 6 1 C6 4 6 4 4 6.1875 C3.34 6.785625 2.68 7.38375 2 8 C2.66 6.02 3.32 4.04 4 2 C2.68 1.34 1.36 0.68 0 0 Z " fill="#0E1013" transform="translate(541,609)"/>
<path d="M0 0 C0 3.99904969 -1.72586967 5.80200422 -4 9 C-5 7 -5 7 -4.25 4.5 C-3 2 -3 2 0 0 Z " fill="#0D4588" transform="translate(310,569)"/>
<path d="M0 0 C4.05606165 0.46800711 7.46588679 0.87953208 11 3 C7.44706507 4.14947895 6.20023331 4.0868937 2.6875 2.5625 C1.800625 2.046875 0.91375 1.53125 0 1 C0 0.67 0 0.34 0 0 Z " fill="#E8E8E9" transform="translate(498,521)"/>
<path d="M0 0 C1.89213369 2.38573379 3.02391783 4.07175348 4 7 C3.01 7.33 2.02 7.66 1 8 C-0.42944945 5.64561267 -1.08661261 4.51967567 -0.625 1.75 C-0.41875 1.1725 -0.2125 0.595 0 0 Z " fill="#E1E2E3" transform="translate(363,494)"/>
<path d="M0 0 C0.99 0.33 1.98 0.66 3 1 C2.67 2.32 2.34 3.64 2 5 C0.35 5.33 -1.3 5.66 -3 6 C-3 5.34 -3 4.68 -3 4 C-2.01 3.34 -1.02 2.68 0 2 C0 1.34 0 0.68 0 0 Z " fill="#098CCF" transform="translate(162,398)"/>
<path d="M0 0 C0.33 0 0.66 0 1 0 C1.3125 2.6875 1.3125 2.6875 1 6 C-1.5 8.875 -1.5 8.875 -4 11 C-4.33 10.01 -4.66 9.02 -5 8 C-4.01 7.67 -3.02 7.34 -2 7 C-0.77030122 3.48809191 -0.77030122 3.48809191 0 0 Z " fill="#032F6E" transform="translate(315,644)"/>
<path d="M0 0 C1.32 0.33 2.64 0.66 4 1 C4.66 3.31 5.32 5.62 6 8 C1.125 3.375 1.125 3.375 0 0 Z " fill="#0A3D7F" transform="translate(119,617)"/>
<path d="M0 0 C0 1.65 0 3.3 0 5 C-2.97 4.505 -2.97 4.505 -6 4 C-6 3.34 -6 2.68 -6 2 C-3 0 -3 0 0 0 Z " fill="#E4E5E7" transform="translate(826,591)"/>
<path d="M0 0 C0.33 0.99 0.66 1.98 1 3 C1.66 3 2.32 3 3 3 C3.625 4.8125 3.625 4.8125 4 7 C3.01 8.485 3.01 8.485 2 10 C0.39644899 6.49223216 -0.22036864 3.85645121 0 0 Z " fill="#053E83" transform="translate(226,584)"/>
<path d="M0 0 C0.99 0.33 1.98 0.66 3 1 C2.34 1 1.68 1 1 1 C1.33 1.99 1.66 2.98 2 4 C0.68 4.33 -0.64 4.66 -2 5 C-2 2 -2 2 0 0 Z M-3 5 C-2.67 5.66 -2.34 6.32 -2 7 C-2.66 6.67 -3.32 6.34 -4 6 C-3.67 5.67 -3.34 5.34 -3 5 Z " fill="#E5E7E7" transform="translate(451,509)"/>
<path d="M0 0 C0.33 0 0.66 0 1 0 C1.96891192 5.37305699 1.96891192 5.37305699 2 8 C0.5625 10 0.5625 10 -1 11 C-2.31625194 8.36749612 -1.74813658 7.19820944 -1.0625 4.375 C-0.86785156 3.55773437 -0.67320312 2.74046875 -0.47265625 1.8984375 C-0.23869141 0.95871094 -0.23869141 0.95871094 0 0 Z " fill="#D7D8D9" transform="translate(566,490)"/>
<path d="M0 0 C0.99 0.33 1.98 0.66 3 1 C1.84826645 3.46800047 0.95216435 5.04783565 -1 7 C-1.66 6.01 -2.32 5.02 -3 4 C-2.01 3.67 -1.02 3.34 0 3 C0 2.01 0 1.02 0 0 Z " fill="#0E85C7" transform="translate(134,428)"/>
<path d="M0 0 C0.66 0 1.32 0 2 0 C2.33 0.99 2.66 1.98 3 3 C-0.75 6 -0.75 6 -3 6 C-2 4 -1 2 0 0 Z " fill="#1792D1" transform="translate(144,416)"/>
<path d="M0 0 C0.66 1.32 1.32 2.64 2 4 C1.67 4.33 1.34 4.66 1 5 C0.76924918 6.34747084 0.58846937 7.70377565 0.4375 9.0625 C0.293125 10.361875 0.14875 11.66125 0 13 C-0.33 13 -0.66 13 -1 13 C-1.02696365 11.20841511 -1.04637917 9.41671527 -1.0625 7.625 C-1.07410156 6.62726563 -1.08570313 5.62953125 -1.09765625 4.6015625 C-1 2 -1 2 0 0 Z " fill="#028EDC" transform="translate(253,407)"/>
<path d="M0 0 C0.33 0.66 0.66 1.32 1 2 C1.66 2.33 2.32 2.66 3 3 C2.67 3.33 2.34 3.66 2 4 C2.99 4.99 3.98 5.98 5 7 C1.08597051 5.73058503 -0.79072873 4.48832306 -3 1 C-2.01 0.67 -1.02 0.34 0 0 Z " fill="#054690" transform="translate(165,656)"/>
<path d="M0 0 C3.36720387 1.39332574 4.9859524 2.9789286 7 6 C3.75728494 5.4409112 2.06942576 4.5867822 0 2 C0 1.34 0 0.68 0 0 Z " fill="#D2E1EB" transform="translate(131,634)"/>
<path d="M0 0 C0.66 0 1.32 0 2 0 C3.49524178 2.2727675 4.78399715 4.5679943 6 7 C4.68 6.67 3.36 6.34 2 6 C2 5.34 2 4.68 2 4 C1.34 4 0.68 4 0 4 C0 2.68 0 1.36 0 0 Z " fill="#025EA9" transform="translate(206,621)"/>
<path d="M0 0 C1.67542976 0.28604898 3.34385343 0.61781233 5 1 C5 1.66 5 2.32 5 3 C5.66 3.33 6.32 3.66 7 4 C1.25 3.25 1.25 3.25 -1 1 C-0.67 0.67 -0.34 0.34 0 0 Z " fill="#E6E7E8" transform="translate(816,566)"/>
<path d="M0 0 C-4.38585329 0.70173653 -8.55790643 1.10834375 -13 1 C-13 0.67 -13 0.34 -13 0 C-11.58800422 -0.39222105 -10.17007236 -0.76311059 -8.75 -1.125 C-7.96109375 -1.33382813 -7.1721875 -1.54265625 -6.359375 -1.7578125 C-3.5796929 -2.04314411 -2.34112451 -1.44977894 0 0 Z " fill="#E7E7E7" transform="translate(536,504)"/>
<path d="M0 0 C0 0.99 0 1.98 0 3 C-3.465 4.485 -3.465 4.485 -7 6 C-6 3 -6 3 -2.9375 1.3125 C-1.968125 0.879375 -0.99875 0.44625 0 0 Z " fill="#038CD9" transform="translate(222,486)"/>
<path d="M0 0 C1.32 0.66 2.64 1.32 4 2 C3.34 3.65 2.68 5.3 2 7 C0.5393715 4.35261084 0 3.10551666 0 0 Z " fill="#065C9E" transform="translate(317,484)"/>
<path d="M0 0 C1.65 1.32 3.3 2.64 5 4 C4.67 5.32 4.34 6.64 4 8 C1.10067643 5.60490662 0.49831724 3.68754757 0 0 Z " fill="#DFE9EE" transform="translate(332,479)"/>
<path d="M0 0 C2 1 2 1 3.125 4.0625 C3.41375 5.031875 3.7025 6.00125 4 7 C0.535 5.02 0.535 5.02 -3 3 C-2.01 2.01 -1.02 1.02 0 0 Z " fill="#0E4885" transform="translate(314,482)"/>
<path d="M0 0 C0.66 0.33 1.32 0.66 2 1 C1.34 2.65 0.68 4.3 0 6 C-0.66 6 -1.32 6 -2 6 C-2.33 6.66 -2.66 7.32 -3 8 C-3 3.73173127 -2.62386487 3.06117568 0 0 Z " fill="#0398E1" transform="translate(120,423)"/>
<path d="M0 0 C-0.33 0.66 -0.66 1.32 -1 2 C-3.6739124 2.89130413 -6.23723823 3.47731534 -9 4 C-6.35287314 0.09233654 -4.86783735 -1.62261245 0 0 Z " fill="#171F25" transform="translate(400,420)"/>
<path d="M0 0 C2.475 0.495 2.475 0.495 5 1 C5.33 2.65 5.66 4.3 6 6 C5.01 6.33 4.02 6.66 3 7 C2.690625 6.21625 2.38125 5.4325 2.0625 4.625 C1.07124962 2.07669872 1.07124962 2.07669872 0 0 Z " fill="#0D91D5" transform="translate(222,417)"/>
<path d="M0 0 C0.99 0.33 1.98 0.66 3 1 C2.625 2.9375 2.625 2.9375 2 5 C1.01 5.495 1.01 5.495 0 6 C-0.66 5.67 -1.32 5.34 -2 5 C-2 4.34 -2 3.68 -2 3 C-1.34 3 -0.68 3 0 3 C0 2.01 0 1.02 0 0 Z " fill="#1395D5" transform="translate(155,404)"/>
<path d="M0 0 C1.32 0.66 2.64 1.32 4 2 C3.67 2.99 3.34 3.98 3 5 C2.67 4.67 2.34 4.34 2 4 C1.67 4.99 1.34 5.98 1 7 C-0.0625 5.1875 -0.0625 5.1875 -1 3 C-0.67 2.01 -0.34 1.02 0 0 Z " fill="#0683C9" transform="translate(232,352)"/>
</svg>
